{
classes = (
{
automatic = 1;
code = "A B C D E F G H I J K L M N O P Q R S T U V W X Y Z Agrave Aacute Acircumflex Atilde Adieresis Aring AE Ccedilla Egrave Eacute Ecircumflex Edieresis Igrave Iacute Icircumflex Idieresis Eth Ntilde Ograve Oacute Ocircumflex Otilde Odieresis Oslash Ugrave Uacute Ucircumflex Udieresis Yacute Thorn Cacute Ccaron Gbreve Idotaccent Lslash OE Scedilla Scaron Ydieresis Zcaron Omega Delta";
name = Uppercase;
}
);
copyright = "Attribution-NonCommercial-ShareAlike 3.0 Unported (CC BY-NC-SA 3.0)";
customParameters = (
{
name = glyphOrder;
value = (
    ".notdef",
    uni0000,
    uni000D,
    NULL,
    space,
    exclam,
    quotedbl,
    numbersign,
    dollar,
    percent,
    ampersand,
    quotesingle,
    parenleft,
    parenright,
    asterisk,
    plus,
    comma,
    hyphen,
    period,
    slash,
    zero,
    one,
    two,
    three,
    four,
    five,
    six,
    seven,
    eight,
    nine,
    colon,
    semicolon,
    less,
    equal,
    greater,
    question,
    at,
    A,
    B,
    C,
    D,
    E,
    F,
    G,
    H,
    I,
    J,
    K,
    L,
    M,
    N,
    O,
    P,
    Q,
    R,
    S,
    T,
    U,
    V,
    W,
    X,
    Y,
    Z,
    bracketleft,
    backslash,
    bracketright,
    asciicircum,
    underscore,
    grave,
    a,
    b,
    c,
    d,
    e,
    f,
    g,
    h,
    i,
    j,
    k,
    l,
    m,
    n,
    o,
    p,
    q,
    r,
    s,
    t,
    u,
    v,
    w,
    x,
    y,
    z,
    braceleft,
    bar,
    braceright,
    asciitilde,
    uni00A0,
    exclamdown,
    cent,
    sterling,
    currency,
    yen,
    brokenbar,
    section,
    dieresis,
    copyright,
    ordfeminine,
    guillemotleft,
    logicalnot,
    sfthyphen,
    registered,
    macron,
    degree,
    plusminus,
    twosuperior,
    threesuperior,
    acute,
    mu,
    paragraph,
    periodcentered,
    cedilla,
    onesuperior,
    ordmasculine,
    guillemotright,
    onequarter,
    onehalf,
    threequarters,

glyphs = (
{
glyphname = .notdef;
lastChange = "2012-06-10 13:56:22 +0000";
layers = (
{
layerId = "013FA67F-D7C9-4F04-AAC6-32032829ED9A";
name = Bold;
paths = (
{
closed = 1;
nodes = (
"56 -320 LINE",
"148 256 OFFCURVE",
"197 844 OFFCURVE",
"208 1439 CURVE",
"383 1412 OFFCURVE",
"544 1399 OFFCURVE",
"703 1399 CURVE SMOOTH",
"868 1399 OFFCURVE",
"1042 1412 OFFCURVE",
"1229 1439 CURVE",
"1133 843 OFFCURVE",
"1078 251 OFFCURVE",
"1073 -346 CURVE",
"898 -321 OFFCURVE",
"731 -310 OFFCURVE",
"567 -310 CURVE SMOOTH",
"406 -310 OFFCURVE",
"243 -320 OFFCURVE",
"79 -343 CURVE"
);
},
{
closed = 1;
nodes = (
"203 -28 LINE",
"211 -27 OFFCURVE",
"219 -26 OFFCURVE",
"227 -26 CURVE",
"224 -51 LINE"
);
},
{
closed = 1;
nodes = (
"317 847 OFFCURVE",
"282 414 OFFCURVE",
"227 -26 CURVE",
"348 -18 OFFCURVE",
"472 -14 OFFCURVE",
"593 -14 CURVE SMOOTH",
"656 -14 OFFCURVE",
"715 -14 OFFCURVE",
"773 -16 CURVE SMOOTH",
"831 -18 OFFCURVE",
"888 -22 OFFCURVE",
"951 -26 CURVE",
"974 417 OFFCURVE",
"1012 849 OFFCURVE",
"1076 1289 CURVE",
"947 1278 OFFCURVE",
"824 1271 OFFCURVE",
"695 1271 CURVE SMOOTH",
"574 1271 OFFCURVE",
"454 1277 OFFCURVE",
"334 1288 CURVE"
);
}
);
width = 1298;
}
);
},
{
glyphname = exclam;
lastChange = "2012-06-10 13:56:22 +0000";
layers = (
{
layerId = "013FA67F-D7C9-4F04-AAC6-32032829ED9A";
name = Bold;
paths = (
{
closed = 1;
nodes = (
"225 285 LINE",
"256 292 OFFCURVE",
"287 296 OFFCURVE",
"322 296 CURVE SMOOTH",
"351 296 OFFCURVE",
"388 291 OFFCURVE",
"431 280 CURVE",
"431 233 LINE SMOOTH",
"431 189 OFFCURVE",
"432 145 OFFCURVE",
"433 101 CURVE SMOOTH",
"433 96 OFFCURVE",
"433 89 OFFCURVE",
"433 80 CURVE SMOOTH",
"433 71 OFFCURVE",
"433 61 OFFCURVE",
"434 52 CURVE",
"434 43 OFFCURVE",
"434 34 OFFCURVE",
"434 25 CURVE SMOOTH",
"434 16 OFFCURVE",
"434 8 OFFCURVE",
"434 3 CURVE",
"383 26 OFFCURVE",
"339 37 OFFCURVE",
"303 37 CURVE SMOOTH",
"266 37 OFFCURVE",
"218 25 OFFCURVE",
"160 1 CURVE",
"188 153 LINE",
"188 152 LINE",
"191 171 OFFCURVE",
"195 191 OFFCURVE",
"198 211 CURVE SMOOTH",
"201 231 OFFCURVE",
"205 251 OFFCURVE",
"209 270 CURVE"
);
},
{
closed = 1;
nodes = (
"344 1465 LINE",
"368 1458 OFFCURVE",
"393 1455 OFFCURVE",
"418 1455 CURVE SMOOTH",
"447 1455 OFFCURVE",
"485 1462 OFFCURVE",
"531 1477 CURVE",
"515 1302 OFFCURVE",
"499 1103 OFFCURVE",
"487 930 CURVE SMOOTH",
"486 915 OFFCURVE",
"484 899 OFFCURVE",
"483 882 CURVE SMOOTH",
"482 865 OFFCURVE",
"480 849 OFFCURVE",
"479 834 CURVE",
"479 809 OFFCURVE",
"479 785 OFFCURVE",
"479 761 CURVE SMOOTH",
"479 737 OFFCURVE",
"479 713 OFFCURVE",
"478 689 CURVE",
"478 680 OFFCURVE",
"478 669 OFFCURVE",
"478 657 CURVE SMOOTH",
"478 644 OFFCURVE",
"478 631 OFFCURVE",
"478 618 CURVE",
"477 604 OFFCURVE",
"477 591 OFFCURVE",
"477 578 CURVE SMOOTH",
"477 565 OFFCURVE",
"477 555 OFFCURVE",
"477 546 CURVE SMOOTH",
"477 475 LINE",
"422 484 OFFCURVE",
"380 488 OFFCURVE",
"344 488 CURVE SMOOTH",
"307 488 OFFCURVE",
"261 484 OFFCURVE",
"202 475 CURVE",
"249 792 OFFCURVE",
"286 1130 OFFCURVE",
"319 1449 CURVE"
);
}
);
width = 629;
}
);
unicode = 0021;
},
{
glyphname = quotedbl;
lastChange = "2012-06-10 13:56:22 +0000";
layers = (
{
layerId = "013FA67F-D7C9-4F04-AAC6-32032829ED9A";
name = Bold;
paths = (
{
closed = 1;
nodes = (
"497 1455 LINE",
"494 1276 OFFCURVE",
"484 1094 OFFCURVE",
"461 903 CURVE",
"446 902 OFFCURVE",
"429 902 OFFCURVE",
"410 901 CURVE SMOOTH",
"391 900 OFFCURVE",
"371 899 OFFCURVE",
"351 898 CURVE SMOOTH",
"311 896 OFFCURVE",
"271 893 OFFCURVE",
"242 890 CURVE",
"285 1074 OFFCURVE",
"305 1252 OFFCURVE",
"305 1427 CURVE SMOOTH",
"305 1485 LINE",
"330 1482 OFFCURVE",
"361 1481 OFFCURVE",
"392 1479 CURVE SMOOTH",
"407 1478 OFFCURVE",
"423 1477 OFFCURVE",
"438 1476 CURVE SMOOTH",
"453 1475 OFFCURVE",
"466 1475 OFFCURVE",
"479 1474 CURVE"
);
},
{
closed = 1;
nodes = (
"890 1460 LINE",
"862 1322 OFFCURVE",
"848 1185 OFFCURVE",
"848 1048 CURVE SMOOTH",
"848 1003 OFFCURVE",
"848 954 OFFCURVE",
"855 890 CURVE",
"826 893 OFFCURVE",
"786 896 OFFCURVE",
"746 898 CURVE SMOOTH",
"726 899 OFFCURVE",
"707 900 OFFCURVE",
"688 901 CURVE SMOOTH",
"669 902 OFFCURVE",
"652 902 OFFCURVE",
"638 903 CURVE",
"646 1095 OFFCURVE",
"667 1284 OFFCURVE",
"698 1475 CURVE",
"735 1475 OFFCURVE",
"787 1477 OFFCURVE",
"824 1480 CURVE SMOOTH",
"869 1483 LINE"
);
}
);
width = 1133;
}
);
unicode = 0022;
},
{
glyphname = numbersign;
lastChange = "2012-06-10 13:56:22 +0000";
layers = (
{
layerId = "013FA67F-D7C9-4F04-AAC6-32032829ED9A";
name = Bold;
paths = (
{
closed = 1;
nodes = (
"928 879 LINE",
"901 879 LINE",
"909 905 LINE"
);
},
{
closed = 1;
nodes = (
"804 587 LINE",
"815 619 OFFCURVE",
"825 651 OFFCURVE",
"836 684 CURVE SMOOTH",
"847 717 OFFCURVE",
"858 749 OFFCURVE",
"869 781 CURVE SMOOTH",
"901 879 LINE",
"859 879 OFFCURVE",
"819 879 OFFCURVE",
"780 879 CURVE SMOOTH",
"741 879 OFFCURVE",
"699 879 OFFCURVE",
"655 878 CURVE",
"654 873 OFFCURVE",
"652 869 OFFCURVE",
"651 865 CURVE",
"649 861 OFFCURVE",
"647 856 OFFCURVE",
"646 851 CURVE",
"638 827 OFFCURVE",
"631 804 OFFCURVE",
"624 783 CURVE SMOOTH",
"610 739 OFFCURVE",
"596 698 OFFCURVE",
"581 655 CURVE SMOOTH",
"574 633 OFFCURVE",
"566 610 OFFCURVE",
"558 586 CURVE",
"646 586 LINE SMOOTH",
"665 586 OFFCURVE",
"685 586 OFFCURVE",
"704 587 CURVE",
"723 587 OFFCURVE",
"742 587 OFFCURVE",
"761 587 CURVE SMOOTH"
);
},
{
closed = 1;
nodes = (
"842 1432 LINE",
"819 1367 OFFCURVE",
"797 1303 OFFCURVE",
"774 1238 CURVE SMOOTH",
"751 1173 OFFCURVE",
"729 1108 OFFCURVE",
"708 1043 CURVE",
"731 1043 OFFCURVE",
"752 1043 OFFCURVE",
"772 1043 CURVE SMOOTH",
"792 1043 OFFCURVE",
"812 1043 OFFCURVE",
"832 1043 CURVE SMOOTH",
"851 1043 OFFCURVE",
"871 1043 OFFCURVE",
"892 1044 CURVE",
"912 1044 OFFCURVE",
"933 1044 OFFCURVE",
"956 1044 CURVE",
"1003 1173 OFFCURVE",
"1056 1312 OFFCURVE",
"1107 1437 CURVE",
"1128 1438 OFFCURVE",
"1152 1440 OFFCURVE",
"1177 1441 CURVE SMOOTH",
"1202 1442 OFFCURVE",
"1225 1444 OFFCURVE",
"1246 1445 CURVE",
"1286 1445 LINE",
"1230 1313 OFFCURVE",
"1176 1181 OFFCURVE",
"1129 1046 CURVE",
"1220 1049 OFFCURVE",
"1328 1052 OFFCURVE",
"1416 1056 CURVE",
"1411 1027 OFFCURVE",
"1404 976 OFFCURVE",
"1400 947 CURVE SMOOTH",
"1392 886 LINE",
"1339 885 OFFCURVE",
"1285 884 OFFCURVE",
"1231 883 CURVE SMOOTH",
"1176 882 OFFCURVE",
"1122 882 OFFCURVE",
"1069 881 CURVE",
"1060 855 OFFCURVE",
"1052 830 OFFCURVE",
"1044 806 CURVE SMOOTH",
"1028 758 OFFCURVE",
"1013 711 OFFCURVE",
"998 663 CURVE SMOOTH",
"990 639 OFFCURVE",
"982 614 OFFCURVE",
"974 587 CURVE",
"994 587 OFFCURVE",
"1014 587 OFFCURVE",
"1034 586 CURVE SMOOTH",
"1074 585 OFFCURVE",
"1114 584 OFFCURVE",
"1177 584 CURVE SMOOTH",
"1208 583 OFFCURVE",
"1236 583 OFFCURVE",
"1261 583 CURVE",
"1260 572 OFFCURVE",
"1259 559 OFFCURVE",
"1258 542 CURVE SMOOTH",
"1257 525 OFFCURVE",
"1256 511 OFFCURVE",
"1255 500 CURVE SMOOTH",
"1250 417 LINE",
"1214 418 OFFCURVE",
"1175 419 OFFCURVE",
"1133 420 CURVE SMOOTH",
"1091 421 OFFCURVE",
"1052 421 OFFCURVE",
"1016 422 CURVE SMOOTH",
"998 422 OFFCURVE",
"982 422 OFFCURVE",
"969 423 CURVE SMOOTH",
"955 424 OFFCURVE",
"939 424 OFFCURVE",
"921 424 CURVE",
"906 375 OFFCURVE",
"889 323 OFFCURVE",
"873 276 CURVE SMOOTH",
"867 258 OFFCURVE",
"861 239 OFFCURVE",
"855 218 CURVE SMOOTH",
"842 176 OFFCURVE",
"829 133 OFFCURVE",
"817 92 CURVE",
"810 71 OFFCURVE",
"804 52 OFFCURVE",
"799 34 CURVE",
"776 35 OFFCURVE",
"740 36 OFFCURVE",
"717 36 CURVE SMOOTH",
"623 36 LINE",
"694 255 LINE SMOOTH",
"699 271 OFFCURVE",
"704 286 OFFCURVE",
"709 300 CURVE SMOOTH",
"714 313 OFFCURVE",
"718 327 OFFCURVE",
"722 340 CURVE SMOOTH",
"726 353 OFFCURVE",
"730 367 OFFCURVE",
"735 381 CURVE SMOOTH",
"740 394 OFFCURVE",
"745 409 OFFCURVE",
"750 425 CURVE",
"707 425 OFFCURVE",
"666 425 OFFCURVE",
"627 425 CURVE SMOOTH",
"588 425 OFFCURVE",
"546 424 OFFCURVE",
"501 423 CURVE",
"460 302 OFFCURVE",
"414 183 OFFCURVE",
"367 63 CURVE",
"367 65 LINE",
"355 31 LINE",
"274 27 LINE",
"175 23 LINE",
"231 154 OFFCURVE",
"283 287 OFFCURVE",
"330 422 CURVE",
"284 421 OFFCURVE",
"236 419 OFFCURVE",
"186 418 CURVE SMOOTH",
"135 416 OFFCURVE",
"88 414 OFFCURVE",
"43 413 CURVE",
"44 419 OFFCURVE",
"45 426 OFFCURVE",
"46 435 CURVE SMOOTH",
"47 443 OFFCURVE",
"49 452 OFFCURVE",
"50 461 CURVE SMOOTH",
"51 470 OFFCURVE",
"52 478 OFFCURVE",
"53 487 CURVE SMOOTH",
"54 495 OFFCURVE",
"54 502 OFFCURVE",
"55 508 CURVE SMOOTH",
"56 513 OFFCURVE",
"56 518 OFFCURVE",
"57 525 CURVE",
"58 538 OFFCURVE",
"61 553 OFFCURVE",
"63 566 CURVE SMOOTH",
"64 572 OFFCURVE",
"64 577 OFFCURVE",
"65 581 CURVE",
"241 583 LINE SMOOTH",
"296 583 OFFCURVE",
"333 584 OFFCURVE",
"388 585 CURVE",
"423 688 OFFCURVE",
"451 775 OFFCURVE",
"486 880 CURVE",
"393 880 OFFCURVE",
"284 882 OFFCURVE",
"195 885 CURVE",
"199 956 LINE",
"202 983 OFFCURVE",
"203 1025 OFFCURVE",
"203 1052 CURVE",
"315 1047 OFFCURVE",
"427 1045 OFFCURVE",
"538 1044 CURVE",
"577 1171 OFFCURVE",
"622 1307 OFFCURVE",
"663 1432 CURVE"
);
}
);
width = 1516;
}
);
unicode = 0023;
},
{
glyphname = dollar;
lastChange = "2012-06-10 13:56:22 +0000";
layers = (
{
layerId = "013FA67F-D7C9-4F04-AAC6-32032829ED9A";
name = Bold;
paths = (
{
closed = 1;
nodes = (
"540 -243 LINE",
"515 -242 OFFCURVE",
"483 -241 OFFCURVE",
"452 -241 CURVE SMOOTH",
"436 -241 OFFCURVE",
"420 -241 OFFCURVE",
"405 -241 CURVE SMOOTH",
"390 -241 OFFCURVE",
"376 -241 OFFCURVE",
"363 -241 CURVE",
"374 -181 LINE SMOOTH",
"378 -160 OFFCURVE",
"382 -141 OFFCURVE",
"385 -123 CURVE SMOOTH",
"391 -87 OFFCURVE",
"396 -51 OFFCURVE",
"403 -15 CURVE SMOOTH",
"406 3 OFFCURVE",
"410 22 OFFCURVE",
"413 43 CURVE",
"289 50 OFFCURVE",
"165 70 OFFCURVE",
"41 121 CURVE",
"53 205 LINE",
"54 216 OFFCURVE",
"56 230 OFFCURVE",
"58 245 CURVE",
"59 260 OFFCURVE",
"61 275 OFFCURVE",
"63 291 CURVE SMOOTH",
"65 306 OFFCURVE",
"67 322 OFFCURVE",
"69 337 CURVE",
"70 352 OFFCURVE",
"72 365 OFFCURVE",
"73 376 CURVE",
"190 297 OFFCURVE",
"313 256 OFFCURVE",
"437 251 CURVE",
"456 427 LINE",
"474 601 LINE",
"378 621 OFFCURVE",
"282 651 OFFCURVE",
"211 724 CURVE SMOOTH",
"151 788 OFFCURVE",
"133 877 OFFCURVE",
"133 964 CURVE",
"136 1016 OFFCURVE",
"155 1071 OFFCURVE",
"186 1119 CURVE SMOOTH",
"217 1167 OFFCURVE",
"258 1208 OFFCURVE",
"309 1235 CURVE",
"394 1274 OFFCURVE",
"478 1289 OFFCURVE",
"554 1294 CURVE",
"561 1349 LINE",
"562 1362 OFFCURVE",
"564 1375 OFFCURVE",
"566 1390 CURVE",
"567 1404 OFFCURVE",
"569 1418 OFFCURVE",
"570 1433 CURVE",
"573 1462 OFFCURVE",
"575 1493 OFFCURVE",
"578 1518 CURVE",
"585 1518 OFFCURVE",
"594 1518 OFFCURVE",
"607 1518 CURVE",
"620 1517 OFFCURVE",
"629 1517 OFFCURVE",
"636 1517 CURVE",
"643 1516 OFFCURVE",
"653 1516 OFFCURVE",
"666 1516 CURVE SMOOTH",
"679 1516 OFFCURVE",
"688 1516 OFFCURVE",
"695 1516 CURVE",
"671 1296 LINE",
"771 1291 OFFCURVE",
"881 1279 OFFCURVE",
"994 1248 CURVE",
"983 1168 LINE",
"970 1076 LINE",
"863 1132 OFFCURVE",
"758 1152 OFFCURVE",
"655 1159 CURVE",
"640 1026 OFFCURVE",
"627 895 OFFCURVE",
"614 762 CURVE SMOOTH",
"612 742 LINE",
"661 733 OFFCURVE",
"712 721 OFFCURVE",
"761 704 CURVE SMOOTH",
"810 687 OFFCURVE",
"856 664 OFFCURVE",
"895 629 CURVE SMOOTH",
"955 573 OFFCURVE",
"979 485 OFFCURVE",
"979 402 CURVE SMOOTH",
"979 354 OFFCURVE",
"967 303 OFFCURVE",
"944 256 CURVE SMOOTH",
"921 209 OFFCURVE",
"889 166 OFFCURVE",
"849 134 CURVE",
"764 74 OFFCURVE",
"664 50 OFFCURVE",
"567 42 CURVE",
"565 -54 LINE SMOOTH",
"564 -83 OFFCURVE",
"563 -111 OFFCURVE",
"563 -139 CURVE",
"562 -167 OFFCURVE",
"562 -195 OFFCURVE",
"561 -224 CURVE"
);
},
{
closed = 1;
nodes = (
"484 754 LINE",
"484 755 LINE",
"486 755 LINE"
);
},
{
closed = 1;
nodes = (
"282 883 OFFCURVE",
"309 841 OFFCURVE",
"347 810 CURVE SMOOTH",
"385 779 OFFCURVE",
"435 760 OFFCURVE",
"484 755 CURVE",
"489 797 OFFCURVE",
"493 839 OFFCURVE",
"497 881 CURVE SMOOTH",
"501 922 OFFCURVE",
"505 964 OFFCURVE",
"510 1007 CURVE SMOOTH",
"513 1033 OFFCURVE",
"515 1057 OFFCURVE",
"517 1078 CURVE SMOOTH",
"519 1099 OFFCURVE",
"522 1124 OFFCURVE",
"525 1151 CURVE",
"462 1143 OFFCURVE",
"406 1129 OFFCURVE",
"355 1088 CURVE SMOOTH",
"307 1049 OFFCURVE",
"282 995 OFFCURVE",
"282 936 CURVE SMOOTH"
);
},
{
closed = 1;
nodes = (
"589 582 LINE",
"588 579 OFFCURVE",
"588 576 OFFCURVE",
"588 571 CURVE",
"587 572 OFFCURVE",
"586 572 OFFCURVE",
"586 572 CURVE",
"581 568 LINE"
);
},
{
closed = 1;
nodes = (
"778 451 OFFCURVE",
"753 488 OFFCURVE",
"717 516 CURVE SMOOTH",
"681 544 OFFCURVE",
"633 563 OFFCURVE",
"588 571 CURVE",
"583 506 OFFCURVE",
"580 441 OFFCURVE",
"577 377 CURVE SMOOTH",
"570 246 LINE",
"618 254 OFFCURVE",
"667 265 OFFCURVE",
"714 282 CURVE",
"739 290 OFFCURVE",
"756 309 OFFCURVE",
"766 332 CURVE SMOOTH",
"776 355 OFFCURVE",
"778 380 OFFCURVE",
"778 403 CURVE SMOOTH"
);
}
);
width = 1069;
}
);
unicode = 0024;
},
{
glyphname = percent;
lastChange = "2012-06-10 13:56:22 +0000";
layers = (
{
layerId = "013FA67F-D7C9-4F04-AAC6-32032829ED9A";
name = Bold;
paths = (
{
closed = 1;
nodes = (
"1311 651 OFFCURVE",
"1266 612 OFFCURVE",
"1238 558 CURVE SMOOTH",
"1210 504 OFFCURVE",
"1200 437 OFFCURVE",
"1200 382 CURVE SMOOTH",
"1200 330 OFFCURVE",
"1213 279 OFFCURVE",
"1241 241 CURVE SMOOTH",
"1269 203 OFFCURVE",
"1311 178 OFFCURVE",
"1367 178 CURVE SMOOTH",
"1432 178 OFFCURVE",
"1471 220 OFFCURVE",
"1494 275 CURVE SMOOTH",
"1517 330 OFFCURVE",
"1523 396 OFFCURVE",
"1523 443 CURVE SMOOTH",
"1523 491 OFFCURVE",
"1514 543 OFFCURVE",
"1491 583 CURVE SMOOTH",
"1468 623 OFFCURVE",
"1433 651 OFFCURVE",
"1380 651 CURVE SMOOTH"
);
},
{
closed = 1;
nodes = (
"1481 793 OFFCURVE",
"1567 759 OFFCURVE",
"1618 683 CURVE",
"1617 684 LINE",
"1674 605 OFFCURVE",
"1689 506 OFFCURVE",
"1689 407 CURVE SMOOTH",
"1689 356 OFFCURVE",
"1685 300 OFFCURVE",
"1672 247 CURVE SMOOTH",
"1659 194 OFFCURVE",
"1637 141 OFFCURVE",
"1600 97 CURVE",
"1601 98 LINE",
"1574 62 OFFCURVE",
"1538 37 OFFCURVE",
"1498 21 CURVE SMOOTH",
"1458 5 OFFCURVE",
"1415 -1 OFFCURVE",
"1375 -1 CURVE SMOOTH",
"1274 -1 OFFCURVE",
"1171 32 OFFCURVE",
"1107 115 CURVE",
"1108 114 LINE",
"1051 181 OFFCURVE",
"1031 270 OFFCURVE",
"1031 358 CURVE SMOOTH",
"1031 414 OFFCURVE",
"1038 474 OFFCURVE",
"1056 531 CURVE SMOOTH",
"1074 587 OFFCURVE",
"1100 641 OFFCURVE",
"1143 686 CURVE",
"1143 685 LINE",
"1207 758 OFFCURVE",
"1298 793 OFFCURVE",
"1389 793 CURVE SMOOTH"
);
},
{
closed = 1;
nodes = (
"466 1349 LINE SMOOTH",
"410 1349 OFFCURVE",
"369 1315 OFFCURVE",
"344 1268 CURVE SMOOTH",
"319 1221 OFFCURVE",
"307 1163 OFFCURVE",
"307 1114 CURVE SMOOTH",
"307 1101 LINE",
"306 1097 OFFCURVE",
"306 1093 OFFCURVE",
"306 1089 CURVE SMOOTH",
"306 1085 OFFCURVE",
"306 1081 OFFCURVE",
"306 1077 CURVE SMOOTH",
"306 1025 OFFCURVE",
"314 969 OFFCURVE",
"337 925 CURVE SMOOTH",
"360 881 OFFCURVE",
"396 850 OFFCURVE",
"455 850 CURVE SMOOTH",
"524 850 OFFCURVE",
"568 897 OFFCURVE",
"595 955 CURVE SMOOTH",
"622 1013 OFFCURVE",
"631 1084 OFFCURVE",
"631 1133 CURVE SMOOTH",
"631 1182 OFFCURVE",
"618 1234 OFFCURVE",
"592 1275 CURVE SMOOTH",
"566 1315 OFFCURVE",
"527 1345 OFFCURVE",
"476 1349 CURVE"
);
},
{
closed = 1;
nodes = (
"1439 1489 LINE",
"1444 1489 OFFCURVE",
"1452 1489 OFFCURVE",
"1463 1490 CURVE SMOOTH",
"1473 1491 OFFCURVE",
"1484 1491 OFFCURVE",
"1495 1492 CURVE",
"1517 1493 OFFCURVE",
"1538 1495 OFFCURVE",
"1550 1496 CURVE",
"1453 1372 OFFCURVE",
"1353 1238 OFFCURVE",
"1256 1102 CURVE SMOOTH",
"1159 966 OFFCURVE",
"1064 828 OFFCURVE",
"976 699 CURVE SMOOTH",
"816 466 OFFCURVE",
"653 228 OFFCURVE",
"481 4 CURVE",
"460 3 OFFCURVE",
"437 3 OFFCURVE",
"414 2 CURVE SMOOTH",
"391 1 OFFCURVE",
"368 0 OFFCURVE",
"347 -1 CURVE",
"297 -1 LINE",
"390 118 OFFCURVE",
"485 248 OFFCURVE",
"578 378 CURVE SMOOTH",
"671 508 OFFCURVE",
"763 639 OFFCURVE",
"848 763 CURVE SMOOTH",
"1015 1007 OFFCURVE",
"1183 1254 OFFCURVE",
"1364 1486 CURVE"
);
},
{
closed = 1;
nodes = (
"478 1490 LINE SMOOTH",
"575 1487 OFFCURVE",
"664 1447 OFFCURVE",
"724 1374 CURVE SMOOTH",
"780 1306 OFFCURVE",
"800 1218 OFFCURVE",
"800 1129 CURVE SMOOTH",
"800 1073 OFFCURVE",
"792 1014 OFFCURVE",
"775 958 CURVE SMOOTH",
"758 901 OFFCURVE",
"729 847 OFFCURVE",
"688 802 CURVE SMOOTH",
"625 734 OFFCURVE",
"539 698 OFFCURVE",
"451 698 CURVE SMOOTH",
"404 698 OFFCURVE",
"357 706 OFFCURVE",
"316 723 CURVE SMOOTH",
"275 740 OFFCURVE",
"237 768 OFFCURVE",
"212 808 CURVE",
"157 888 OFFCURVE",
"143 987 OFFCURVE",
"143 1086 CURVE SMOOTH",
"143 1137 OFFCURVE",
"147 1192 OFFCURVE",
"160 1245 CURVE SMOOTH",
"172 1298 OFFCURVE",
"194 1349 OFFCURVE",
"230 1393 CURVE SMOOTH",
"286 1461 OFFCURVE",
"371 1490 OFFCURVE",
"454 1491 CURVE SMOOTH",
"456 1491 OFFCURVE",
"458 1491 OFFCURVE",
"460 1491 CURVE",
"461 1490 OFFCURVE",
"463 1490 OFFCURVE",
"465 1490 CURVE SMOOTH"
);
}
);
width = 2030;
}
);
unicode = 0025;
},
{
glyphname = ampersand;
lastChange = "2012-06-10 13:56:22 +0000";
layers = (
{
layerId = "013FA67F-D7C9-4F04-AAC6-32032829ED9A";
name = Bold;
paths = (
{
closed = 1;
nodes = (
"506 835 LINE",
"492 822 LINE",
"479 836 LINE"
);
},
{
closed = 1;
nodes = (
"492 822 LINE",
"439 775 OFFCURVE",
"393 724 OFFCURVE",
"361 665 CURVE SMOOTH",
"328 606 OFFCURVE",
"309 542 OFFCURVE",
"309 473 CURVE SMOOTH",
"309 385 OFFCURVE",
"344 319 OFFCURVE",
"400 276 CURVE SMOOTH",
"456 233 OFFCURVE",
"531 212 OFFCURVE",
"611 212 CURVE SMOOTH",
"720 212 OFFCURVE",
"834 253 OFFCURVE",
"925 324 CURVE",
"875 381 OFFCURVE",
"826 437 OFFCURVE",
"777 494 CURVE SMOOTH",
"728 550 OFFCURVE",
"679 606 OFFCURVE",
"629 663 CURVE SMOOTH"
);
},
{
closed = 1;
nodes = (
"618 947 LINE",
"705 854 OFFCURVE",
"790 761 OFFCURVE",
"875 665 CURVE SMOOTH",
"1068 450 LINE",
"1137 554 OFFCURVE",
"1163 677 OFFCURVE",
"1182 808 CURVE",
"1195 808 OFFCURVE",
"1209 808 OFFCURVE",
"1226 808 CURVE SMOOTH",
"1243 808 OFFCURVE",
"1260 808 OFFCURVE",
"1278 808 CURVE SMOOTH",
"1295 808 OFFCURVE",
"1313 808 OFFCURVE",
"1330 809 CURVE",
"1347 809 OFFCURVE",
"1361 809 OFFCURVE",
"1374 809 CURVE",
"1370 789 OFFCURVE",
"1366 768 OFFCURVE",
"1362 746 CURVE SMOOTH",
"1353 701 OFFCURVE",
"1344 654 OFFCURVE",
"1334 610 CURVE SMOOTH",
"1329 587 OFFCURVE",
"1324 566 OFFCURVE",
"1319 546 CURVE SMOOTH",
"1296 461 OFFCURVE",
"1256 381 OFFCURVE",
"1205 309 CURVE",
"1319 182 LINE",
"1478 5 LINE",
"1460 7 OFFCURVE",
"1439 9 OFFCURVE",
"1416 11 CURVE",
"1392 12 OFFCURVE",
"1367 14 OFFCURVE",
"1342 16 CURVE SMOOTH",
"1317 18 OFFCURVE",
"1292 20 OFFCURVE",
"1268 21 CURVE SMOOTH",
"1244 22 OFFCURVE",
"1223 24 OFFCURVE",
"1205 25 CURVE",
"1075 168 LINE",
"935 59 OFFCURVE",
"772 9 OFFCURVE",
"601 9 CURVE SMOOTH",
"537 9 OFFCURVE",
"472 17 OFFCURVE",
"412 35 CURVE SMOOTH",
"351 53 OFFCURVE",
"295 82 OFFCURVE",
"251 129 CURVE SMOOTH",
"180 201 OFFCURVE",
"150 301 OFFCURVE",
"150 401 CURVE SMOOTH",
"150 505 OFFCURVE",
"179 602 OFFCURVE",
"230 687 CURVE SMOOTH",
"281 772 OFFCURVE",
"352 846 OFFCURVE",
"435 906 CURVE",
"394 974 OFFCURVE",
"362 1047 OFFCURVE",
"362 1131 CURVE SMOOTH",
"362 1176 OFFCURVE",
"371 1227 OFFCURVE",
"391 1273 CURVE SMOOTH",
"411 1319 OFFCURVE",
"440 1361 OFFCURVE",
"480 1392 CURVE",
"479 1391 LINE",
"522 1427 OFFCURVE",
"570 1449 OFFCURVE",
"621 1463 CURVE SMOOTH",
"672 1477 OFFCURVE",
"724 1481 OFFCURVE",
"775 1481 CURVE SMOOTH",
"886 1481 OFFCURVE",
"999 1451 OFFCURVE",
"1108 1408 CURVE",
"1096 1388 OFFCURVE",
"1079 1360 OFFCURVE",
"1061 1332 CURVE SMOOTH",
"1052 1318 OFFCURVE",
"1043 1304 OFFCURVE",
"1035 1291 CURVE SMOOTH",
"1027 1278 OFFCURVE",
"1020 1266 OFFCURVE",
"1014 1256 CURVE",
"917 1307 OFFCURVE",
"816 1350 OFFCURVE",
"709 1350 CURVE SMOOTH",
"653 1350 OFFCURVE",
"600 1333 OFFCURVE",
"561 1302 CURVE SMOOTH",
"521 1270 OFFCURVE",
"496 1224 OFFCURVE",
"496 1165 CURVE SMOOTH",
"496 1124 OFFCURVE",
"513 1084 OFFCURVE",
"537 1048 CURVE SMOOTH",
"560 1012 OFFCURVE",
"590 978 OFFCURVE",
"618 946 CURVE"
);
}
);
width = 1620;
}
);
unicode = 0026;
},
{
glyphname = quotesingle;
lastChange = "2012-06-10 13:56:22 +0000";
layers = (
{
layerId = "013FA67F-D7C9-4F04-AAC6-32032829ED9A";
name = Bold;
paths = (
{
closed = 1;
nodes = (
"483 1463 LINE",
"462 1287 OFFCURVE",
"445 1092 OFFCURVE",
"436 916 CURVE",
"399 928 OFFCURVE",
"371 933 OFFCURVE",
"350 933 CURVE SMOOTH",
"322 933 OFFCURVE",
"287 927 OFFCURVE",
"248 918 CURVE",
"260 1006 OFFCURVE",
"270 1105 OFFCURVE",
"279 1205 CURVE SMOOTH",
"287 1305 OFFCURVE",
"295 1404 OFFCURVE",
"299 1492 CURVE",
"338 1477 OFFCURVE",
"365 1473 OFFCURVE",
"388 1473 CURVE SMOOTH",
"412 1473 OFFCURVE",
"436 1476 OFFCURVE",
"459 1483 CURVE"
);
}
);
width = 713;
}
);
unicode = 0027;
},
{
glyphname = parenleft;
lastChange = "2012-06-10 13:56:22 +0000";
layers = (
{
layerId = "013FA67F-D7C9-4F04-AAC6-32032829ED9A";
name = Bold;
paths = (
{
closed = 1;
nodes = (
"673 1505 LINE",
"582 1377 OFFCURVE",
"496 1243 OFFCURVE",
"426 1102 CURVE SMOOTH",
"356 961 OFFCURVE",
"305 813 OFFCURVE",
"289 660 CURVE",
"289 661 LINE",
"286 593 OFFCURVE",
"284 526 OFFCURVE",
"284 458 CURVE SMOOTH",
"284 381 OFFCURVE",
"288 307 OFFCURVE",
"293 231 CURVE SMOOTH",
"305 86 OFFCURVE",
"348 -76 OFFCURVE",
"405 -231 CURVE",
"322 -216 OFFCURVE",
"250 -209 OFFCURVE",
"179 -208 CURVE",
"104 9 OFFCURVE",
"76 232 OFFCURVE",
"76 456 CURVE SMOOTH",
"76 531 OFFCURVE",
"79 607 OFFCURVE",
"85 682 CURVE",
"109 837 OFFCURVE",
"165 985 OFFCURVE",
"241 1125 CURVE SMOOTH",
"316 1265 OFFCURVE",
"411 1398 OFFCURVE",
"515 1521 CURVE",
"566 1521 OFFCURVE",
"610 1529 OFFCURVE",
"654 1537 CURVE"
);
}
);
width = 668;
}
);
unicode = 0028;
},
{
glyphname = parenright;
lastChange = "2012-06-10 13:56:22 +0000";
layers = (
{
layerId = "013FA67F-D7C9-4F04-AAC6-32032829ED9A";
name = Bold;
paths = (
{
closed = 1;
nodes = (
"421 1137 OFFCURVE",
"389 1333 OFFCURVE",
"312 1532 CURVE",
"327 1530 LINE",
"323 1545 LINE",
"376 1536 OFFCURVE",
"429 1529 OFFCURVE",
"482 1526 CURVE",
"530 1419 OFFCURVE",
"564 1311 OFFCURVE",
"585 1200 CURVE SMOOTH",
"606 1088 OFFCURVE",
"615 973 OFFCURVE",
"615 852 CURVE SMOOTH",
"615 632 OFFCURVE",
"585 417 OFFCURVE",
"486 217 CURVE SMOOTH",
"417 80 OFFCURVE",
"334 -61 OFFCURVE",
"245 -196 CURVE",
"173 -196 OFFCURVE",
"92 -203 OFFCURVE",
"-12 -226 CURVE",
"88 -85 OFFCURVE",
"181 60 OFFCURVE",
"256 208 CURVE SMOOTH",
"331 356 OFFCURVE",
"386 508 OFFCURVE",
"410 660 CURVE",
"410 659 LINE",
"418 744 OFFCURVE",
"421 828 OFFCURVE",
"421 912 CURVE SMOOTH"
);
}
);
width = 670;
}
);
unicode = 0029;
},
{
glyphname = asterisk;
lastChange = "2012-06-10 13:56:22 +0000";
layers = (
{
layerId = "013FA67F-D7C9-4F04-AAC6-32032829ED9A";
name = Bold;
paths = (
{
closed = 1;
nodes = (
"897 1220 LINE",
"794 1163 OFFCURVE",
"692 1107 OFFCURVE",
"588 1052 CURVE",
"573 1043 LINE",
"622 1014 OFFCURVE",
"674 983 OFFCURVE",
"728 952 CURVE SMOOTH",
"781 920 OFFCURVE",
"832 889 OFFCURVE",
"880 858 CURVE",
"876 852 OFFCURVE",
"871 844 OFFCURVE",
"865 834 CURVE SMOOTH",
"853 814 OFFCURVE",
"839 792 OFFCURVE",
"827 773 CURVE",
"820 763 OFFCURVE",
"815 755 OFFCURVE",
"811 749 CURVE",
"762 782 OFFCURVE",
"714 815 OFFCURVE",
"668 846 CURVE SMOOTH",
"621 877 OFFCURVE",
"573 910 OFFCURVE",
"522 943 CURVE",
"516 873 LINE SMOOTH",
"509 786 OFFCURVE",
"501 685 OFFCURVE",
"496 597 CURVE",
"365 597 LINE",
"368 645 OFFCURVE",
"375 713 OFFCURVE",
"380 761 CURVE SMOOTH",
"382 778 OFFCURVE",
"384 794 OFFCURVE",
"385 809 CURVE SMOOTH",
"386 823 OFFCURVE",
"388 837 OFFCURVE",
"389 851 CURVE",
"392 879 OFFCURVE",
"394 907 OFFCURVE",
"397 942 CURVE",
"369 925 OFFCURVE",
"342 909 OFFCURVE",
"315 893 CURVE SMOOTH",
"288 877 OFFCURVE",
"260 861 OFFCURVE",
"232 844 CURVE SMOOTH",
"71 748 LINE",
"50 798 LINE",
"47 806 OFFCURVE",
"43 816 OFFCURVE",
"38 829 CURVE SMOOTH",
"33 842 OFFCURVE",
"28 852 OFFCURVE",
"25 859 CURVE",
"78 890 OFFCURVE",
"134 921 OFFCURVE",
"193 953 CURVE SMOOTH",
"252 984 OFFCURVE",
"309 1015 OFFCURVE",
"364 1045 CURVE",
"261 1102 OFFCURVE",
"151 1168 OFFCURVE",
"55 1231 CURVE",
"57 1234 OFFCURVE",
"60 1237 OFFCURVE",
"63 1242 CURVE SMOOTH",
"66 1247 OFFCURVE",
"69 1252 OFFCURVE",
"72 1257 CURVE SMOOTH",
"75 1262 OFFCURVE",
"78 1266 OFFCURVE",
"81 1271 CURVE",
"84 1275 OFFCURVE",
"86 1278 OFFCURVE",
"88 1281 CURVE SMOOTH",
"90 1284 OFFCURVE",
"91 1287 OFFCURVE",
"91 1288 CURVE SMOOTH",
"91 1289 OFFCURVE",
"92 1292 OFFCURVE",
"94 1295 CURVE",
"95 1298 OFFCURVE",
"98 1302 OFFCURVE",
"103 1309 CURVE",
"107 1316 OFFCURVE",
"114 1326 OFFCURVE",
"125 1339 CURVE",
"201 1286 OFFCURVE",
"292 1227 OFFCURVE",
"369 1176 CURVE",
"381 1169 OFFCURVE",
"387 1166 OFFCURVE",
"392 1162 CURVE SMOOTH",
"397 1158 OFFCURVE",
"403 1154 OFFCURVE",
"415 1146 CURVE",
"427 1294 LINE",
"442 1492 LINE",
"574 1492 LINE",
"561 1372 OFFCURVE",
"549 1266 OFFCURVE",
"540 1146 CURVE",
"593 1177 OFFCURVE",
"648 1209 OFFCURVE",
"704 1244 CURVE SMOOTH",
"760 1278 OFFCURVE",
"814 1311 OFFCURVE",
"865 1342 CURVE",
"870 1329 OFFCURVE",
"877 1313 OFFCURVE",
"885 1294 CURVE",
"892 1274 OFFCURVE",
"899 1257 OFFCURVE",
"905 1244 CURVE"
);
}
);
width = 985;
}
);
unicode = 002A;
},
{
glyphname = plus;
lastChange = "2012-06-10 13:56:22 +0000";
layers = (
{
layerId = "013FA67F-D7C9-4F04-AAC6-32032829ED9A";
name = Bold;
paths = (
{
closed = 1;
nodes = (
"739 1254 LINE",
"719 1079 OFFCURVE",
"702 908 OFFCURVE",
"687 732 CURVE",
"852 732 OFFCURVE",
"1030 733 OFFCURVE",
"1194 736 CURVE",
"1178 552 LINE",
"1093 553 OFFCURVE",
"1008 554 OFFCURVE",
"924 554 CURVE SMOOTH",
"840 554 OFFCURVE",
"755 554 OFFCURVE",
"670 554 CURVE",
"655 385 OFFCURVE",
"642 202 OFFCURVE",
"631 33 CURVE",
"447 33 LINE",
"461 178 LINE SMOOTH",
"464 205 OFFCURVE",
"467 234 OFFCURVE",
"470 266 CURVE SMOOTH",
"473 298 OFFCURVE",
"476 331 OFFCURVE",
"479 364 CURVE SMOOTH",
"486 431 OFFCURVE",
"492 498 OFFCURVE",
"496 554 CURVE",
"457 554 OFFCURVE",
"418 554 OFFCURVE",
"380 554 CURVE SMOOTH",
"341 553 OFFCURVE",
"302 553 OFFCURVE",
"263 553 CURVE SMOOTH",
"243 553 OFFCURVE",
"221 553 OFFCURVE",
"197 553 CURVE",
"173 552 OFFCURVE",
"149 552 OFFCURVE",
"124 552 CURVE SMOOTH",
"99 552 OFFCURVE",
"75 552 OFFCURVE",
"52 552 CURVE SMOOTH",
"28 552 OFFCURVE",
"7 552 OFFCURVE",
"-12 552 CURVE",
"4 737 LINE",
"175 733 OFFCURVE",
"341 733 OFFCURVE",
"512 733 CURVE",
"536 1025 LINE",
"554 1254 LINE"
);
}
);
width = 1286;
}
);
unicode = 002B;
},
{
glyphname = comma;
lastChange = "2012-06-10 13:56:22 +0000";
layers = (
{
layerId = "013FA67F-D7C9-4F04-AAC6-32032829ED9A";
name = Bold;
paths = (
{
closed = 1;
nodes = (
"245 258 LINE",
"255 257 OFFCURVE",
"265 257 OFFCURVE",
"274 257 CURVE SMOOTH",
"283 257 OFFCURVE",
"293 257 OFFCURVE",
"304 257 CURVE SMOOTH",
"360 257 OFFCURVE",
"423 261 OFFCURVE",
"496 270 CURVE",
"489 238 OFFCURVE",
"484 198 OFFCURVE",
"478 158 CURVE SMOOTH",
"472 118 OFFCURVE",
"466 79 OFFCURVE",
"462 47 CURVE",
"420 -12 LINE SMOOTH",
"389 -53 OFFCURVE",
"356 -95 OFFCURVE",
"323 -138 CURVE SMOOTH",
"290 -181 OFFCURVE",
"256 -223 OFFCURVE",
"223 -262 CURVE",
"214 -263 OFFCURVE",
"204 -263 OFFCURVE",
"191 -264 CURVE SMOOTH",
"165 -266 OFFCURVE",
"136 -269 OFFCURVE",
"109 -272 CURVE SMOOTH",
"96 -273 OFFCURVE",
"85 -275 OFFCURVE",
"76 -276 CURVE",
"93 -237 OFFCURVE",
"114 -191 OFFCURVE",
"134 -143 CURVE SMOOTH",
"154 -96 OFFCURVE",
"173 -49 OFFCURVE",
"189 -9 CURVE SMOOTH",
"212 51 LINE",
"217 115 OFFCURVE",
"221 176 OFFCURVE",
"225 240 CURVE"
);
}
);
width = 543;
}
);
unicode = 002C;
},
{
glyphname = hyphen;
lastChange = "2012-06-10 13:56:22 +0000";
layers = (
{
layerId = "013FA67F-D7C9-4F04-AAC6-32032829ED9A";
name = Bold;
paths = (
{
closed = 1;
nodes = (
"283 655 LINE",
"288 655 OFFCURVE",
"294 655 OFFCURVE",
"300 655 CURVE",
"305 654 OFFCURVE",
"311 654 OFFCURVE",
"317 654 CURVE SMOOTH",
"351 654 LINE SMOOTH",
"413 654 OFFCURVE",
"474 655 OFFCURVE",
"535 657 CURVE SMOOTH",
"595 659 OFFCURVE",
"656 661 OFFCURVE",
"719 663 CURVE SMOOTH",
"820 665 LINE",
"793 620 OFFCURVE",
"776 577 OFFCURVE",
"776 546 CURVE SMOOTH",
"776 532 OFFCURVE",
"780 512 OFFCURVE",
"788 485 CURVE",
"704 485 OFFCURVE",
"606 485 OFFCURVE",
"507 483 CURVE SMOOTH",
"408 481 OFFCURVE",
"309 479 OFFCURVE",
"225 475 CURVE",
"254 524 OFFCURVE",
"268 565 OFFCURVE",
"268 596 CURVE SMOOTH",
"268 610 OFFCURVE",
"267 622 OFFCURVE",
"265 632 CURVE"
);
}
);
width = 1059;
}
);
unicode = 002D;
},
{
glyphname = period;
lastChange = "2012-06-10 13:56:22 +0000";
layers = (
{
layerId = "013FA67F-D7C9-4F04-AAC6-32032829ED9A";
name = Bold;
paths = (
{
closed = 1;
nodes = (
"301 345 LINE",
"343 341 OFFCURVE",
"384 339 OFFCURVE",
"425 339 CURVE SMOOTH",
"449 339 OFFCURVE",
"480 340 OFFCURVE",
"511 342 CURVE SMOOTH",
"526 343 OFFCURVE",
"542 343 OFFCURVE",
"557 344 CURVE SMOOTH",
"572 345 OFFCURVE",
"585 346 OFFCURVE",
"597 347 CURVE",
"574 243 OFFCURVE",
"564 152 OFFCURVE",
"564 69 CURVE SMOOTH",
"564 66 OFFCURVE",
"564 61 OFFCURVE",
"565 56 CURVE",
"565 50 OFFCURVE",
"565 44 OFFCURVE",
"565 38 CURVE SMOOTH",
"565 32 OFFCURVE",
"565 26 OFFCURVE",
"566 21 CURVE",
"566 15 OFFCURVE",
"566 11 OFFCURVE",
"566 8 CURVE",
"506 13 OFFCURVE",
"454 16 OFFCURVE",
"410 16 CURVE SMOOTH",
"363 16 OFFCURVE",
"309 13 OFFCURVE",
"248 8 CURVE",
"269 109 OFFCURVE",
"279 203 OFFCURVE",
"279 288 CURVE SMOOTH",
"279 325 LINE"
);
}
);
width = 846;
}
);
unicode = 002E;
},
{
glyphname = slash;
lastChange = "2012-06-10 13:56:22 +0000";
layers = (
{
layerId = "013FA67F-D7C9-4F04-AAC6-32032829ED9A";
name = Bold;
paths = (
{
closed = 1;
nodes = (
"701 1444 LINE",
"712 1445 OFFCURVE",
"724 1446 OFFCURVE",
"738 1448 CURVE SMOOTH",
"752 1450 OFFCURVE",
"766 1452 OFFCURVE",
"781 1454 CURVE SMOOTH",
"796 1456 OFFCURVE",
"810 1458 OFFCURVE",
"824 1460 CURVE SMOOTH",
"838 1462 OFFCURVE",
"850 1464 OFFCURVE",
"861 1465 CURVE",
"742 1185 OFFCURVE",
"624 875 OFFCURVE",
"516 591 CURVE SMOOTH",
"421 343 OFFCURVE",
"323 88 OFFCURVE",
"223 -157 CURVE",
"154 -160 OFFCURVE",
"82 -165 OFFCURVE",
"-25 -181 CURVE",
"35 -52 OFFCURVE",
"96 86 OFFCURVE",
"156 224 CURVE SMOOTH",
"216 362 OFFCURVE",
"276 499 OFFCURVE",
"332 630 CURVE SMOOTH",
"359 694 OFFCURVE",
"388 760 OFFCURVE",
"417 828 CURVE SMOOTH",
"475 964 OFFCURVE",
"535 1101 OFFCURVE",
"596 1237 CURVE SMOOTH",
"626 1304 OFFCURVE",
"656 1369 OFFCURVE",
"685 1432 CURVE"
);
}
);
width = 741;
}
);
unicode = 002F;
},
{
glyphname = zero;
lastChange = "2012-06-10 13:56:22 +0000";
layers = (
{
layerId = "013FA67F-D7C9-4F04-AAC6-32032829ED9A";
name = Bold;
paths = (
{
closed = 1;
nodes = (
"707 1384 LINE SMOOTH",
"655 1384 OFFCURVE",
"604 1365 OFFCURVE",
"561 1333 CURVE SMOOTH",
"518 1301 OFFCURVE",
"483 1256 OFFCURVE",
"466 1205 CURVE",
"433 1122 OFFCURVE",
"414 1038 OFFCURVE",
"404 956 CURVE SMOOTH",
"394 874 OFFCURVE",
"391 793 OFFCURVE",
"391 717 CURVE SMOOTH",
"391 637 OFFCURVE",
"397 561 OFFCURVE",
"424 489 CURVE SMOOTH",
"451 417 OFFCURVE",
"523 377 OFFCURVE",
"600 377 CURVE SMOOTH",
"610 377 LINE SMOOTH",
"611 377 OFFCURVE",
"612 377 OFFCURVE",
"613 377 CURVE",
"614 376 OFFCURVE",
"615 376 OFFCURVE",
"616 376 CURVE SMOOTH",
"623 376 LINE SMOOTH",
"702 376 OFFCURVE",
"762 412 OFFCURVE",
"808 468 CURVE SMOOTH",
"854 523 OFFCURVE",
"886 599 OFFCURVE",
"909 676 CURVE SMOOTH",
"932 753 OFFCURVE",
"944 833 OFFCURVE",
"952 900 CURVE SMOOTH",
"959 967 OFFCURVE",
"960 1018 OFFCURVE",
"960 1039 CURVE SMOOTH",
"960 1090 OFFCURVE",
"957 1139 OFFCURVE",
"946 1190 CURVE",
"938 1246 OFFCURVE",
"913 1294 OFFCURVE",
"877 1330 CURVE SMOOTH",
"840 1365 OFFCURVE",
"792 1385 OFFCURVE",
"740 1385 CURVE SMOOTH",
"739 1385 OFFCURVE",
"737 1385 OFFCURVE",
"736 1385 CURVE",
"734 1384 OFFCURVE",
"732 1384 OFFCURVE",
"731 1384 CURVE SMOOTH"
);
},
{
closed = 1;
nodes = (
"743 1480 LINE SMOOTH",
"808 1480 OFFCURVE",
"876 1465 OFFCURVE",
"934 1436 CURVE SMOOTH",
"992 1407 OFFCURVE",
"1040 1363 OFFCURVE",
"1069 1303 CURVE SMOOTH",
"1128 1182 OFFCURVE",
"1142 1051 OFFCURVE",
"1142 922 CURVE SMOOTH",
"1142 862 OFFCURVE",
"1139 801 OFFCURVE",
"1135 744 CURVE",
"1123 653 OFFCURVE",
"1109 561 OFFCURVE",
"1086 470 CURVE SMOOTH",
"1062 379 OFFCURVE",
"1028 290 OFFCURVE",
"975 209 CURVE SMOOTH",
"928 142 OFFCURVE",
"870 92 OFFCURVE",
"804 59 CURVE SMOOTH",
"738 26 OFFCURVE",
"666 10 OFFCURVE",
"597 10 CURVE SMOOTH",
"566 10 LINE SMOOTH",
"499 10 OFFCURVE",
"434 25 OFFCURVE",
"376 54 CURVE SMOOTH",
"318 83 OFFCURVE",
"270 127 OFFCURVE",
"239 186 CURVE SMOOTH",
"180 305 OFFCURVE",
"166 431 OFFCURVE",
"166 558 CURVE SMOOTH",
"166 622 OFFCURVE",
"169 686 OFFCURVE",
"173 747 CURVE",
"185 834 OFFCURVE",
"201 928 OFFCURVE",
"225 1020 CURVE SMOOTH",
"249 1111 OFFCURVE",
"283 1201 OFFCURVE",
"334 1280 CURVE SMOOTH",
"379 1345 OFFCURVE",
"440 1395 OFFCURVE",
"508 1429 CURVE SMOOTH",
"575 1463 OFFCURVE",
"647 1480 OFFCURVE",
"715 1480 CURVE SMOOTH"
);
}
);
width = 1397;
}
);
unicode = 0030;
},
{
glyphname = one;
lastChange = "2012-06-10 13:56:22 +0000";
layers = (
{
layerId = "013FA67F-D7C9-4F04-AAC6-32032829ED9A";
name = Bold;
paths = (
{
closed = 1;
nodes = (
"268 305 LINE",
"371 313 OFFCURVE",
"459 318 OFFCURVE",
"563 319 CURVE",
"570 400 OFFCURVE",
"577 479 OFFCURVE",
"584 557 CURVE SMOOTH",
"591 634 OFFCURVE",
"597 712 OFFCURVE",
"604 789 CURVE SMOOTH",
"617 943 OFFCURVE",
"630 1097 OFFCURVE",
"642 1258 CURVE",
"541 1239 OFFCURVE",
"420 1225 OFFCURVE",
"304 1214 CURVE",
"305 1241 OFFCURVE",
"306 1278 OFFCURVE",
"307 1314 CURVE SMOOTH",
"307 1332 OFFCURVE",
"307 1350 OFFCURVE",
"308 1368 CURVE",
"308 1385 OFFCURVE",
"308 1401 OFFCURVE",
"308 1414 CURVE",
"428 1421 OFFCURVE",
"532 1435 OFFCURVE",
"639 1452 CURVE SMOOTH",
"666 1456 LINE",
"681 1455 OFFCURVE",
"697 1455 OFFCURVE",
"713 1455 CURVE SMOOTH",
"728 1455 OFFCURVE",
"744 1455 OFFCURVE",
"759 1455 CURVE SMOOTH",
"767 1455 OFFCURVE",
"776 1455 OFFCURVE",
"786 1455 CURVE SMOOTH",
"806 1455 OFFCURVE",
"828 1456 OFFCURVE",
"848 1457 CURVE",
"858 1457 OFFCURVE",
"867 1457 OFFCURVE",
"875 1458 CURVE",
"832 1077 OFFCURVE",
"797 700 OFFCURVE",
"769 319 CURVE",
"868 316 OFFCURVE",
"980 310 OFFCURVE",
"1076 301 CURVE",
"1073 228 OFFCURVE",
"1070 136 OFFCURVE",
"1070 63 CURVE SMOOTH",
"1070 7 LINE",
"919 27 OFFCURVE",
"775 38 OFFCURVE",
"636 38 CURVE SMOOTH",
"501 38 OFFCURVE",
"361 28 OFFCURVE",
"209 11 CURVE",
"216 52 OFFCURVE",
"223 101 OFFCURVE",
"230 149 CURVE SMOOTH",
"237 197 OFFCURVE",
"243 245 OFFCURVE",
"250 288 CURVE"
);
}
);
width = 1206;
}
);
unicode = 0031;
},
{
glyphname = two;
lastChange = "2012-06-10 13:56:22 +0000";
layers = (
{
layerId = "013FA67F-D7C9-4F04-AAC6-32032829ED9A";
name = Bold;
paths = (
{
closed = 1;
nodes = (
"884 561 LINE",
"813 493 OFFCURVE",
"748 417 OFFCURVE",
"716 330 CURVE",
"861 329 OFFCURVE",
"1011 326 OFFCURVE",
"1172 311 CURVE",
"1171 289 OFFCURVE",
"1170 265 OFFCURVE",
"1170 239 CURVE",
"1169 212 OFFCURVE",
"1169 186 OFFCURVE",
"1168 159 CURVE SMOOTH",
"1167 132 OFFCURVE",
"1167 105 OFFCURVE",
"1167 79 CURVE SMOOTH",
"1167 53 OFFCURVE",
"1167 29 OFFCURVE",
"1167 7 CURVE",
"1006 27 OFFCURVE",
"852 37 OFFCURVE",
"705 37 CURVE SMOOTH",
"552 37 OFFCURVE",
"391 27 OFFCURVE",
"221 7 CURVE",
"225 29 OFFCURVE",
"229 53 OFFCURVE",
"233 79 CURVE SMOOTH",
"237 104 OFFCURVE",
"241 130 OFFCURVE",
"246 157 CURVE SMOOTH",
"254 210 OFFCURVE",
"262 263 OFFCURVE",
"269 308 CURVE",
"376 400 OFFCURVE",
"494 491 OFFCURVE",
"607 575 CURVE SMOOTH",
"687 631 OFFCURVE",
"764 687 OFFCURVE",
"831 755 CURVE",
"882 811 OFFCURVE",
"934 865 OFFCURVE",
"969 925 CURVE SMOOTH",
"1000 976 OFFCURVE",
"1019 1034 OFFCURVE",
"1019 1091 CURVE SMOOTH",
"1019 1162 OFFCURVE",
"989 1215 OFFCURVE",
"944 1249 CURVE SMOOTH",
"899 1283 OFFCURVE",
"836 1299 OFFCURVE",
"772 1299 CURVE SMOOTH",
"639 1299 OFFCURVE",
"495 1253 OFFCURVE",
"354 1189 CURVE",
"355 1204 OFFCURVE",
"356 1221 OFFCURVE",
"357 1240 CURVE SMOOTH",
"359 1278 OFFCURVE",
"360 1320 OFFCURVE",
"361 1358 CURVE SMOOTH",
"361 1377 OFFCURVE",
"361 1393 OFFCURVE",
"361 1408 CURVE",
"504 1443 OFFCURVE",
"645 1480 OFFCURVE",
"781 1480 CURVE SMOOTH",
"842 1480 OFFCURVE",
"907 1474 OFFCURVE",
"968 1458 CURVE SMOOTH",
"1028 1442 OFFCURVE",
"1085 1417 OFFCURVE",
"1133 1378 CURVE",
"1200 1318 OFFCURVE",
"1231 1230 OFFCURVE",
"1231 1142 CURVE SMOOTH",
"1231 1061 OFFCURVE",
"1211 987 OFFCURVE",
"1178 917 CURVE SMOOTH",
"1145 847 OFFCURVE",
"1097 782 OFFCURVE",
"1044 719 CURVE",
"1013 687 LINE SMOOTH",
"992 666 OFFCURVE",
"970 645 OFFCURVE",
"949 624 CURVE SMOOTH",
"928 602 OFFCURVE",
"906 581 OFFCURVE",
"884 560 CURVE"
);
}
);
width = 1399;
}
);
unicode = 0032;
},
{
glyphname = three;
lastChange = "2012-06-10 13:56:22 +0000";
layers = (
{
layerId = "013FA67F-D7C9-4F04-AAC6-32032829ED9A";
name = Bold;
paths = (
{
closed = 1;
nodes = (
"1180 1091 OFFCURVE",
"1156 1013 OFFCURVE",
"1113 948 CURVE SMOOTH",
"1070 883 OFFCURVE",
"1007 831 OFFCURVE",
"931 804 CURVE",
"995 791 OFFCURVE",
"1051 759 OFFCURVE",
"1088 704 CURVE SMOOTH",
"1128 644 OFFCURVE",
"1147 574 OFFCURVE",
"1147 498 CURVE SMOOTH",
"1147 433 OFFCURVE",
"1139 362 OFFCURVE",
"1116 295 CURVE SMOOTH",
"1092 228 OFFCURVE",
"1054 167 OFFCURVE",
"994 122 CURVE SMOOTH",
"922 70 OFFCURVE",
"841 42 OFFCURVE",
"761 27 CURVE SMOOTH",
"680 11 OFFCURVE",
"599 8 OFFCURVE",
"524 8 CURVE SMOOTH",
"407 8 OFFCURVE",
"288 24 OFFCURVE",
"166 56 CURVE",
"174 104 OFFCURVE",
"183 163 OFFCURVE",
"191 221 CURVE SMOOTH",
"195 250 OFFCURVE",
"199 278 OFFCURVE",
"203 307 CURVE SMOOTH",
"207 335 OFFCURVE",
"210 361 OFFCURVE",
"213 385 CURVE",
"328 321 OFFCURVE",
"444 302 OFFCURVE",
"557 302 CURVE SMOOTH",
"606 302 OFFCURVE",
"658 304 OFFCURVE",
"708 316 CURVE SMOOTH",
"758 327 OFFCURVE",
"805 346 OFFCURVE",
"845 378 CURVE",
"868 395 OFFCURVE",
"893 415 OFFCURVE",
"913 438 CURVE SMOOTH",
"932 461 OFFCURVE",
"946 486 OFFCURVE",
"946 515 CURVE SMOOTH",
"946 574 OFFCURVE",
"916 623 OFFCURVE",
"877 658 CURVE",
"842 687 OFFCURVE",
"801 705 OFFCURVE",
"757 714 CURVE SMOOTH",
"712 722 OFFCURVE",
"663 724 OFFCURVE",
"618 724 CURVE SMOOTH",
"484 724 LINE",
"489 791 LINE SMOOTH",
"490 806 OFFCURVE",
"492 825 OFFCURVE",
"494 846 CURVE",
"495 867 OFFCURVE",
"497 886 OFFCURVE",
"498 901 CURVE",
"505 901 OFFCURVE",
"514 901 OFFCURVE",
"524 901 CURVE SMOOTH",
"533 901 OFFCURVE",
"543 901 OFFCURVE",
"553 901 CURVE",
"563 900 OFFCURVE",
"573 900 OFFCURVE",
"582 900 CURVE SMOOTH",
"591 900 OFFCURVE",
"600 900 OFFCURVE",
"608 900 CURVE",
"623 899 OFFCURVE",
"639 899 OFFCURVE",
"654 899 CURVE SMOOTH",
"669 899 OFFCURVE",
"685 899 OFFCURVE",
"700 899 CURVE SMOOTH",
"771 899 OFFCURVE",
"839 921 OFFCURVE",
"889 962 CURVE SMOOTH",
"939 1003 OFFCURVE",
"971 1065 OFFCURVE",
"971 1142 CURVE SMOOTH",
"971 1217 OFFCURVE",
"930 1261 OFFCURVE",
"876 1286 CURVE SMOOTH",
"822 1311 OFFCURVE",
"754 1318 OFFCURVE",
"705 1318 CURVE SMOOTH",
"584 1318 OFFCURVE",
"456 1296 OFFCURVE",
"324 1265 CURVE",
"325 1276 OFFCURVE",
"325 1290 OFFCURVE",
"326 1305 CURVE",
"326 1320 OFFCURVE",
"326 1336 OFFCURVE",
"327 1352 CURVE SMOOTH",
"328 1384 OFFCURVE",
"329 1416 OFFCURVE",
"329 1439 CURVE",
"468 1462 OFFCURVE",
"603 1480 OFFCURVE",
"732 1480 CURVE SMOOTH",
"799 1480 OFFCURVE",
"872 1474 OFFCURVE",
"938 1456 CURVE SMOOTH",
"1004 1438 OFFCURVE",
"1064 1409 OFFCURVE",
"1109 1363 CURVE SMOOTH",
"1153 1317 OFFCURVE",
"1180 1254 OFFCURVE",
"1180 1170 CURVE SMOOTH"
);
}
);
width = 1343;
}
);
unicode = 0033;
},
{
glyphname = four;
lastChange = "2012-06-10 13:56:22 +0000";
layers = (
{
layerId = "013FA67F-D7C9-4F04-AAC6-32032829ED9A";
name = Bold;
paths = (
{
closed = 1;
nodes = (
"740 1366 LINE",
"695 1307 LINE",
"698 1331 OFFCURVE",
"701 1354 OFFCURVE",
"705 1381 CURVE"
);
},
{
closed = 1;
nodes = (
"644 842 OFFCURVE",
"667 1072 OFFCURVE",
"695 1307 CURVE",
"607 1188 OFFCURVE",
"525 1075 OFFCURVE",
"443 960 CURVE SMOOTH",
"361 845 OFFCURVE",
"278 730 OFFCURVE",
"193 607 CURVE",
"266 608 OFFCURVE",
"338 608 OFFCURVE",
"407 609 CURVE SMOOTH",
"476 610 OFFCURVE",
"547 610 OFFCURVE",
"621 610 CURVE"
);
},
{
closed = 1;
nodes = (
"675 1456 LINE",
"714 1457 OFFCURVE",
"757 1458 OFFCURVE",
"803 1460 CURVE SMOOTH",
"848 1462 OFFCURVE",
"891 1464 OFFCURVE",
"931 1465 CURVE",
"890 1178 OFFCURVE",
"863 895 OFFCURVE",
"843 608 CURVE",
"876 608 OFFCURVE",
"912 607 OFFCURVE",
"945 606 CURVE SMOOTH",
"950 606 OFFCURVE",
"957 606 OFFCURVE",
"965 606 CURVE SMOOTH",
"973 606 OFFCURVE",
"981 606 OFFCURVE",
"989 606 CURVE",
"997 605 OFFCURVE",
"1005 605 OFFCURVE",
"1012 605 CURVE SMOOTH",
"1019 605 OFFCURVE",
"1024 605 OFFCURVE",
"1028 605 CURVE",
"1025 580 OFFCURVE",
"1022 536 OFFCURVE",
"1021 511 CURVE",
"1020 499 OFFCURVE",
"1019 484 OFFCURVE",
"1019 466 CURVE",
"1018 447 OFFCURVE",
"1018 432 OFFCURVE",
"1017 421 CURVE",
"986 422 OFFCURVE",
"955 424 OFFCURVE",
"924 425 CURVE SMOOTH",
"893 426 OFFCURVE",
"862 427 OFFCURVE",
"831 428 CURVE",
"830 409 OFFCURVE",
"830 390 OFFCURVE",
"830 371 CURVE SMOOTH",
"830 352 OFFCURVE",
"830 333 OFFCURVE",
"830 314 CURVE SMOOTH",
"830 223 OFFCURVE",
"832 115 OFFCURVE",
"835 24 CURVE",
"795 27 OFFCURVE",
"744 30 OFFCURVE",
"693 32 CURVE SMOOTH",
"668 33 OFFCURVE",
"643 34 OFFCURVE",
"618 35 CURVE SMOOTH",
"593 36 OFFCURVE",
"571 36 OFFCURVE",
"550 36 CURVE",
"570 213 LINE SMOOTH",
"578 292 OFFCURVE",
"584 353 OFFCURVE",
"595 432 CURVE",
"516 432 LINE SMOOTH",
"349 432 OFFCURVE",
"161 428 OFFCURVE",
"-8 421 CURVE",
"-5 440 OFFCURVE",
"-2 465 OFFCURVE",
"1 490 CURVE SMOOTH",
"4 514 OFFCURVE",
"6 539 OFFCURVE",
"9 558 CURVE",
"221 858 OFFCURVE",
"435 1155 OFFCURVE",
"659 1448 CURVE"
);
}
);
width = 1198;
}
);
unicode = 0034;
},
{
glyphname = five;
lastChange = "2012-06-10 13:56:22 +0000";
layers = (
{
layerId = "013FA67F-D7C9-4F04-AAC6-32032829ED9A";
name = Bold;
paths = (
{
closed = 1;
nodes = (
"405 1474 LINE",
"533 1460 OFFCURVE",
"662 1453 OFFCURVE",
"792 1453 CURVE SMOOTH",
"909 1453 OFFCURVE",
"1036 1460 OFFCURVE",
"1180 1473 CURVE",
"1154 1306 LINE",
"1029 1295 OFFCURVE",
"909 1291 OFFCURVE",
"789 1291 CURVE SMOOTH",
"704 1291 OFFCURVE",
"638 1292 OFFCURVE",
"555 1296 CURVE",
"552 1237 OFFCURVE",
"550 1182 OFFCURVE",
"547 1126 CURVE SMOOTH",
"545 1098 OFFCURVE",
"543 1070 OFFCURVE",
"542 1042 CURVE SMOOTH",
"540 1013 OFFCURVE",
"538 984 OFFCURVE",
"535 954 CURVE",
"592 967 OFFCURVE",
"648 979 OFFCURVE",
"704 979 CURVE SMOOTH",
"771 979 OFFCURVE",
"838 971 OFFCURVE",
"900 951 CURVE SMOOTH",
"962 930 OFFCURVE",
"1017 898 OFFCURVE",
"1064 850 CURVE SMOOTH",
"1143 766 OFFCURVE",
"1173 651 OFFCURVE",
"1173 535 CURVE SMOOTH",
"1173 466 OFFCURVE",
"1164 388 OFFCURVE",
"1139 316 CURVE SMOOTH",
"1114 244 OFFCURVE",
"1073 175 OFFCURVE",
"1009 126 CURVE SMOOTH",
"946 77 OFFCURVE",
"874 47 OFFCURVE",
"799 30 CURVE SMOOTH",
"723 13 OFFCURVE",
"645 8 OFFCURVE",
"572 8 CURVE SMOOTH",
"452 8 OFFCURVE",
"332 17 OFFCURVE",
"203 48 CURVE",
"211 95 OFFCURVE",
"221 153 OFFCURVE",
"229 211 CURVE SMOOTH",
"237 269 OFFCURVE",
"245 326 OFFCURVE",
"252 373 CURVE",
"365 313 OFFCURVE",
"481 291 OFFCURVE",
"594 291 CURVE SMOOTH",
"639 291 OFFCURVE",
"689 295 OFFCURVE",
"735 308 CURVE SMOOTH",
"781 320 OFFCURVE",
"825 341 OFFCURVE",
"862 373 CURVE SMOOTH",
"890 398 OFFCURVE",
"915 424 OFFCURVE",
"932 453 CURVE SMOOTH",
"949 482 OFFCURVE",
"960 516 OFFCURVE",
"960 556 CURVE SMOOTH",
"960 625 OFFCURVE",
"936 697 OFFCURVE",
"885 740 CURVE",
"816 788 OFFCURVE",
"736 800 OFFCURVE",
"661 800 CURVE SMOOTH",
"564 800 OFFCURVE",
"456 775 OFFCURVE",
"344 726 CURVE",
"355 842 OFFCURVE",
"363 967 OFFCURVE",
"370 1091 CURVE SMOOTH",
"377 1215 OFFCURVE",
"382 1339 OFFCURVE",
"383 1455 CURVE"
);
}
);
width = 1298;
}
);
unicode = 0035;
},
{
glyphname = six;
lastChange = "2012-06-10 13:56:22 +0000";
layers = (
{
layerId = "013FA67F-D7C9-4F04-AAC6-32032829ED9A";
name = Bold;
paths = (
{
closed = 1;
nodes = (
"596 810 OFFCURVE",
"523 782 OFFCURVE",
"470 726 CURVE SMOOTH",
"439 691 OFFCURVE",
"416 648 OFFCURVE",
"400 603 CURVE SMOOTH",
"384 558 OFFCURVE",
"375 510 OFFCURVE",
"375 467 CURVE SMOOTH",
"375 403 OFFCURVE",
"410 361 OFFCURVE",
"459 336 CURVE SMOOTH",
"507 311 OFFCURVE",
"570 302 OFFCURVE",
"629 302 CURVE SMOOTH",
"688 302 OFFCURVE",
"752 318 OFFCURVE",
"804 350 CURVE SMOOTH",
"855 382 OFFCURVE",
"892 430 OFFCURVE",
"899 494 CURVE",
"899 515 LINE SMOOTH",
"899 519 OFFCURVE",
"899 523 OFFCURVE",
"900 527 CURVE",
"900 530 OFFCURVE",
"900 534 OFFCURVE",
"900 538 CURVE SMOOTH",
"900 606 OFFCURVE",
"889 673 OFFCURVE",
"848 728 CURVE",
"809 785 OFFCURVE",
"740 810 OFFCURVE",
"668 810 CURVE SMOOTH"
);
},
{
closed = 1;
nodes = (
"1102 1426 LINE",
"1120 1428 LINE",
"1111 1373 OFFCURVE",
"1100 1296 OFFCURVE",
"1093 1241 CURVE",
"998 1280 OFFCURVE",
"905 1300 OFFCURVE",
"820 1300 CURVE SMOOTH",
"765 1300 OFFCURVE",
"708 1293 OFFCURVE",
"656 1274 CURVE SMOOTH",
"603 1255 OFFCURVE",
"554 1226 OFFCURVE",
"517 1179 CURVE SMOOTH",
"474 1127 OFFCURVE",
"446 1072 OFFCURVE",
"425 1014 CURVE SMOOTH",
"404 956 OFFCURVE",
"390 896 OFFCURVE",
"379 837 CURVE",
"464 925 OFFCURVE",
"579 980 OFFCURVE",
"700 980 CURVE SMOOTH",
"760 980 OFFCURVE",
"820 971 OFFCURVE",
"874 950 CURVE SMOOTH",
"928 929 OFFCURVE",
"977 897 OFFCURVE",
"1013 850 CURVE",
"1012 851 LINE",
"1048 808 OFFCURVE",
"1072 759 OFFCURVE",
"1088 707 CURVE SMOOTH",
"1103 654 OFFCURVE",
"1108 598 OFFCURVE",
"1108 542 CURVE SMOOTH",
"1108 473 OFFCURVE",
"1100 397 OFFCURVE",
"1077 325 CURVE SMOOTH",
"1054 253 OFFCURVE",
"1017 185 OFFCURVE",
"960 130 CURVE SMOOTH",
"908 82 OFFCURVE",
"847 52 OFFCURVE",
"782 34 CURVE SMOOTH",
"717 16 OFFCURVE",
"650 10 OFFCURVE",
"586 10 CURVE SMOOTH",
"514 10 OFFCURVE",
"443 24 OFFCURVE",
"380 53 CURVE SMOOTH",
"317 82 OFFCURVE",
"263 128 OFFCURVE",
"230 192 CURVE SMOOTH",
"171 301 OFFCURVE",
"156 424 OFFCURVE",
"156 551 CURVE SMOOTH",
"156 659 OFFCURVE",
"164 792 OFFCURVE",
"193 923 CURVE SMOOTH",
"222 1054 OFFCURVE",
"271 1183 OFFCURVE",
"355 1286 CURVE",
"416 1355 OFFCURVE",
"495 1404 OFFCURVE",
"579 1436 CURVE SMOOTH",
"663 1467 OFFCURVE",
"753 1481 OFFCURVE",
"838 1481 CURVE SMOOTH",
"931 1481 OFFCURVE",
"1023 1465 OFFCURVE",
"1112 1442 CURVE"
);
}
);
width = 1370;
}
);
unicode = 0036;
},
{
glyphname = seven;
lastChange = "2012-06-10 13:56:22 +0000";
layers = (
{
layerId = "013FA67F-D7C9-4F04-AAC6-32032829ED9A";
name = Bold;
paths = (
{
closed = 1;
nodes = (
"49 1484 LINE",
"194 1464 OFFCURVE",
"339 1454 OFFCURVE",
"485 1454 CURVE SMOOTH",
"640 1454 OFFCURVE",
"803 1465 OFFCURVE",
"974 1487 CURVE",
"974 1485 OFFCURVE",
"974 1482 OFFCURVE",
"973 1477 CURVE SMOOTH",
"972 1472 OFFCURVE",
"972 1466 OFFCURVE",
"971 1461 CURVE",
"970 1450 OFFCURVE",
"968 1439 OFFCURVE",
"967 1435 CURVE",
"959 1389 LINE",
"819 1053 OFFCURVE",
"704 706 OFFCURVE",
"591 362 CURVE SMOOTH",
"558 259 OFFCURVE",
"517 137 OFFCURVE",
"482 36 CURVE",
"465 37 OFFCURVE",
"447 37 OFFCURVE",
"426 37 CURVE SMOOTH",
"405 37 OFFCURVE",
"386 37 OFFCURVE",
"369 37 CURVE SMOOTH",
"330 37 OFFCURVE",
"284 37 OFFCURVE",
"237 35 CURVE SMOOTH",
"189 33 OFFCURVE",
"142 31 OFFCURVE",
"103 28 CURVE",
"164 140 OFFCURVE",
"227 262 OFFCURVE",
"288 384 CURVE SMOOTH",
"349 506 OFFCURVE",
"409 628 OFFCURVE",
"465 743 CURVE SMOOTH",
"513 842 OFFCURVE",
"558 932 OFFCURVE",
"603 1023 CURVE SMOOTH",
"648 1114 OFFCURVE",
"694 1204 OFFCURVE",
"745 1301 CURVE",
"652 1295 OFFCURVE",
"558 1292 OFFCURVE",
"464 1292 CURVE SMOOTH",
"320 1292 OFFCURVE",
"174 1301 OFFCURVE",
"25 1319 CURVE",
"26 1340 OFFCURVE",
"26 1365 OFFCURVE",
"26 1392 CURVE SMOOTH",
"26 1419 OFFCURVE",
"26 1444 OFFCURVE",
"26 1465 CURVE"
);
}
);
width = 1077;
}
);
unicode = 0037;
},
{
glyphname = eight;
lastChange = "2012-06-10 13:56:22 +0000";
layers = (
{
layerId = "013FA67F-D7C9-4F04-AAC6-32032829ED9A";
name = Bold;
paths = (
{
closed = 1;
nodes = (
"614 719 OFFCURVE",
"537 695 OFFCURVE",
"478 648 CURVE",
"449 621 OFFCURVE",
"426 587 OFFCURVE",
"411 551 CURVE SMOOTH",
"395 514 OFFCURVE",
"387 474 OFFCURVE",
"387 437 CURVE SMOOTH",
"387 393 OFFCURVE",
"412 355 OFFCURVE",
"444 324 CURVE SMOOTH",
"495 277 OFFCURVE",
"571 264 OFFCURVE",
"644 264 CURVE SMOOTH",
"716 264 OFFCURVE",
"796 278 OFFCURVE",
"855 325 CURVE SMOOTH",
"903 365 OFFCURVE",
"937 417 OFFCURVE",
"938 481 CURVE SMOOTH",
"938 545 OFFCURVE",
"921 605 OFFCURVE",
"878 649 CURVE SMOOTH",
"830 701 OFFCURVE",
"761 720 OFFCURVE",
"686 719 CURVE SMOOTH"
);
},
{
closed = 1;
nodes = (
"269 671 LINE",
"322 728 OFFCURVE",
"391 768 OFFCURVE",
"464 791 CURVE",
"407 812 OFFCURVE",
"361 853 OFFCURVE",
"330 904 CURVE SMOOTH",
"299 955 OFFCURVE",
"282 1015 OFFCURVE",
"282 1078 CURVE SMOOTH",
"282 1183 OFFCURVE",
"322 1296 OFFCURVE",
"410 1369 CURVE",
"459 1405 OFFCURVE",
"515 1429 OFFCURVE",
"574 1443 CURVE SMOOTH",
"633 1457 OFFCURVE",
"693 1462 OFFCURVE",
"749 1462 CURVE SMOOTH",
"805 1462 OFFCURVE",
"864 1458 OFFCURVE",
"920 1444 CURVE SMOOTH",
"976 1430 OFFCURVE",
"1029 1406 OFFCURVE",
"1073 1370 CURVE",
"1129 1317 OFFCURVE",
"1158 1241 OFFCURVE",
"1158 1164 CURVE SMOOTH",
"1158 1087 OFFCURVE",
"1135 1005 OFFCURVE",
"1092 937 CURVE SMOOTH",
"1048 869 OFFCURVE",
"985 815 OFFCURVE",
"904 794 CURVE",
"979 771 OFFCURVE",
"1043 729 OFFCURVE",
"1088 672 CURVE SMOOTH",
"1133 615 OFFCURVE",
"1160 542 OFFCURVE",
"1160 458 CURVE SMOOTH",
"1160 397 OFFCURVE",
"1151 330 OFFCURVE",
"1128 268 CURVE SMOOTH",
"1105 206 OFFCURVE",
"1068 149 OFFCURVE",
"1011 109 CURVE SMOOTH",
"954 68 OFFCURVE",
"890 43 OFFCURVE",
"824 28 CURVE SMOOTH",
"758 13 OFFCURVE",
"690 9 OFFCURVE",
"625 9 CURVE SMOOTH",
"558 9 OFFCURVE",
"492 13 OFFCURVE",
"428 28 CURVE SMOOTH",
"364 43 OFFCURVE",
"304 67 OFFCURVE",
"253 108 CURVE SMOOTH",
"178 168 OFFCURVE",
"154 261 OFFCURVE",
"154 357 CURVE SMOOTH",
"154 410 OFFCURVE",
"161 467 OFFCURVE",
"180 522 CURVE SMOOTH",
"199 577 OFFCURVE",
"227 628 OFFCURVE",
"270 671 CURVE"
);
},
{
closed = 1;
nodes = (
"475 1145 LINE",
"473 1133 OFFCURVE",
"472 1123 OFFCURVE",
"472 1114 CURVE SMOOTH",
"472 1059 OFFCURVE",
"496 1012 OFFCURVE",
"535 978 CURVE SMOOTH",
"574 944 OFFCURVE",
"625 923 OFFCURVE",
"680 923 CURVE SMOOTH",
"683 923 OFFCURVE",
"687 923 OFFCURVE",
"691 923 CURVE SMOOTH",
"694 923 OFFCURVE",
"698 923 OFFCURVE",
"702 924 CURVE",
"705 923 OFFCURVE",
"709 923 OFFCURVE",
"713 923 CURVE SMOOTH",
"716 923 OFFCURVE",
"720 923 OFFCURVE",
"723 923 CURVE SMOOTH",
"790 923 OFFCURVE",
"853 951 OFFCURVE",
"898 996 CURVE SMOOTH",
"943 1041 OFFCURVE",
"972 1104 OFFCURVE",
"972 1172 CURVE SMOOTH",
"972 1237 OFFCURVE",
"941 1281 OFFCURVE",
"897 1309 CURVE SMOOTH",
"852 1336 OFFCURVE",
"793 1347 OFFCURVE",
"736 1347 CURVE SMOOTH",
"676 1347 OFFCURVE",
"613 1330 OFFCURVE",
"563 1297 CURVE SMOOTH",
"513 1264 OFFCURVE",
"478 1214 OFFCURVE",
"475 1147 CURVE"
);
}
);
width = 1399;
}
);
unicode = 0038;
},
{
glyphname = nine;
lastChange = "2012-06-10 13:56:22 +0000";
layers = (
{
layerId = "013FA67F-D7C9-4F04-AAC6-32032829ED9A";
name = Bold;
paths = (
{
closed = 1;
nodes = (
"361 8 OFFCURVE",
"268 22 OFFCURVE",
"177 49 CURVE",
"192 59 LINE",
"168 61 LINE",
"176 108 OFFCURVE",
"184 160 OFFCURVE",
"191 213 CURVE SMOOTH",
"194 239 OFFCURVE",
"198 265 OFFCURVE",
"201 291 CURVE SMOOTH",
"204 316 OFFCURVE",
"207 341 OFFCURVE",
"210 364 CURVE",
"305 323 OFFCURVE",
"396 302 OFFCURVE",
"484 302 CURVE SMOOTH",
"583 302 OFFCURVE",
"692 312 OFFCURVE",
"783 368 CURVE",
"781 366 LINE",
"824 401 OFFCURVE",
"851 447 OFFCURVE",
"869 496 CURVE SMOOTH",
"887 545 OFFCURVE",
"897 600 OFFCURVE",
"906 652 CURVE",
"822 564 OFFCURVE",
"708 510 OFFCURVE",
"587 510 CURVE SMOOTH",
"527 510 OFFCURVE",
"468 519 OFFCURVE",
"414 540 CURVE SMOOTH",
"360 560 OFFCURVE",
"310 593 OFFCURVE",
"274 640 CURVE",
"274 639 LINE",
"202 724 OFFCURVE",
"181 839 OFFCURVE",
"181 952 CURVE SMOOTH",
"181 1021 OFFCURVE",
"189 1096 OFFCURVE",
"211 1168 CURVE SMOOTH",
"233 1239 OFFCURVE",
"268 1305 OFFCURVE",
"327 1358 CURVE SMOOTH",
"380 1407 OFFCURVE",
"441 1438 OFFCURVE",
"505 1456 CURVE SMOOTH",
"569 1474 OFFCURVE",
"637 1480 OFFCURVE",
"702 1480 CURVE SMOOTH",
"770 1480 OFFCURVE",
"841 1467 OFFCURVE",
"902 1439 CURVE SMOOTH",
"963 1411 OFFCURVE",
"1017 1367 OFFCURVE",
"1052 1307 CURVE",
"1115 1186 OFFCURVE",
"1131 1057 OFFCURVE",
"1131 928 CURVE SMOOTH",
"1131 819 OFFCURVE",
"1122 687 OFFCURVE",
"1092 559 CURVE SMOOTH",
"1062 430 OFFCURVE",
"1012 303 OFFCURVE",
"931 202 CURVE SMOOTH",
"870 131 OFFCURVE",
"794 83 OFFCURVE",
"711 52 CURVE SMOOTH",
"628 21 OFFCURVE",
"540 8 OFFCURVE",
"455 8 CURVE SMOOTH"
);
},
{
closed = 1;
nodes = (
"696 811 OFFCURVE",
"779 817 OFFCURVE",
"855 848 CURVE SMOOTH",
"900 865 OFFCURVE",
"926 907 OFFCURVE",
"941 952 CURVE SMOOTH",
"956 997 OFFCURVE",
"959 1048 OFFCURVE",
"959 1084 CURVE SMOOTH",
"959 1151 OFFCURVE",
"943 1214 OFFCURVE",
"898 1258 CURVE SMOOTH",
"837 1321 OFFCURVE",
"746 1339 OFFCURVE",
"654 1339 CURVE SMOOTH",
"570 1339 OFFCURVE",
"482 1314 OFFCURVE",
"415 1258 CURVE SMOOTH",
"379 1226 OFFCURVE",
"353 1184 OFFCURVE",
"337 1140 CURVE SMOOTH",
"321 1095 OFFCURVE",
"313 1047 OFFCURVE",
"313 1002 CURVE SMOOTH",
"313 971 OFFCURVE",
"317 938 OFFCURVE",
"327 910 CURVE SMOOTH",
"337 882 OFFCURVE",
"355 858 OFFCURVE",
"383 846 CURVE SMOOTH",
"455 817 OFFCURVE",
"535 812 OFFCURVE",
"616 811 CURVE SMOOTH"
);
}
);
width = 1378;
}
);
unicode = 0039;
},
{
glyphname = colon;
lastChange = "2012-06-10 13:56:22 +0000";
layers = (
{
layerId = "013FA67F-D7C9-4F04-AAC6-32032829ED9A";
name = Bold;
paths = (
{
closed = 1;
nodes = (
"301 328 LINE",
"340 333 OFFCURVE",
"379 337 OFFCURVE",
"420 337 CURVE SMOOTH",
"458 337 OFFCURVE",
"501 333 OFFCURVE",
"548 325 CURVE",
"546 302 OFFCURVE",
"544 276 OFFCURVE",
"543 248 CURVE",
"541 220 OFFCURVE",
"539 192 OFFCURVE",
"537 163 CURVE SMOOTH",
"533 106 OFFCURVE",
"530 48 OFFCURVE",
"527 1 CURVE",
"476 20 OFFCURVE",
"432 29 OFFCURVE",
"396 29 CURVE SMOOTH",
"356 29 OFFCURVE",
"306 19 OFFCURVE",
"250 2 CURVE",
"253 25 OFFCURVE",
"256 50 OFFCURVE",
"259 77 CURVE SMOOTH",
"266 129 OFFCURVE",
"272 184 OFFCURVE",
"277 237 CURVE SMOOTH",
"280 263 OFFCURVE",
"282 288 OFFCURVE",
"284 311 CURVE"
);
},
{
closed = 1;
nodes = (
"374 1100 LINE",
"407 1087 OFFCURVE",
"442 1080 OFFCURVE",
"480 1080 CURVE SMOOTH",
"517 1080 OFFCURVE",
"566 1092 OFFCURVE",
"625 1113 CURVE",
"620 1069 OFFCURVE",
"614 1015 OFFCURVE",
"608 960 CURVE SMOOTH",
"602 904 OFFCURVE",
"596 850 OFFCURVE",
"592 806 CURVE",
"543 797 OFFCURVE",
"499 792 OFFCURVE",
"458 792 CURVE SMOOTH",
"419 792 OFFCURVE",
"377 798 OFFCURVE",
"328 809 CURVE",
"331 839 OFFCURVE",
"333 871 OFFCURVE",
"335 905 CURVE SMOOTH",
"337 938 OFFCURVE",
"339 969 OFFCURVE",
"341 998 CURVE SMOOTH",
"347 1084 LINE"
);
}
);
width = 807;
}
);
unicode = 003A;
},
{
glyphname = semicolon;
lastChange = "2012-06-10 13:56:22 +0000";
layers = (
{
layerId = "013FA67F-D7C9-4F04-AAC6-32032829ED9A";
name = Bold;
paths = (
{
closed = 1;
nodes = (
"298 1073 LINE",
"319 1070 OFFCURVE",
"340 1069 OFFCURVE",
"360 1069 CURVE SMOOTH",
"411 1069 OFFCURVE",
"467 1080 OFFCURVE",
"535 1105 CURVE",
"533 1060 LINE",
"522 976 OFFCURVE",
"512 879 OFFCURVE",
"504 795 CURVE",
"440 778 OFFCURVE",
"387 773 OFFCURVE",
"339 773 CURVE SMOOTH",
"316 773 OFFCURVE",
"295 773 OFFCURVE",
"254 777 CURVE",
"257 805 OFFCURVE",
"260 835 OFFCURVE",
"263 868 CURVE SMOOTH",
"265 901 OFFCURVE",
"267 931 OFFCURVE",
"269 958 CURVE SMOOTH",
"270 973 OFFCURVE",
"272 990 OFFCURVE",
"273 1007 CURVE SMOOTH",
"274 1024 OFFCURVE",
"275 1040 OFFCURVE",
"276 1056 CURVE"
);
},
{
closed = 1;
nodes = (
"268 246 LINE SMOOTH",
"275 246 OFFCURVE",
"281 246 OFFCURVE",
"287 247 CURVE",
"293 247 OFFCURVE",
"299 247 OFFCURVE",
"306 247 CURVE SMOOTH",
"346 247 OFFCURVE",
"390 246 OFFCURVE",
"447 241 CURVE",
"446 224 OFFCURVE",
"444 204 OFFCURVE",
"443 182 CURVE",
"441 159 OFFCURVE",
"439 140 OFFCURVE",
"438 123 CURVE SMOOTH",
"432 46 LINE",
"346 -97 LINE SMOOTH",
"327 -127 OFFCURVE",
"308 -158 OFFCURVE",
"288 -191 CURVE SMOOTH",
"267 -224 OFFCURVE",
"248 -255 OFFCURVE",
"230 -285 CURVE",
"185 -288 OFFCURVE",
"130 -299 OFFCURVE",
"66 -323 CURVE",
"73 -302 OFFCURVE",
"80 -280 OFFCURVE",
"89 -255 CURVE SMOOTH",
"97 -231 OFFCURVE",
"105 -206 OFFCURVE",
"114 -180 CURVE SMOOTH",
"131 -129 OFFCURVE",
"148 -79 OFFCURVE",
"163 -38 CURVE SMOOTH",
"197 59 LINE",
"200 88 OFFCURVE",
"202 116 OFFCURVE",
"205 143 CURVE",
"206 157 OFFCURVE",
"208 174 OFFCURVE",
"209 194 CURVE SMOOTH",
"210 214 OFFCURVE",
"212 231 OFFCURVE",
"213 246 CURVE"
);
}
);
width = 555;
}
);
unicode = 003B;
},
{
glyphname = less;
lastChange = "2012-06-10 13:56:22 +0000";
layers = (
{
layerId = "013FA67F-D7C9-4F04-AAC6-32032829ED9A";
name = Bold;
paths = (
{
closed = 1;
nodes = (
"1257 967 LINE",
"1086 915 OFFCURVE",
"927 872 OFFCURVE",
"768 830 CURVE SMOOTH",
"608 788 OFFCURVE",
"448 748 OFFCURVE",
"276 705 CURVE",
"602 546 LINE SMOOTH",
"778 462 OFFCURVE",
"968 369 OFFCURVE",
"1141 280 CURVE",
"1134 203 OFFCURVE",
"1131 120 OFFCURVE",
"1131 24 CURVE",
"1047 68 OFFCURVE",
"954 114 OFFCURVE",
"862 159 CURVE SMOOTH",
"769 204 OFFCURVE",
"676 250 OFFCURVE",
"591 291 CURVE SMOOTH",
"394 387 OFFCURVE",
"183 490 OFFCURVE",
"-10 590 CURVE",
"-7 607 OFFCURVE",
"-4 625 OFFCURVE",
"-1 645 CURVE SMOOTH",
"6 685 OFFCURVE",
"12 726 OFFCURVE",
"17 766 CURVE SMOOTH",
"20 785 OFFCURVE",
"22 804 OFFCURVE",
"23 821 CURVE",
"210 867 LINE SMOOTH",
"386 910 OFFCURVE",
"580 959 OFFCURVE",
"773 1011 CURVE SMOOTH",
"966 1063 OFFCURVE",
"1158 1117 OFFCURVE",
"1331 1173 CURVE",
"1327 1160 OFFCURVE",
"1322 1146 OFFCURVE",
"1317 1129 CURVE",
"1305 1096 OFFCURVE",
"1294 1060 OFFCURVE",
"1283 1026 CURVE SMOOTH",
"1278 1009 OFFCURVE",
"1273 994 OFFCURVE",
"1270 981 CURVE"
);
}
);
width = 1569;
}
);
unicode = 003C;
},
{
glyphname = equal;
lastChange = "2012-06-10 13:56:22 +0000";
layers = (
{
layerId = "013FA67F-D7C9-4F04-AAC6-32032829ED9A";
name = Bold;
paths = (
{
closed = 1;
nodes = (
"328 935 LINE",
"525 927 OFFCURVE",
"721 924 OFFCURVE",
"920 924 CURVE SMOOTH",
"1133 924 OFFCURVE",
"1373 929 OFFCURVE",
"1586 936 CURVE",
"1559 873 OFFCURVE",
"1539 811 OFFCURVE",
"1526 751 CURVE",
"1323 747 OFFCURVE",
"1110 745 OFFCURVE",
"907 745 CURVE SMOOTH",
"718 745 OFFCURVE",
"514 747 OFFCURVE",
"326 751 CURVE",
"323 808 OFFCURVE",
"318 862 OFFCURVE",
"307 911 CURVE"
);
},
{
closed = 1;
nodes = (
"329 567 LINE",
"541 570 OFFCURVE",
"751 571 OFFCURVE",
"964 571 CURVE SMOOTH",
"1139 571 OFFCURVE",
"1331 570 OFFCURVE",
"1506 567 CURVE",
"1506 495 OFFCURVE",
"1514 424 OFFCURVE",
"1533 352 CURVE",
"1332 359 OFFCURVE",
"1108 363 OFFCURVE",
"905 363 CURVE SMOOTH",
"801 363 OFFCURVE",
"689 362 OFFCURVE",
"578 360 CURVE SMOOTH",
"466 358 OFFCURVE",
"354 355 OFFCURVE",
"250 352 CURVE",
"281 427 OFFCURVE",
"298 491 OFFCURVE",
"309 551 CURVE"
);
}
);
width = 1831;
}
);
unicode = 003D;
},
{
glyphname = greater;
lastChange = "2012-06-10 13:56:22 +0000";
layers = (
{
layerId = "013FA67F-D7C9-4F04-AAC6-32032829ED9A";
name = Bold;
paths = (
{
closed = 1;
nodes = (
"392 1100 LINE",
"393 1110 OFFCURVE",
"393 1120 OFFCURVE",
"394 1130 CURVE",
"394 1140 OFFCURVE",
"395 1150 OFFCURVE",
"396 1160 CURVE",
"397 1176 OFFCURVE",
"399 1200 OFFCURVE",
"400 1224 CURVE",
"401 1235 OFFCURVE",
"401 1247 OFFCURVE",
"402 1258 CURVE SMOOTH",
"403 1269 OFFCURVE",
"403 1278 OFFCURVE",
"403 1286 CURVE",
"502 1235 OFFCURVE",
"608 1182 OFFCURVE",
"714 1130 CURVE SMOOTH",
"820 1077 OFFCURVE",
"926 1024 OFFCURVE",
"1026 976 CURVE SMOOTH",
"1195 893 OFFCURVE",
"1375 805 OFFCURVE",
"1542 721 CURVE",
"1527 644 OFFCURVE",
"1515 567 OFFCURVE",
"1507 488 CURVE",
"1297 435 LINE SMOOTH",
"1120 391 OFFCURVE",
"934 344 OFFCURVE",
"748 294 CURVE SMOOTH",
"562 244 OFFCURVE",
"377 191 OFFCURVE",
"201 136 CURVE",
"221 192 OFFCURVE",
"235 239 OFFCURVE",
"247 281 CURVE SMOOTH",
"259 323 OFFCURVE",
"269 359 OFFCURVE",
"278 396 CURVE",
"525 468 OFFCURVE",
"777 534 OFFCURVE",
"1025 598 CURVE SMOOTH",
"1262 658 LINE",
"1207 686 OFFCURVE",
"1153 713 OFFCURVE",
"1098 740 CURVE SMOOTH",
"989 792 OFFCURVE",
"843 863 OFFCURVE",
"667 949 CURVE SMOOTH",
"578 992 OFFCURVE",
"490 1036 OFFCURVE",
"403 1082 CURVE"
);
}
);
width = 1569;
}
);
unicode = 003E;
},
{
glyphname = question;
lastChange = "2012-06-10 13:56:22 +0000";
layers = (
{
layerId = "013FA67F-D7C9-4F04-AAC6-32032829ED9A";
name = Bold;
paths = (
{
closed = 1;
nodes = (
"212 310 LINE",
"275 313 OFFCURVE",
"339 315 OFFCURVE",
"403 315 CURVE SMOOTH",
"462 315 LINE",
"451 168 LINE SMOOTH",
"449 147 OFFCURVE",
"447 124 OFFCURVE",
"446 98 CURVE",
"444 71 OFFCURVE",
"442 48 OFFCURVE",
"441 27 CURVE",
"383 27 LINE SMOOTH",
"316 27 OFFCURVE",
"228 23 OFFCURVE",
"160 19 CURVE",
"165 60 OFFCURVE",
"172 108 OFFCURVE",
"178 156 CURVE SMOOTH",
"184 203 OFFCURVE",
"189 249 OFFCURVE",
"193 292 CURVE"
);
},
{
closed = 1;
nodes = (
"457 413 LINE",
"382 413 OFFCURVE",
"287 411 OFFCURVE",
"211 408 CURVE",
"219 491 LINE SMOOTH",
"226 571 OFFCURVE",
"232 650 OFFCURVE",
"267 729 CURVE",
"298 790 OFFCURVE",
"344 836 OFFCURVE",
"391 879 CURVE",
"400 886 OFFCURVE",
"408 892 OFFCURVE",
"416 899 CURVE",
"423 906 OFFCURVE",
"431 912 OFFCURVE",
"440 919 CURVE",
"489 961 LINE",
"504 973 LINE SMOOTH",
"535 997 OFFCURVE",
"571 1025 OFFCURVE",
"600 1056 CURVE SMOOTH",
"629 1087 OFFCURVE",
"650 1120 OFFCURVE",
"650 1153 CURVE SMOOTH",
"650 1209 OFFCURVE",
"628 1253 OFFCURVE",
"592 1285 CURVE SMOOTH",
"556 1316 OFFCURVE",
"507 1332 OFFCURVE",
"455 1332 CURVE SMOOTH",
"400 1332 OFFCURVE",
"342 1319 OFFCURVE",
"282 1299 CURVE SMOOTH",
"222 1278 OFFCURVE",
"161 1249 OFFCURVE",
"102 1218 CURVE",
"103 1231 OFFCURVE",
"105 1255 OFFCURVE",
"106 1279 CURVE",
"106 1290 OFFCURVE",
"106 1302 OFFCURVE",
"107 1313 CURVE SMOOTH",
"108 1324 OFFCURVE",
"108 1333 OFFCURVE",
"108 1340 CURVE SMOOTH",
"108 1347 OFFCURVE",
"108 1357 OFFCURVE",
"109 1368 CURVE SMOOTH",
"110 1379 OFFCURVE",
"110 1388 OFFCURVE",
"110 1395 CURVE",
"239 1451 OFFCURVE",
"371 1479 OFFCURVE",
"499 1479 CURVE SMOOTH",
"548 1479 OFFCURVE",
"599 1476 OFFCURVE",
"647 1464 CURVE SMOOTH",
"695 1452 OFFCURVE",
"740 1432 OFFCURVE",
"777 1399 CURVE SMOOTH",
"832 1351 OFFCURVE",
"854 1280 OFFCURVE",
"854 1207 CURVE SMOOTH",
"854 1132 OFFCURVE",
"830 1069 OFFCURVE",
"794 1012 CURVE SMOOTH",
"758 955 OFFCURVE",
"709 904 OFFCURVE",
"661 853 CURVE SMOOTH",
"582 772 LINE",
"572 757 LINE SMOOTH",
"567 750 OFFCURVE",
"562 742 OFFCURVE",
"557 735 CURVE",
"552 727 OFFCURVE",
"546 720 OFFCURVE",
"541 713 CURVE SMOOTH",
"531 699 LINE",
"520 686 OFFCURVE",
"513 673 OFFCURVE",
"506 657 CURVE",
"487 605 OFFCURVE",
"484 546 OFFCURVE",
"481 490 CURVE",
"480 480 OFFCURVE",
"480 470 OFFCURVE",
"480 460 CURVE",
"479 450 OFFCURVE",
"478 440 OFFCURVE",
"477 430 CURVE"
);
}
);
width = 961;
}
);
unicode = 003F;
},
{
glyphname = at;
lastChange = "2012-06-10 13:56:22 +0000";
layers = (
{
layerId = "013FA67F-D7C9-4F04-AAC6-32032829ED9A";
name = Bold;
paths = (
{
closed = 1;
nodes = (
"728 605 OFFCURVE",
"727 593 OFFCURVE",
"727 582 CURVE SMOOTH",
"727 514 OFFCURVE",
"750 462 OFFCURVE",
"788 426 CURVE SMOOTH",
"826 390 OFFCURVE",
"879 372 OFFCURVE",
"943 372 CURVE SMOOTH",
"1003 372 OFFCURVE",
"1069 389 OFFCURVE",
"1114 436 CURVE SMOOTH",
"1174 496 OFFCURVE",
"1194 576 OFFCURVE",
"1194 655 CURVE SMOOTH",
"1194 720 OFFCURVE",
"1172 773 OFFCURVE",
"1133 808 CURVE SMOOTH",
"1094 843 OFFCURVE",
"1040 862 OFFCURVE",
"979 862 CURVE SMOOTH",
"916 862 OFFCURVE",
"854 841 OFFCURVE",
"807 797 CURVE SMOOTH",
"756 749 OFFCURVE",
"736 683 OFFCURVE",
"729 616 CURVE SMOOTH"
);
},
{
closed = 1;
nodes = (
"1201 208 LINE",
"1203 233 LINE",
"1126 160 OFFCURVE",
"1026 112 OFFCURVE",
"922 112 CURVE SMOOTH",
"818 112 OFFCURVE",
"716 150 OFFCURVE",
"655 231 CURVE SMOOTH",
"602 302 OFFCURVE",
"579 393 OFFCURVE",
"579 484 CURVE SMOOTH",
"579 547 OFFCURVE",
"588 614 OFFCURVE",
"608 678 CURVE SMOOTH",
"628 741 OFFCURVE",
"660 802 OFFCURVE",
"708 851 CURVE",
"784 935 OFFCURVE",
"886 971 OFFCURVE",
"993 971 CURVE SMOOTH",
"1100 971 OFFCURVE",
"1193 921 OFFCURVE",
"1258 845 CURVE",
"1258 853 LINE",
"1259 867 OFFCURVE",
"1261 884 OFFCURVE",
"1263 904 CURVE",
"1264 923 OFFCURVE",
"1266 940 OFFCURVE",
"1267 954 CURVE",
"1276 954 OFFCURVE",
"1288 954 OFFCURVE",
"1302 955 CURVE",
"1315 955 OFFCURVE",
"1329 955 OFFCURVE",
"1344 956 CURVE",
"1359 956 OFFCURVE",
"1373 956 OFFCURVE",
"1387 957 CURVE",
"1400 957 OFFCURVE",
"1412 957 OFFCURVE",
"1421 957 CURVE",
"1394 724 OFFCURVE",
"1371 498 OFFCURVE",
"1356 265 CURVE",
"1433 280 OFFCURVE",
"1504 319 OFFCURVE",
"1555 383 CURVE SMOOTH",
"1592 432 OFFCURVE",
"1618 489 OFFCURVE",
"1634 548 CURVE SMOOTH",
"1650 607 OFFCURVE",
"1656 667 OFFCURVE",
"1656 723 CURVE SMOOTH",
"1656 823 OFFCURVE",
"1632 920 OFFCURVE",
"1580 1003 CURVE",
"1581 1003 LINE",
"1525 1082 OFFCURVE",
"1448 1142 OFFCURVE",
"1360 1182 CURVE SMOOTH",
"1272 1222 OFFCURVE",
"1173 1242 OFFCURVE",
"1073 1242 CURVE SMOOTH",
"925 1242 OFFCURVE",
"777 1206 OFFCURVE",
"646 1126 CURVE SMOOTH",
"529 1055 OFFCURVE",
"443 953 OFFCURVE",
"387 836 CURVE SMOOTH",
"330 719 OFFCURVE",
"303 588 OFFCURVE",
"303 461 CURVE SMOOTH",
"303 405 OFFCURVE",
"310 351 OFFCURVE",
"331 303 CURVE",
"331 304 LINE",
"368 224 OFFCURVE",
"422 154 OFFCURVE",
"478 86 CURVE",
"477 87 LINE",
"533 22 OFFCURVE",
"605 -18 OFFCURVE",
"685 -42 CURVE SMOOTH",
"764 -66 OFFCURVE",
"850 -74 OFFCURVE",
"937 -75 CURVE SMOOTH",
"1092 -74 OFFCURVE",
"1258 -31 OFFCURVE",
"1406 74 CURVE",
"1417 47 OFFCURVE",
"1432 12 OFFCURVE",
"1448 -23 CURVE",
"1455 -41 OFFCURVE",
"1463 -58 OFFCURVE",
"1471 -75 CURVE SMOOTH",
"1479 -92 OFFCURVE",
"1486 -106 OFFCURVE",
"1492 -119 CURVE",
"1315 -244 OFFCURVE",
"1113 -305 OFFCURVE",
"918 -305 CURVE SMOOTH",
"807 -305 OFFCURVE",
"696 -288 OFFCURVE",
"594 -249 CURVE SMOOTH",
"492 -210 OFFCURVE",
"400 -153 OFFCURVE",
"329 -70 CURVE",
"329 -71 LINE",
"265 -3 OFFCURVE",
"222 79 OFFCURVE",
"194 167 CURVE SMOOTH",
"166 255 OFFCURVE",
"154 350 OFFCURVE",
"154 445 CURVE SMOOTH",
"154 570 OFFCURVE",
"175 701 OFFCURVE",
"220 825 CURVE SMOOTH",
"265 949 OFFCURVE",
"335 1065 OFFCURVE",
"434 1160 CURVE",
"527 1240 OFFCURVE",
"636 1299 OFFCURVE",
"749 1339 CURVE SMOOTH",
"861 1379 OFFCURVE",
"981 1398 OFFCURVE",
"1098 1398 CURVE SMOOTH",
"1222 1398 OFFCURVE",
"1343 1374 OFFCURVE",
"1448 1326 CURVE SMOOTH",
"1552 1277 OFFCURVE",
"1643 1203 OFFCURVE",
"1707 1106 CURVE SMOOTH",
"1770 1009 OFFCURVE",
"1808 887 OFFCURVE",
"1808 740 CURVE SMOOTH",
"1808 659 OFFCURVE",
"1795 569 OFFCURVE",
"1765 483 CURVE SMOOTH",
"1735 397 OFFCURVE",
"1690 315 OFFCURVE",
"1626 251 CURVE",
"1570 202 OFFCURVE",
"1500 166 OFFCURVE",
"1425 143 CURVE SMOOTH",
"1349 119 OFFCURVE",
"1269 107 OFFCURVE",
"1193 107 CURVE"
);
}
);
width = 2081;
}
);
unicode = 0040;
},
{
glyphname = A;
lastChange = "2012-06-10 13:56:22 +0000";
layers = (
{
anchors = (
{
name = ogonek;
position = "{1356, 10}";
},
{
name = top;
position = "{754, 1455}";
}
);
layerId = "013FA67F-D7C9-4F04-AAC6-32032829ED9A";
name = Bold;
paths = (
{
closed = 1;
nodes = (
"858 1291 LINE",
"835 1239 LINE",
"834 1248 OFFCURVE",
"832 1258 OFFCURVE",
"829 1267 CURVE SMOOTH",
"826 1276 OFFCURVE",
"824 1285 OFFCURVE",
"822 1294 CURVE"
);
},
{
closed = 1;
nodes = (
"898 971 OFFCURVE",
"886 1025 OFFCURVE",
"874 1078 CURVE SMOOTH",
"861 1131 OFFCURVE",
"848 1185 OFFCURVE",
"835 1239 CURVE",
"715 942 LINE SMOOTH",
"654 794 OFFCURVE",
"597 656 OFFCURVE",
"534 507 CURVE",
"574 508 OFFCURVE",
"613 508 OFFCURVE",
"652 508 CURVE SMOOTH",
"690 508 OFFCURVE",
"729 508 OFFCURVE",
"769 508 CURVE SMOOTH",
"791 508 OFFCURVE",
"813 508 OFFCURVE",
"836 508 CURVE",
"858 507 OFFCURVE",
"880 507 OFFCURVE",
"902 507 CURVE SMOOTH",
"1009 507 LINE",
"992 576 OFFCURVE",
"975 644 OFFCURVE",
"960 712 CURVE SMOOTH",
"944 780 OFFCURVE",
"928 848 OFFCURVE",
"911 917 CURVE SMOOTH"
);
},
{
closed = 1;
nodes = (
"954 1455 LINE",
"991 1331 OFFCURVE",
"1029 1194 OFFCURVE",
"1064 1069 CURVE SMOOTH",
"1113 894 OFFCURVE",
"1162 720 OFFCURVE",
"1218 544 CURVE SMOOTH",
"1274 367 OFFCURVE",
"1337 188 OFFCURVE",
"1413 7 CURVE",
"1370 11 OFFCURVE",
"1316 15 OFFCURVE",
"1262 19 CURVE SMOOTH",
"1208 23 OFFCURVE",
"1153 26 OFFCURVE",
"1109 29 CURVE",
"1090 106 OFFCURVE",
"1073 183 OFFCURVE",
"1058 262 CURVE",
"955 265 OFFCURVE",
"855 265 OFFCURVE",
"752 265 CURVE SMOOTH",
"644 265 OFFCURVE",
"551 265 OFFCURVE",
"443 262 CURVE",
"428 224 OFFCURVE",
"410 185 OFFCURVE",
"391 144 CURVE SMOOTH",
"371 103 OFFCURVE",
"352 65 OFFCURVE",
"335 28 CURVE",
"315 27 OFFCURVE",
"292 25 OFFCURVE",
"267 24 CURVE",
"242 22 OFFCURVE",
"216 20 OFFCURVE",
"190 18 CURVE SMOOTH",
"163 16 OFFCURVE",
"137 14 OFFCURVE",
"112 13 CURVE",
"87 11 OFFCURVE",
"64 9 OFFCURVE",
"43 7 CURVE",
"240 344 OFFCURVE",
"398 684 OFFCURVE",
"547 1008 CURVE SMOOTH",
"614 1152 OFFCURVE",
"688 1314 OFFCURVE",
"757 1455 CURVE"
);
}
);
width = 1507;
}
);
unicode = 0041;
},
{
glyphname = B;
lastChange = "2012-06-10 13:56:22 +0000";
layers = (
{
layerId = "013FA67F-D7C9-4F04-AAC6-32032829ED9A";
name = Bold;
paths = (
{
closed = 1;
nodes = (
"554 704 LINE",
"550 662 LINE SMOOTH",
"539 549 OFFCURVE",
"530 444 OFFCURVE",
"515 329 CURVE",
"611 332 OFFCURVE",
"710 335 OFFCURVE",
"806 335 CURVE SMOOTH",
"881 335 OFFCURVE",
"961 340 OFFCURVE",
"1030 375 CURVE",
"1029 374 LINE",
"1057 390 OFFCURVE",
"1078 417 OFFCURVE",
"1091 448 CURVE SMOOTH",
"1103 479 OFFCURVE",
"1109 512 OFFCURVE",
"1109 543 CURVE SMOOTH",
"1109 584 OFFCURVE",
"1077 618 OFFCURVE",
"1050 646 CURVE",
"1050 645 LINE",
"1023 669 OFFCURVE",
"990 684 OFFCURVE",
"954 693 CURVE SMOOTH",
"918 701 OFFCURVE",
"879 704 OFFCURVE",
"842 704 CURVE SMOOTH"
);
},
{
closed = 1;
nodes = (
"595 1334 LINE",
"595 1331 OFFCURVE",
"595 1327 OFFCURVE",
"595 1324 CURVE",
"594 1321 OFFCURVE",
"594 1317 OFFCURVE",
"594 1314 CURVE",
"574 1316 LINE"
);
},
{
closed = 1;
nodes = (
"778 1307 OFFCURVE",
"686 1309 OFFCURVE",
"594 1314 CURVE",
"589 1165 OFFCURVE",
"581 1030 OFFCURVE",
"570 878 CURVE",
"613 877 OFFCURVE",
"657 876 OFFCURVE",
"701 877 CURVE SMOOTH",
"744 877 OFFCURVE",
"788 877 OFFCURVE",
"831 877 CURVE SMOOTH",
"896 877 OFFCURVE",
"968 886 OFFCURVE",
"1024 923 CURVE",
"1055 947 OFFCURVE",
"1077 981 OFFCURVE",
"1092 1016 CURVE SMOOTH",
"1107 1051 OFFCURVE",
"1114 1086 OFFCURVE",
"1114 1115 CURVE SMOOTH",
"1114 1188 OFFCURVE",
"1084 1236 OFFCURVE",
"1038 1266 CURVE SMOOTH",
"992 1296 OFFCURVE",
"930 1307 OFFCURVE",
"870 1307 CURVE SMOOTH"
);
},
{
closed = 1;
nodes = (
"407 1484 LINE",
"552 1464 OFFCURVE",
"699 1458 OFFCURVE",
"846 1455 CURVE SMOOTH",
"937 1454 OFFCURVE",
"1024 1446 OFFCURVE",
"1105 1415 CURVE SMOOTH",
"1164 1392 OFFCURVE",
"1208 1355 OFFCURVE",
"1237 1311 CURVE SMOOTH",
"1265 1266 OFFCURVE",
"1280 1212 OFFCURVE",
"1280 1159 CURVE SMOOTH",
"1280 1088 OFFCURVE",
"1262 1011 OFFCURVE",
"1226 946 CURVE SMOOTH",
"1190 881 OFFCURVE",
"1134 826 OFFCURVE",
"1061 802 CURVE",
"1138 783 OFFCURVE",
"1208 742 OFFCURVE",
"1258 685 CURVE SMOOTH",
"1308 628 OFFCURVE",
"1339 553 OFFCURVE",
"1339 472 CURVE SMOOTH",
"1339 409 OFFCURVE",
"1331 343 OFFCURVE",
"1308 283 CURVE SMOOTH",
"1284 223 OFFCURVE",
"1246 169 OFFCURVE",
"1186 130 CURVE SMOOTH",
"1126 90 OFFCURVE",
"1061 67 OFFCURVE",
"995 54 CURVE SMOOTH",
"929 41 OFFCURVE",
"859 37 OFFCURVE",
"794 37 CURVE SMOOTH",
"623 37 OFFCURVE",
"446 28 OFFCURVE",
"254 7 CURVE",
"343 502 OFFCURVE",
"385 990 OFFCURVE",
"385 1465 CURVE"
);
}
);
width = 1497;
}
);
unicode = 0042;
},
{
glyphname = C;
lastChange = "2012-06-10 13:56:22 +0000";
layers = (
{
anchors = (
{
name = bottom;
position = "{794, 0}";
},
{
name = top;
position = "{794, 1455}";
}
);
layerId = "013FA67F-D7C9-4F04-AAC6-32032829ED9A";
name = Bold;
paths = (
{
closed = 1;
nodes = (
"1325 1358 LINE",
"1349 1356 LINE",
"1346 1341 OFFCURVE",
"1343 1323 OFFCURVE",
"1340 1304 CURVE SMOOTH",
"1337 1285 OFFCURVE",
"1333 1265 OFFCURVE",
"1330 1245 CURVE SMOOTH",
"1323 1205 OFFCURVE",
"1317 1164 OFFCURVE",
"1313 1133 CURVE",
"1201 1246 OFFCURVE",
"1057 1304 OFFCURVE",
"917 1304 CURVE SMOOTH",
"850 1304 OFFCURVE",
"779 1297 OFFCURVE",
"712 1277 CURVE SMOOTH",
"644 1257 OFFCURVE",
"580 1224 OFFCURVE",
"528 1171 CURVE",
"529 1171 LINE",
"462 1100 OFFCURVE",
"421 1017 OFFCURVE",
"397 930 CURVE SMOOTH",
"372 842 OFFCURVE",
"363 752 OFFCURVE",
"363 672 CURVE SMOOTH",
"363 621 OFFCURVE",
"368 571 OFFCURVE",
"382 526 CURVE SMOOTH",
"396 481 OFFCURVE",
"418 440 OFFCURVE",
"454 408 CURVE",
"453 409 LINE",
"502 369 OFFCURVE",
"562 346 OFFCURVE",
"626 333 CURVE SMOOTH",
"689 320 OFFCURVE",
"756 316 OFFCURVE",
"819 316 CURVE SMOOTH",
"888 316 OFFCURVE",
"964 331 OFFCURVE",
"1037 362 CURVE SMOOTH",
"1110 393 OFFCURVE",
"1183 438 OFFCURVE",
"1250 498 CURVE",
"1247 450 OFFCURVE",
"1246 392 OFFCURVE",
"1244 333 CURVE SMOOTH",
"1242 274 OFFCURVE",
"1240 216 OFFCURVE",
"1240 169 CURVE SMOOTH",
"1240 127 LINE",
"1099 39 OFFCURVE",
"943 9 OFFCURVE",
"794 9 CURVE SMOOTH",
"698 9 OFFCURVE",
"600 21 OFFCURVE",
"509 50 CURVE SMOOTH",
"418 79 OFFCURVE",
"336 127 OFFCURVE",
"272 199 CURVE",
"224 259 OFFCURVE",
"193 328 OFFCURVE",
"174 401 CURVE SMOOTH",
"154 474 OFFCURVE",
"147 552 OFFCURVE",
"147 631 CURVE SMOOTH",
"147 734 OFFCURVE",
"160 855 OFFCURVE",
"194 972 CURVE SMOOTH",
"228 1088 OFFCURVE",
"282 1202 OFFCURVE",
"365 1289 CURVE",
"441 1362 OFFCURVE",
"534 1411 OFFCURVE",
"631 1441 CURVE SMOOTH",
"728 1471 OFFCURVE",
"830 1481 OFFCURVE",
"926 1481 CURVE SMOOTH",
"1074 1481 OFFCURVE",
"1224 1452 OFFCURVE",
"1343 1368 CURVE"
);
}
);
width = 1587;
}
);
unicode = 0043;
},
{
glyphname = D;
lastChange = "2012-06-10 13:56:22 +0000";
layers = (
{
anchors = (
{
name = center;
position = "{849, 728}";
},
{
name = top;
position = "{849, 1455}";
}
);
layerId = "013FA67F-D7C9-4F04-AAC6-32032829ED9A";
name = Bold;
paths = (
{
closed = 1;
nodes = (
"605 1306 LINE",
"605 1303 OFFCURVE",
"605 1299 OFFCURVE",
"605 1296 CURVE",
"604 1293 OFFCURVE",
"604 1289 OFFCURVE",
"604 1286 CURVE",
"601 1286 OFFCURVE",
"597 1286 OFFCURVE",
"594 1286 CURVE SMOOTH",
"591 1286 OFFCURVE",
"587 1286 OFFCURVE",
"584 1287 CURVE"
);
},
{
closed = 1;
nodes = (
"752 1280 OFFCURVE",
"678 1282 OFFCURVE",
"604 1286 CURVE",
"593 987 OFFCURVE",
"573 700 OFFCURVE",
"537 404 CURVE",
"609 407 OFFCURVE",
"680 408 OFFCURVE",
"752 409 CURVE SMOOTH",
"757 409 OFFCURVE",
"762 409 OFFCURVE",
"767 410 CURVE",
"772 410 OFFCURVE",
"777 410 OFFCURVE",
"782 410 CURVE SMOOTH",
"845 411 OFFCURVE",
"909 415 OFFCURVE",
"971 424 CURVE SMOOTH",
"1033 433 OFFCURVE",
"1093 451 OFFCURVE",
"1149 483 CURVE",
"1148 483 LINE",
"1196 515 OFFCURVE",
"1231 561 OFFCURVE",
"1258 611 CURVE SMOOTH",
"1285 661 OFFCURVE",
"1305 716 OFFCURVE",
"1322 768 CURVE",
"1325 799 OFFCURVE",
"1325 831 OFFCURVE",
"1325 862 CURVE SMOOTH",
"1325 963 OFFCURVE",
"1303 1070 OFFCURVE",
"1242 1146 CURVE",
"1189 1198 OFFCURVE",
"1120 1230 OFFCURVE",
"1048 1250 CURVE SMOOTH",
"975 1270 OFFCURVE",
"898 1277 OFFCURVE",
"826 1280 CURVE"
);
},
{
closed = 1;
nodes = (
"406 1484 LINE",
"538 1468 OFFCURVE",
"665 1461 OFFCURVE",
"796 1458 CURVE SMOOTH",
"900 1453 OFFCURVE",
"1011 1447 OFFCURVE",
"1116 1424 CURVE SMOOTH",
"1220 1401 OFFCURVE",
"1318 1362 OFFCURVE",
"1398 1290 CURVE",
"1451 1237 OFFCURVE",
"1484 1173 OFFCURVE",
"1504 1104 CURVE SMOOTH",
"1524 1035 OFFCURVE",
"1531 960 OFFCURVE",
"1531 887 CURVE SMOOTH",
"1531 784 OFFCURVE",
"1523 655 OFFCURVE",
"1491 531 CURVE SMOOTH",
"1459 406 OFFCURVE",
"1401 284 OFFCURVE",
"1301 200 CURVE SMOOTH",
"1209 128 OFFCURVE",
"1106 90 OFFCURVE",
"999 67 CURVE SMOOTH",
"891 44 OFFCURVE",
"781 38 OFFCURVE",
"676 34 CURVE SMOOTH",
"609 31 OFFCURVE",
"538 28 OFFCURVE",
"466 24 CURVE SMOOTH",
"393 19 OFFCURVE",
"321 14 OFFCURVE",
"254 7 CURVE",
"342 460 OFFCURVE",
"386 903 OFFCURVE",
"386 1339 CURVE SMOOTH",
"386 1360 OFFCURVE",
"386 1381 OFFCURVE",
"386 1402 CURVE SMOOTH",
"386 1423 OFFCURVE",
"386 1444 OFFCURVE",
"385 1465 CURVE"
);
}
);
width = 1698;
}
);
unicode = 0044;
},
{
glyphname = E;
lastChange = "2012-06-10 13:56:22 +0000";
layers = (
{
anchors = (
{
name = bottom;
position = "{704, 0}";
},
{
name = ogonek;
position = "{1266, 10}";
},
{
name = top;
position = "{704, 1455}";
}
);
layerId = "013FA67F-D7C9-4F04-AAC6-32032829ED9A";
name = Bold;
paths = (
{
closed = 1;
nodes = (
"406 1484 LINE",
"552 1464 OFFCURVE",
"699 1454 OFFCURVE",
"848 1454 CURVE SMOOTH",
"999 1454 OFFCURVE",
"1158 1465 OFFCURVE",
"1326 1485 CURVE",
"1312 1402 LINE SMOOTH",
"1307 1371 OFFCURVE",
"1300 1328 OFFCURVE",
"1296 1297 CURVE",
"1141 1281 OFFCURVE",
"995 1274 OFFCURVE",
"855 1274 CURVE SMOOTH",
"760 1274 OFFCURVE",
"684 1276 OFFCURVE",
"591 1281 CURVE",
"588 1212 OFFCURVE",
"584 1146 OFFCURVE",
"579 1083 CURVE SMOOTH",
"574 1019 OFFCURVE",
"570 952 OFFCURVE",
"565 883 CURVE",
"641 882 OFFCURVE",
"710 881 OFFCURVE",
"787 881 CURVE SMOOTH",
"924 881 OFFCURVE",
"1081 884 OFFCURVE",
"1218 887 CURVE",
"1211 848 OFFCURVE",
"1205 792 OFFCURVE",
"1202 753 CURVE",
"1202 748 OFFCURVE",
"1202 739 OFFCURVE",
"1201 728 CURVE SMOOTH",
"1200 717 OFFCURVE",
"1200 708 OFFCURVE",
"1200 703 CURVE",
"1146 703 OFFCURVE",
"1089 703 OFFCURVE",
"1028 703 CURVE SMOOTH",
"967 702 OFFCURVE",
"910 702 OFFCURVE",
"856 702 CURVE SMOOTH",
"549 702 LINE",
"544 639 OFFCURVE",
"539 581 OFFCURVE",
"533 523 CURVE SMOOTH",
"530 494 OFFCURVE",
"526 464 OFFCURVE",
"523 435 CURVE SMOOTH",
"520 406 OFFCURVE",
"516 375 OFFCURVE",
"513 344 CURVE",
"598 347 OFFCURVE",
"681 349 OFFCURVE",
"765 349 CURVE SMOOTH",
"909 349 OFFCURVE",
"1059 343 OFFCURVE",
"1220 330 CURVE",
"1217 283 OFFCURVE",
"1216 225 OFFCURVE",
"1215 169 CURVE SMOOTH",
"1214 140 OFFCURVE",
"1214 112 OFFCURVE",
"1214 84 CURVE SMOOTH",
"1214 56 OFFCURVE",
"1214 30 OFFCURVE",
"1214 7 CURVE",
"1049 27 OFFCURVE",
"891 37 OFFCURVE",
"742 37 CURVE SMOOTH",
"589 37 OFFCURVE",
"426 26 OFFCURVE",
"254 7 CURVE",
"338 503 OFFCURVE",
"379 985 OFFCURVE",
"383 1465 CURVE"
);
}
);
width = 1407;
}
);
unicode = 0045;
},
{
glyphname = F;
lastChange = "2012-06-10 13:56:22 +0000";
layers = (
{
layerId = "013FA67F-D7C9-4F04-AAC6-32032829ED9A";
name = Bold;
paths = (
{
closed = 1;
nodes = (
"418 1478 LINE",
"535 1462 OFFCURVE",
"653 1454 OFFCURVE",
"772 1454 CURVE SMOOTH",
"909 1454 OFFCURVE",
"1056 1465 OFFCURVE",
"1216 1488 CURVE",
"1214 1475 OFFCURVE",
"1212 1459 OFFCURVE",
"1209 1442 CURVE SMOOTH",
"1206 1425 OFFCURVE",
"1204 1407 OFFCURVE",
"1201 1389 CURVE SMOOTH",
"1198 1370 OFFCURVE",
"1196 1352 OFFCURVE",
"1193 1335 CURVE SMOOTH",
"1190 1318 OFFCURVE",
"1188 1302 OFFCURVE",
"1186 1289 CURVE",
"1038 1272 OFFCURVE",
"897 1264 OFFCURVE",
"758 1264 CURVE SMOOTH",
"699 1264 OFFCURVE",
"656 1264 OFFCURVE",
"599 1267 CURVE",
"595 1234 OFFCURVE",
"591 1201 OFFCURVE",
"588 1170 CURVE SMOOTH",
"581 1107 OFFCURVE",
"574 1046 OFFCURVE",
"566 983 CURVE SMOOTH",
"562 951 OFFCURVE",
"558 918 OFFCURVE",
"554 884 CURVE",
"563 884 OFFCURVE",
"574 884 OFFCURVE",
"587 884 CURVE",
"600 883 OFFCURVE",
"611 883 OFFCURVE",
"620 883 CURVE SMOOTH",
"709 883 LINE SMOOTH",
"829 883 OFFCURVE",
"968 885 OFFCURVE",
"1088 888 CURVE",
"1085 868 OFFCURVE",
"1083 843 OFFCURVE",
"1080 817 CURVE",
"1079 804 OFFCURVE",
"1077 791 OFFCURVE",
"1076 779 CURVE SMOOTH",
"1075 766 OFFCURVE",
"1074 755 OFFCURVE",
"1073 745 CURVE SMOOTH",
"1065 666 LINE",
"1036 667 OFFCURVE",
"1005 667 OFFCURVE",
"970 667 CURVE SMOOTH",
"935 667 OFFCURVE",
"903 667 OFFCURVE",
"874 667 CURVE SMOOTH",
"845 667 OFFCURVE",
"816 667 OFFCURVE",
"787 667 CURVE SMOOTH",
"758 666 OFFCURVE",
"729 666 OFFCURVE",
"700 666 CURVE SMOOTH",
"544 666 LINE",
"531 459 OFFCURVE",
"515 240 OFFCURVE",
"495 33 CURVE",
"411 26 OFFCURVE",
"323 21 OFFCURVE",
"227 6 CURVE",
"320 499 OFFCURVE",
"372 984 OFFCURVE",
"395 1460 CURVE"
);
}
);
width = 1108;
}
);
unicode = 0046;
},
{
glyphname = G;
lastChange = "2012-06-10 13:56:22 +0000";
layers = (
{
anchors = (
{
name = bottom;
position = "{846, 0}";
},
{
name = top;
position = "{846, 1455}";
}
);
layerId = "013FA67F-D7C9-4F04-AAC6-32032829ED9A";
name = Bold;
paths = (
{
closed = 1;
nodes = (
"1117 392 LINE",
"1115 389 LINE",
"1116 390 OFFCURVE",
"1117 391 OFFCURVE",
"1117 391 CURVE"
);
},
{
closed = 1;
nodes = (
"832 335 LINE",
"856 336 OFFCURVE",
"881 336 OFFCURVE",
"908 337 CURVE",
"960 337 OFFCURVE",
"1013 344 OFFCURVE",
"1058 360 CURVE SMOOTH",
"1080 367 OFFCURVE",
"1099 379 OFFCURVE",
"1115 394 CURVE SMOOTH",
"1117 396 LINE",
"1118 419 OFFCURVE",
"1120 443 OFFCURVE",
"1121 466 CURVE SMOOTH",
"1122 489 OFFCURVE",
"1124 512 OFFCURVE",
"1125 535 CURVE",
"1078 536 OFFCURVE",
"1029 537 OFFCURVE",
"978 537 CURVE SMOOTH",
"927 537 OFFCURVE",
"878 537 OFFCURVE",
"832 537 CURVE",
"851 760 LINE",
"1111 760 LINE SMOOTH",
"1152 760 OFFCURVE",
"1196 760 OFFCURVE",
"1243 761 CURVE SMOOTH",
"1290 761 OFFCURVE",
"1333 761 OFFCURVE",
"1374 761 CURVE",
"1355 552 OFFCURVE",
"1345 350 OFFCURVE",
"1345 150 CURVE",
"1180 45 OFFCURVE",
"995 10 OFFCURVE",
"818 10 CURVE SMOOTH",
"722 10 OFFCURVE",
"620 20 OFFCURVE",
"527 48 CURVE SMOOTH",
"434 76 OFFCURVE",
"348 123 OFFCURVE",
"283 196 CURVE",
"236 253 OFFCURVE",
"206 321 OFFCURVE",
"186 394 CURVE SMOOTH",
"166 466 OFFCURVE",
"158 542 OFFCURVE",
"158 617 CURVE SMOOTH",
"158 722 OFFCURVE",
"168 847 OFFCURVE",
"201 968 CURVE SMOOTH",
"233 1088 OFFCURVE",
"287 1204 OFFCURVE",
"378 1292 CURVE SMOOTH",
"451 1360 OFFCURVE",
"544 1408 OFFCURVE",
"641 1438 CURVE SMOOTH",
"738 1468 OFFCURVE",
"840 1481 OFFCURVE",
"932 1481 CURVE SMOOTH",
"1015 1481 OFFCURVE",
"1099 1475 OFFCURVE",
"1182 1457 CURVE SMOOTH",
"1265 1439 OFFCURVE",
"1344 1409 OFFCURVE",
"1417 1362 CURVE",
"1408 1309 LINE SMOOTH",
"1406 1299 OFFCURVE",
"1404 1287 OFFCURVE",
"1402 1273 CURVE SMOOTH",
"1400 1258 OFFCURVE",
"1398 1244 OFFCURVE",
"1396 1229 CURVE",
"1391 1200 OFFCURVE",
"1387 1169 OFFCURVE",
"1384 1149 CURVE",
"1255 1268 OFFCURVE",
"1094 1322 OFFCURVE",
"938 1322 CURVE SMOOTH",
"871 1322 OFFCURVE",
"799 1315 OFFCURVE",
"729 1295 CURVE SMOOTH",
"659 1275 OFFCURVE",
"593 1243 OFFCURVE",
"540 1194 CURVE",
"477 1126 OFFCURVE",
"437 1043 OFFCURVE",
"412 957 CURVE SMOOTH",
"387 871 OFFCURVE",
"378 782 OFFCURVE",
"378 703 CURVE SMOOTH",
"378 651 OFFCURVE",
"381 596 OFFCURVE",
"394 547 CURVE SMOOTH",
"407 498 OFFCURVE",
"429 453 OFFCURVE",
"469 420 CURVE",
"468 421 LINE",
"517 385 OFFCURVE",
"578 364 OFFCURVE",
"640 352 CURVE SMOOTH",
"702 340 OFFCURVE",
"768 336 OFFCURVE",
"832 335 CURVE SMOOTH",
"833 335 LINE"
);
}
);
width = 1692;
}
);
unicode = 0047;
},
{
glyphname = H;
lastChange = "2012-06-10 13:56:22 +0000";
layers = (
{
anchors = (
{
name = center;
position = "{844, 728}";
},
{
name = top;
position = "{844, 1455}";
}
);
layerId = "013FA67F-D7C9-4F04-AAC6-32032829ED9A";
name = Bold;
paths = (
{
closed = 1;
nodes = (
"417 1482 LINE",
"476 1473 OFFCURVE",
"545 1467 OFFCURVE",
"618 1464 CURVE",
"611 1237 OFFCURVE",
"600 1017 OFFCURVE",
"580 789 CURVE",
"594 789 OFFCURVE",
"606 789 OFFCURVE",
"617 789 CURVE",
"628 788 OFFCURVE",
"640 788 OFFCURVE",
"654 788 CURVE SMOOTH",
"750 788 LINE SMOOTH",
"905 788 OFFCURVE",
"1040 789 OFFCURVE",
"1195 790 CURVE",
"1214 1010 OFFCURVE",
"1242 1246 OFFCURVE",
"1278 1465 CURVE",
"1369 1472 LINE SMOOTH",
"1388 1473 OFFCURVE",
"1413 1475 OFFCURVE",
"1438 1478 CURVE",
"1451 1479 OFFCURVE",
"1463 1481 OFFCURVE",
"1475 1482 CURVE SMOOTH",
"1487 1483 OFFCURVE",
"1498 1484 OFFCURVE",
"1507 1485 CURVE",
"1432 1057 OFFCURVE",
"1392 644 OFFCURVE",
"1392 240 CURVE SMOOTH",
"1392 168 OFFCURVE",
"1394 78 OFFCURVE",
"1397 7 CURVE",
"1364 11 OFFCURVE",
"1320 15 OFFCURVE",
"1276 19 CURVE",
"1254 20 OFFCURVE",
"1232 22 OFFCURVE",
"1211 24 CURVE",
"1190 25 OFFCURVE",
"1170 27 OFFCURVE",
"1153 28 CURVE",
"1154 188 OFFCURVE",
"1159 345 OFFCURVE",
"1170 504 CURVE",
"1119 505 OFFCURVE",
"1068 506 OFFCURVE",
"1017 506 CURVE SMOOTH",
"966 506 OFFCURVE",
"915 506 OFFCURVE",
"864 506 CURVE SMOOTH",
"809 506 OFFCURVE",
"758 506 OFFCURVE",
"709 506 CURVE SMOOTH",
"660 506 OFFCURVE",
"609 505 OFFCURVE",
"554 504 CURVE",
"537 351 OFFCURVE",
"516 181 OFFCURVE",
"493 28 CURVE",
"458 25 OFFCURVE",
"414 22 OFFCURVE",
"369 18 CURVE SMOOTH",
"346 16 OFFCURVE",
"324 14 OFFCURVE",
"303 13 CURVE",
"281 11 OFFCURVE",
"261 9 OFFCURVE",
"244 7 CURVE",
"345 503 OFFCURVE",
"389 983 OFFCURVE",
"394 1463 CURVE"
);
}
);
width = 1688;
}
);
unicode = 0048;
},
{
glyphname = I;
lastChange = "2012-06-10 13:56:22 +0000";
layers = (
{
anchors = (
{
name = ogonek;
position = "{605, 10}";
},
{
name = top;
position = "{336, 1455}";
}
);
layerId = "013FA67F-D7C9-4F04-AAC6-32032829ED9A";
name = Bold;
paths = (
{
closed = 1;
nodes = (
"365 1467 LINE",
"388 1460 OFFCURVE",
"411 1455 OFFCURVE",
"434 1455 CURVE SMOOTH",
"463 1455 OFFCURVE",
"501 1466 OFFCURVE",
"548 1487 CURVE",
"527 1250 OFFCURVE",
"506 996 OFFCURVE",
"487 742 CURVE SMOOTH",
"467 488 OFFCURVE",
"451 233 OFFCURVE",
"438 -4 CURVE",
"392 23 OFFCURVE",
"351 37 OFFCURVE",
"316 37 CURVE SMOOTH",
"281 37 OFFCURVE",
"235 22 OFFCURVE",
"180 -5 CURVE",
"240 471 OFFCURVE",
"294 975 OFFCURVE",
"339 1451 CURVE"
);
}
);
width = 672;
}
);
unicode = 0049;
},
{
glyphname = J;
lastChange = "2012-06-10 13:56:22 +0000";
layers = (
{
anchors = (
{
name = top;
position = "{414, 1455}";
}
);
layerId = "013FA67F-D7C9-4F04-AAC6-32032829ED9A";
name = Bold;
paths = (
{
closed = 1;
nodes = (
"575 1453 LINE",
"636 1456 OFFCURVE",
"698 1459 OFFCURVE",
"787 1478 CURVE",
"711 1021 OFFCURVE",
"650 543 OFFCURVE",
"599 86 CURVE SMOOTH",
"592 25 OFFCURVE",
"585 -40 OFFCURVE",
"567 -102 CURVE SMOOTH",
"549 -164 OFFCURVE",
"518 -223 OFFCURVE",
"469 -272 CURVE",
"426 -308 OFFCURVE",
"378 -331 OFFCURVE",
"329 -347 CURVE SMOOTH",
"280 -363 OFFCURVE",
"227 -373 OFFCURVE",
"178 -381 CURVE SMOOTH",
"128 -390 LINE",
"111 -390 OFFCURVE",
"86 -392 OFFCURVE",
"62 -395 CURVE",
"50 -396 OFFCURVE",
"38 -398 OFFCURVE",
"27 -399 CURVE SMOOTH",
"15 -400 OFFCURVE",
"5 -401 OFFCURVE",
"-4 -402 CURVE",
"7 -326 OFFCURVE",
"17 -228 OFFCURVE",
"25 -152 CURVE SMOOTH",
"26 -140 OFFCURVE",
"28 -124 OFFCURVE",
"30 -105 CURVE",
"31 -86 OFFCURVE",
"33 -70 OFFCURVE",
"34 -58 CURVE",
"94 -63 LINE",
"134 -66 LINE",
"186 -58 OFFCURVE",
"244 -43 OFFCURVE",
"292 -15 CURVE SMOOTH",
"339 13 OFFCURVE",
"376 53 OFFCURVE",
"385 113 CURVE",
"385 112 LINE",
"440 556 OFFCURVE",
"492 992 OFFCURVE",
"556 1436 CURVE"
);
}
);
width = 827;
}
);
unicode = 004A;
},
{
glyphname = K;
lastChange = "2012-06-10 13:56:22 +0000";
layers = (
{
anchors = (
{
name = bottom;
position = "{800, 0}";
},
{
name = top;
position = "{800, 1455}";
}
);
layerId = "013FA67F-D7C9-4F04-AAC6-32032829ED9A";
name = Bold;
paths = (
{
closed = 1;
nodes = (
"427 1479 LINE",
"486 1472 OFFCURVE",
"561 1467 OFFCURVE",
"621 1464 CURVE",
"616 1361 OFFCURVE",
"609 1268 OFFCURVE",
"602 1173 CURVE SMOOTH",
"594 1078 OFFCURVE",
"586 985 OFFCURVE",
"575 882 CURVE",
"732 1023 OFFCURVE",
"892 1163 OFFCURVE",
"1053 1300 CURVE SMOOTH",
"1083 1326 OFFCURVE",
"1114 1353 OFFCURVE",
"1147 1382 CURVE SMOOTH",
"1180 1410 OFFCURVE",
"1211 1437 OFFCURVE",
"1241 1463 CURVE",
"1301 1466 OFFCURVE",
"1363 1469 OFFCURVE",
"1423 1474 CURVE SMOOTH",
"1530 1481 LINE",
"1228 1218 LINE SMOOTH",
"1147 1148 OFFCURVE",
"1067 1077 OFFCURVE",
"986 1006 CURVE SMOOTH",
"905 935 OFFCURVE",
"824 864 OFFCURVE",
"743 793 CURVE",
"752 782 OFFCURVE",
"762 770 OFFCURVE",
"772 759 CURVE SMOOTH",
"782 748 OFFCURVE",
"792 736 OFFCURVE",
"801 725 CURVE",
"900 614 OFFCURVE",
"1014 488 OFFCURVE",
"1127 362 CURVE SMOOTH",
"1240 236 OFFCURVE",
"1354 111 OFFCURVE",
"1453 4 CURVE",
"1273 23 OFFCURVE",
"1111 33 OFFCURVE",
"959 36 CURVE",
"883 149 OFFCURVE",
"818 253 OFFCURVE",
"754 358 CURVE SMOOTH",
"690 462 OFFCURVE",
"627 568 OFFCURVE",
"558 685 CURVE",
"549 468 OFFCURVE",
"534 242 OFFCURVE",
"514 29 CURVE",
"495 28 OFFCURVE",
"473 26 OFFCURVE",
"449 25 CURVE",
"425 23 OFFCURVE",
"401 21 OFFCURVE",
"376 20 CURVE",
"326 16 OFFCURVE",
"276 11 OFFCURVE",
"236 7 CURVE",
"341 504 OFFCURVE",
"396 984 OFFCURVE",
"405 1460 CURVE"
);
}
);
width = 1599;
}
);
unicode = 004B;
},
{
glyphname = L;
lastChange = "2012-06-10 13:56:22 +0000";
layers = (
{
anchors = (
{
name = bottom;
position = "{602, 0}";
},
{
name = top;
position = "{602, 1455}";
}
);
layerId = "013FA67F-D7C9-4F04-AAC6-32032829ED9A";
name = Bold;
paths = (
{
closed = 1;
nodes = (
"413 1481 LINE",
"472 1472 OFFCURVE",
"532 1465 OFFCURVE",
"604 1462 CURVE",
"585 1087 OFFCURVE",
"557 719 OFFCURVE",
"510 344 CURVE",
"590 347 OFFCURVE",
"670 349 OFFCURVE",
"750 349 CURVE SMOOTH",
"889 349 OFFCURVE",
"1031 343 OFFCURVE",
"1187 330 CURVE",
"1182 283 OFFCURVE",
"1176 227 OFFCURVE",
"1172 171 CURVE SMOOTH",
"1167 114 OFFCURVE",
"1163 58 OFFCURVE",
"1160 11 CURVE",
"1008 28 OFFCURVE",
"862 37 OFFCURVE",
"717 37 CURVE SMOOTH",
"567 37 OFFCURVE",
"408 27 OFFCURVE",
"240 7 CURVE",
"331 500 OFFCURVE",
"378 988 OFFCURVE",
"390 1463 CURVE"
);
}
);
width = 1204;
}
);
unicode = 004C;
},
{
glyphname = M;
lastChange = "2012-06-10 13:56:22 +0000";
layers = (
{
layerId = "013FA67F-D7C9-4F04-AAC6-32032829ED9A";
name = Bold;
paths = (
{
closed = 1;
nodes = (
"426 1481 LINE",
"518 1472 OFFCURVE",
"620 1465 OFFCURVE",
"711 1461 CURVE",
"766 1321 OFFCURVE",
"815 1189 OFFCURVE",
"861 1055 CURVE SMOOTH",
"907 921 OFFCURVE",
"951 786 OFFCURVE",
"996 643 CURVE",
"1053 752 LINE SMOOTH",
"1176 987 OFFCURVE",
"1306 1236 OFFCURVE",
"1445 1463 CURVE",
"1488 1464 OFFCURVE",
"1540 1468 OFFCURVE",
"1592 1472 CURVE SMOOTH",
"1618 1474 OFFCURVE",
"1644 1476 OFFCURVE",
"1669 1478 CURVE",
"1694 1479 OFFCURVE",
"1718 1481 OFFCURVE",
"1740 1483 CURVE",
"1668 1095 OFFCURVE",
"1628 722 OFFCURVE",
"1628 354 CURVE SMOOTH",
"1628 245 OFFCURVE",
"1632 116 OFFCURVE",
"1639 8 CURVE",
"1600 12 OFFCURVE",
"1553 15 OFFCURVE",
"1505 19 CURVE",
"1481 20 OFFCURVE",
"1458 22 OFFCURVE",
"1435 23 CURVE SMOOTH",
"1412 24 OFFCURVE",
"1390 26 OFFCURVE",
"1371 27 CURVE",
"1378 431 OFFCURVE",
"1421 820 OFFCURVE",
"1488 1205 CURVE",
"1364 942 OFFCURVE",
"1257 679 OFFCURVE",
"1148 411 CURVE",
"1148 412 LINE",
"1139 389 OFFCURVE",
"1128 363 OFFCURVE",
"1117 336 CURVE SMOOTH",
"1105 308 OFFCURVE",
"1094 282 OFFCURVE",
"1085 259 CURVE",
"1018 259 LINE SMOOTH",
"1009 259 OFFCURVE",
"1001 259 OFFCURVE",
"992 260 CURVE",
"983 260 OFFCURVE",
"974 260 OFFCURVE",
"965 260 CURVE SMOOTH",
"956 260 OFFCURVE",
"947 260 OFFCURVE",
"938 260 CURVE",
"929 259 OFFCURVE",
"919 259 OFFCURVE",
"910 259 CURVE SMOOTH",
"843 259 LINE",
"781 513 LINE SMOOTH",
"728 742 OFFCURVE",
"669 983 OFFCURVE",
"601 1211 CURVE",
"600 819 OFFCURVE",
"571 426 OFFCURVE",
"518 26 CURVE",
"479 25 OFFCURVE",
"430 22 OFFCURVE",
"381 19 CURVE SMOOTH",
"332 15 OFFCURVE",
"283 12 OFFCURVE",
"244 8 CURVE",
"356 501 OFFCURVE",
"405 987 OFFCURVE",
"405 1462 CURVE"
);
}
);
width = 1929;
}
);
unicode = 004D;
},
{
glyphname = N;
lastChange = "2012-06-10 13:56:22 +0000";
layers = (
{
anchors = (
{
name = bottom;
position = "{837, 0}";
},
{
name = top;
position = "{837, 1455}";
}
);
layerId = "013FA67F-D7C9-4F04-AAC6-32032829ED9A";
name = Bold;
paths = (
{
closed = 1;
nodes = (
"420 1450 LINE",
"483 1442 OFFCURVE",
"543 1438 OFFCURVE",
"607 1434 CURVE",
"606 1434 LINE",
"613 1434 OFFCURVE",
"621 1434 OFFCURVE",
"631 1433 CURVE SMOOTH",
"641 1432 OFFCURVE",
"649 1432 OFFCURVE",
"656 1432 CURVE",
"764 1220 OFFCURVE",
"864 993 OFFCURVE",
"960 776 CURVE SMOOTH",
"978 735 OFFCURVE",
"995 698 OFFCURVE",
"1010 663 CURVE SMOOTH",
"1041 594 OFFCURVE",
"1070 528 OFFCURVE",
"1102 460 CURVE SMOOTH",
"1118 425 OFFCURVE",
"1136 388 OFFCURVE",
"1155 347 CURVE",
"1183 718 OFFCURVE",
"1229 1092 OFFCURVE",
"1301 1468 CURVE",
"1314 1469 OFFCURVE",
"1330 1470 OFFCURVE",
"1348 1472 CURVE",
"1365 1473 OFFCURVE",
"1384 1475 OFFCURVE",
"1403 1477 CURVE",
"1422 1478 OFFCURVE",
"1440 1480 OFFCURVE",
"1458 1482 CURVE SMOOTH",
"1475 1484 OFFCURVE",
"1491 1486 OFFCURVE",
"1504 1487 CURVE",
"1420 1030 OFFCURVE",
"1373 582 OFFCURVE",
"1373 143 CURVE SMOOTH",
"1373 104 OFFCURVE",
"1374 47 OFFCURVE",
"1375 8 CURVE",
"1331 13 OFFCURVE",
"1278 18 OFFCURVE",
"1225 22 CURVE SMOOTH",
"1172 26 OFFCURVE",
"1119 29 OFFCURVE",
"1075 32 CURVE",
"966 251 OFFCURVE",
"865 482 OFFCURVE",
"768 707 CURVE SMOOTH",
"733 790 OFFCURVE",
"699 871 OFFCURVE",
"666 951 CURVE SMOOTH",
"633 1030 OFFCURVE",
"598 1111 OFFCURVE",
"561 1192 CURVE",
"558 808 OFFCURVE",
"538 428 OFFCURVE",
"501 29 CURVE",
"482 28 OFFCURVE",
"460 26 OFFCURVE",
"437 25 CURVE",
"414 23 OFFCURVE",
"390 21 OFFCURVE",
"366 20 CURVE",
"317 16 OFFCURVE",
"268 11 OFFCURVE",
"229 7 CURVE",
"333 494 OFFCURVE",
"385 964 OFFCURVE",
"398 1431 CURVE"
);
}
);
width = 1673;
}
);
unicode = 004E;
},
{
glyphname = O;
lastChange = "2012-06-10 13:56:22 +0000";
layers = (
{
anchors = (
{
name = top;
position = "{867, 1455}";
}
);
layerId = "013FA67F-D7C9-4F04-AAC6-32032829ED9A";
name = Bold;
paths = (
{
closed = 1;
nodes = (
"801 1305 OFFCURVE",
"738 1294 OFFCURVE",
"680 1270 CURVE SMOOTH",
"622 1246 OFFCURVE",
"569 1210 OFFCURVE",
"528 1158 CURVE SMOOTH",
"472 1091 OFFCURVE",
"436 1010 OFFCURVE",
"413 926 CURVE SMOOTH",
"390 841 OFFCURVE",
"381 754 OFFCURVE",
"381 675 CURVE SMOOTH",
"381 632 OFFCURVE",
"385 590 OFFCURVE",
"398 552 CURVE SMOOTH",
"410 514 OFFCURVE",
"431 480 OFFCURVE",
"466 459 CURVE SMOOTH",
"510 431 OFFCURVE",
"562 414 OFFCURVE",
"615 404 CURVE SMOOTH",
"667 394 OFFCURVE",
"722 390 OFFCURVE",
"777 390 CURVE SMOOTH",
"884 390 OFFCURVE",
"1003 408 OFFCURVE",
"1099 460 CURVE",
"1162 500 OFFCURVE",
"1196 568 OFFCURVE",
"1216 640 CURVE SMOOTH",
"1235 711 OFFCURVE",
"1239 787 OFFCURVE",
"1239 843 CURVE SMOOTH",
"1239 958 OFFCURVE",
"1221 1069 OFFCURVE",
"1164 1162 CURVE",
"1164 1161 LINE",
"1097 1257 OFFCURVE",
"983 1305 OFFCURVE",
"862 1305 CURVE SMOOTH"
);
},
{
closed = 1;
nodes = (
"962 1480 OFFCURVE",
"1052 1467 OFFCURVE",
"1133 1436 CURVE SMOOTH",
"1214 1405 OFFCURVE",
"1287 1358 OFFCURVE",
"1340 1287 CURVE SMOOTH",
"1384 1228 OFFCURVE",
"1413 1162 OFFCURVE",
"1431 1091 CURVE SMOOTH",
"1449 1019 OFFCURVE",
"1455 944 OFFCURVE",
"1455 871 CURVE SMOOTH",
"1455 760 OFFCURVE",
"1443 639 OFFCURVE",
"1411 523 CURVE SMOOTH",
"1379 406 OFFCURVE",
"1326 294 OFFCURVE",
"1245 201 CURVE",
"1177 129 OFFCURVE",
"1095 80 OFFCURVE",
"1007 51 CURVE SMOOTH",
"919 22 OFFCURVE",
"825 10 OFFCURVE",
"734 10 CURVE SMOOTH",
"647 10 OFFCURVE",
"561 24 OFFCURVE",
"482 55 CURVE SMOOTH",
"402 86 OFFCURVE",
"332 134 OFFCURVE",
"280 202 CURVE SMOOTH",
"236 259 OFFCURVE",
"208 326 OFFCURVE",
"190 398 CURVE SMOOTH",
"172 469 OFFCURVE",
"164 543 OFFCURVE",
"164 618 CURVE SMOOTH",
"164 725 OFFCURVE",
"173 847 OFFCURVE",
"204 965 CURVE SMOOTH",
"235 1083 OFFCURVE",
"287 1197 OFFCURVE",
"374 1288 CURVE",
"373 1288 LINE",
"438 1359 OFFCURVE",
"519 1408 OFFCURVE",
"606 1438 CURVE SMOOTH",
"693 1468 OFFCURVE",
"785 1480 OFFCURVE",
"874 1480 CURVE SMOOTH"
);
}
);
width = 1733;
}
);
unicode = 004F;
},
{
glyphname = P;
lastChange = "2012-06-10 13:56:22 +0000";
layers = (
{
layerId = "013FA67F-D7C9-4F04-AAC6-32032829ED9A";
name = Bold;
paths = (
{
closed = 1;
nodes = (
"627 1376 LINE",
"625 1357 LINE",
"622 1357 OFFCURVE",
"620 1357 OFFCURVE",
"617 1357 CURVE SMOOTH",
"614 1357 OFFCURVE",
"610 1357 OFFCURVE",
"607 1358 CURVE"
);
},
{
closed = 1;
nodes = (
"781 1354 OFFCURVE",
"704 1354 OFFCURVE",
"625 1357 CURVE",
"610 1182 OFFCURVE",
"595 1025 OFFCURVE",
"575 849 CURVE",
"663 848 OFFCURVE",
"750 847 OFFCURVE",
"838 847 CURVE SMOOTH",
"907 847 OFFCURVE",
"978 876 OFFCURVE",
"1030 924 CURVE SMOOTH",
"1082 972 OFFCURVE",
"1118 1038 OFFCURVE",
"1119 1111 CURVE",
"1121 1126 OFFCURVE",
"1122 1140 OFFCURVE",
"1122 1154 CURVE SMOOTH",
"1122 1238 OFFCURVE",
"1084 1289 OFFCURVE",
"1032 1318 CURVE SMOOTH",
"980 1346 OFFCURVE",
"914 1354 OFFCURVE",
"861 1354 CURVE SMOOTH"
);
},
{
closed = 1;
nodes = (
"427 1476 LINE",
"567 1460 OFFCURVE",
"707 1455 OFFCURVE",
"848 1455 CURVE SMOOTH",
"904 1455 OFFCURVE",
"960 1452 OFFCURVE",
"1015 1443 CURVE SMOOTH",
"1070 1434 OFFCURVE",
"1122 1417 OFFCURVE",
"1170 1389 CURVE",
"1218 1357 OFFCURVE",
"1250 1315 OFFCURVE",
"1270 1268 CURVE SMOOTH",
"1289 1221 OFFCURVE",
"1297 1169 OFFCURVE",
"1297 1117 CURVE SMOOTH",
"1297 1046 OFFCURVE",
"1286 969 OFFCURVE",
"1261 895 CURVE SMOOTH",
"1236 821 OFFCURVE",
"1195 750 OFFCURVE",
"1138 697 CURVE SMOOTH",
"1087 650 OFFCURVE",
"1029 622 OFFCURVE",
"966 604 CURVE SMOOTH",
"903 586 OFFCURVE",
"838 580 OFFCURVE",
"775 580 CURVE SMOOTH",
"736 580 OFFCURVE",
"700 580 OFFCURVE",
"667 580 CURVE SMOOTH",
"634 580 OFFCURVE",
"597 580 OFFCURVE",
"558 579 CURVE",
"535 400 OFFCURVE",
"507 207 OFFCURVE",
"476 30 CURVE",
"440 27 OFFCURVE",
"394 24 OFFCURVE",
"347 20 CURVE SMOOTH",
"300 16 OFFCURVE",
"253 11 OFFCURVE",
"217 7 CURVE",
"325 500 OFFCURVE",
"381 983 OFFCURVE",
"405 1458 CURVE"
);
}
);
width = 1276;
}
);
unicode = 0050;
},
{
glyphname = Q;
lastChange = "2012-06-10 13:56:22 +0000";
layers = (
{
layerId = "013FA67F-D7C9-4F04-AAC6-32032829ED9A";
name = Bold;
paths = (
{
closed = 1;
nodes = (
"674 1299 OFFCURVE",
"552 1255 OFFCURVE",
"467 1154 CURVE SMOOTH",
"412 1089 OFFCURVE",
"377 1010 OFFCURVE",
"354 928 CURVE SMOOTH",
"330 846 OFFCURVE",
"321 761 OFFCURVE",
"321 685 CURVE SMOOTH",
"321 641 OFFCURVE",
"325 596 OFFCURVE",
"338 556 CURVE SMOOTH",
"350 516 OFFCURVE",
"373 482 OFFCURVE",
"409 459 CURVE SMOOTH",
"492 407 OFFCURVE",
"575 389 OFFCURVE",
"679 373 CURVE",
"716 426 LINE",
"723 437 OFFCURVE",
"732 450 OFFCURVE",
"743 465 CURVE",
"753 480 OFFCURVE",
"762 493 OFFCURVE",
"769 504 CURVE",
"844 468 OFFCURVE",
"914 446 OFFCURVE",
"986 435 CURVE",
"1065 475 OFFCURVE",
"1114 537 OFFCURVE",
"1143 610 CURVE SMOOTH",
"1172 682 OFFCURVE",
"1182 764 OFFCURVE",
"1182 844 CURVE SMOOTH",
"1182 956 OFFCURVE",
"1164 1063 OFFCURVE",
"1105 1154 CURVE SMOOTH",
"1073 1203 OFFCURVE",
"1027 1239 OFFCURVE",
"975 1263 CURVE SMOOTH",
"922 1287 OFFCURVE",
"861 1299 OFFCURVE",
"801 1299 CURVE SMOOTH"
);
},
{
closed = 1;
nodes = (
"1237 262 OFFCURVE",
"1187 186 OFFCURVE",
"1123 118 CURVE",
"1192 30 OFFCURVE",
"1263 -56 OFFCURVE",
"1336 -141 CURVE SMOOTH",
"1341 -147 OFFCURVE",
"1348 -155 OFFCURVE",
"1357 -165 CURVE",
"1365 -175 OFFCURVE",
"1374 -185 OFFCURVE",
"1383 -196 CURVE SMOOTH",
"1392 -207 OFFCURVE",
"1401 -218 OFFCURVE",
"1410 -228 CURVE",
"1418 -238 OFFCURVE",
"1425 -246 OFFCURVE",
"1430 -252 CURVE",
"1258 -234 OFFCURVE",
"1095 -223 OFFCURVE",
"940 -219 CURVE",
"896 -166 LINE",
"897 -166 LINE",
"872 -135 OFFCURVE",
"848 -106 OFFCURVE",
"825 -79 CURVE SMOOTH",
"802 -52 OFFCURVE",
"778 -22 OFFCURVE",
"753 9 CURVE",
"734 7 OFFCURVE",
"713 6 OFFCURVE",
"690 6 CURVE SMOOTH",
"601 6 OFFCURVE",
"512 18 OFFCURVE",
"432 49 CURVE SMOOTH",
"352 80 OFFCURVE",
"281 127 OFFCURVE",
"228 199 CURVE SMOOTH",
"181 263 OFFCURVE",
"152 335 OFFCURVE",
"133 412 CURVE SMOOTH",
"113 488 OFFCURVE",
"106 569 OFFCURVE",
"106 649 CURVE SMOOTH",
"106 753 OFFCURVE",
"116 869 OFFCURVE",
"147 981 CURVE SMOOTH",
"178 1092 OFFCURVE",
"229 1198 OFFCURVE",
"312 1285 CURVE SMOOTH",
"376 1352 OFFCURVE",
"454 1399 OFFCURVE",
"538 1430 CURVE SMOOTH",
"621 1461 OFFCURVE",
"710 1474 OFFCURVE",
"795 1474 CURVE SMOOTH",
"884 1474 OFFCURVE",
"978 1460 OFFCURVE",
"1063 1429 CURVE SMOOTH",
"1148 1398 OFFCURVE",
"1226 1350 OFFCURVE",
"1282 1281 CURVE SMOOTH",
"1326 1225 OFFCURVE",
"1354 1160 OFFCURVE",
"1373 1090 CURVE SMOOTH",
"1392 1020 OFFCURVE",
"1399 945 OFFCURVE",
"1399 872 CURVE SMOOTH",
"1399 792 OFFCURVE",
"1393 700 OFFCURVE",
"1376 609 CURVE SMOOTH",
"1359 518 OFFCURVE",
"1330 426 OFFCURVE",
"1286 346 CURVE SMOOTH"
);
}
);
width = 1724;
}
);
unicode = 0051;
},
{
glyphname = R;
lastChange = "2012-06-10 13:56:22 +0000";
layers = (
{
anchors = (
{
name = bottom;
position = "{767, 0}";
},
{
name = top;
position = "{767, 1455}";
}
);
layerId = "013FA67F-D7C9-4F04-AAC6-32032829ED9A";
name = Bold;
paths = (
{
closed = 1;
nodes = (
"1263 1032 OFFCURVE",
"1247 947 OFFCURVE",
"1211 872 CURVE SMOOTH",
"1174 797 OFFCURVE",
"1117 732 OFFCURVE",
"1036 700 CURVE",
"1081 675 OFFCURVE",
"1115 637 OFFCURVE",
"1143 594 CURVE SMOOTH",
"1170 551 OFFCURVE",
"1192 503 OFFCURVE",
"1213 458 CURVE SMOOTH",
"1226 428 LINE",
"1225 429 LINE",
"1253 362 OFFCURVE",
"1286 289 OFFCURVE",
"1320 216 CURVE SMOOTH",
"1354 143 OFFCURVE",
"1387 70 OFFCURVE",
"1419 6 CURVE",
"1376 11 OFFCURVE",
"1323 16 OFFCURVE",
"1269 21 CURVE SMOOTH",
"1215 25 OFFCURVE",
"1160 28 OFFCURVE",
"1117 31 CURVE",
"1073 151 OFFCURVE",
"1029 280 OFFCURVE",
"990 403 CURVE",
"991 401 LINE",
"962 469 OFFCURVE",
"930 538 OFFCURVE",
"877 585 CURVE",
"878 584 LINE",
"831 617 OFFCURVE",
"774 627 OFFCURVE",
"714 627 CURVE SMOOTH",
"689 627 OFFCURVE",
"668 627 OFFCURVE",
"650 627 CURVE SMOOTH",
"631 627 OFFCURVE",
"610 627 OFFCURVE",
"586 626 CURVE",
"567 430 OFFCURVE",
"541 224 OFFCURVE",
"513 28 CURVE",
"477 27 OFFCURVE",
"431 23 OFFCURVE",
"384 19 CURVE SMOOTH",
"337 15 OFFCURVE",
"290 11 OFFCURVE",
"254 7 CURVE",
"342 484 OFFCURVE",
"384 945 OFFCURVE",
"384 1402 CURVE SMOOTH",
"384 1487 LINE",
"545 1466 OFFCURVE",
"692 1459 OFFCURVE",
"836 1456 CURVE SMOOTH",
"937 1453 OFFCURVE",
"1039 1440 OFFCURVE",
"1127 1389 CURVE",
"1178 1354 OFFCURVE",
"1212 1310 OFFCURVE",
"1233 1262 CURVE SMOOTH",
"1254 1213 OFFCURVE",
"1263 1160 OFFCURVE",
"1263 1107 CURVE SMOOTH"
);
},
{
closed = 1;
nodes = (
"615 1362 LINE",
"615 1359 OFFCURVE",
"615 1355 OFFCURVE",
"615 1352 CURVE",
"614 1349 OFFCURVE",
"614 1345 OFFCURVE",
"614 1342 CURVE",
"594 1344 LINE"
);
},
{
closed = 1;
nodes = (
"810 1336 OFFCURVE",
"772 1336 OFFCURVE",
"733 1337 CURVE SMOOTH",
"694 1338 OFFCURVE",
"654 1339 OFFCURVE",
"614 1342 CURVE",
"611 1255 OFFCURVE",
"607 1174 OFFCURVE",
"603 1092 CURVE SMOOTH",
"599 1010 OFFCURVE",
"594 928 OFFCURVE",
"587 841 CURVE",
"624 840 OFFCURVE",
"662 840 OFFCURVE",
"699 840 CURVE SMOOTH",
"736 840 OFFCURVE",
"774 840 OFFCURVE",
"811 840 CURVE SMOOTH",
"868 840 OFFCURVE",
"940 861 OFFCURVE",
"997 897 CURVE SMOOTH",
"1054 933 OFFCURVE",
"1099 985 OFFCURVE",
"1106 1045 CURVE",
"1106 1048 OFFCURVE",
"1106 1051 OFFCURVE",
"1107 1054 CURVE",
"1107 1056 OFFCURVE",
"1107 1059 OFFCURVE",
"1107 1062 CURVE",
"1108 1077 OFFCURVE",
"1109 1091 OFFCURVE",
"1109 1106 CURVE SMOOTH",
"1109 1173 OFFCURVE",
"1095 1238 OFFCURVE",
"1043 1274 CURVE SMOOTH",
"987 1314 OFFCURVE",
"921 1334 OFFCURVE",
"849 1335 CURVE SMOOTH"
);
}
);
width = 1534;
}
);
unicode = 0052;
},
{
glyphname = S;
lastChange = "2012-06-10 13:56:22 +0000";
layers = (
{
anchors = (
{
name = bottom;
position = "{715, 0}";
},
{
name = top;
position = "{715, 1455}";
}
);
layerId = "013FA67F-D7C9-4F04-AAC6-32032829ED9A";
name = Bold;
paths = (
{
closed = 1;
nodes = (
"1237 1355 LINE",
"1236 1346 OFFCURVE",
"1234 1335 OFFCURVE",
"1233 1323 CURVE",
"1231 1310 OFFCURVE",
"1229 1298 OFFCURVE",
"1227 1285 CURVE SMOOTH",
"1223 1260 OFFCURVE",
"1220 1234 OFFCURVE",
"1217 1214 CURVE",
"1088 1269 OFFCURVE",
"957 1305 OFFCURVE",
"828 1305 CURVE SMOOTH",
"751 1305 OFFCURVE",
"670 1295 OFFCURVE",
"595 1255 CURVE",
"597 1256 LINE",
"524 1208 OFFCURVE",
"497 1140 OFFCURVE",
"497 1072 CURVE SMOOTH",
"497 1029 OFFCURVE",
"510 983 OFFCURVE",
"537 954 CURVE",
"564 933 OFFCURVE",
"596 918 OFFCURVE",
"631 907 CURVE SMOOTH",
"666 895 OFFCURVE",
"702 887 OFFCURVE",
"735 879 CURVE",
"794 867 LINE SMOOTH",
"893 847 OFFCURVE",
"991 826 OFFCURVE",
"1079 766 CURVE SMOOTH",
"1131 730 OFFCURVE",
"1167 683 OFFCURVE",
"1191 630 CURVE SMOOTH",
"1214 577 OFFCURVE",
"1225 519 OFFCURVE",
"1225 460 CURVE SMOOTH",
"1225 399 OFFCURVE",
"1218 331 OFFCURVE",
"1196 270 CURVE SMOOTH",
"1174 209 OFFCURVE",
"1136 152 OFFCURVE",
"1079 111 CURVE",
"1011 66 OFFCURVE",
"938 42 OFFCURVE",
"866 28 CURVE SMOOTH",
"794 14 OFFCURVE",
"721 11 OFFCURVE",
"650 10 CURVE SMOOTH",
"497 10 OFFCURVE",
"343 31 OFFCURVE",
"190 78 CURVE",
"198 126 OFFCURVE",
"207 184 OFFCURVE",
"216 243 CURVE SMOOTH",
"224 302 OFFCURVE",
"233 360 OFFCURVE",
"238 408 CURVE",
"378 327 OFFCURVE",
"525 287 OFFCURVE",
"673 287 CURVE SMOOTH",
"757 287 OFFCURVE",
"847 301 OFFCURVE",
"920 348 CURVE SMOOTH",
"941 361 OFFCURVE",
"965 380 OFFCURVE",
"982 401 CURVE SMOOTH",
"999 421 OFFCURVE",
"1012 444 OFFCURVE",
"1012 469 CURVE SMOOTH",
"1012 537 OFFCURVE",
"961 582 OFFCURVE",
"895 614 CURVE SMOOTH",
"829 645 OFFCURVE",
"750 661 OFFCURVE",
"694 672 CURVE SMOOTH",
"661 679 LINE SMOOTH",
"608 690 OFFCURVE",
"554 705 OFFCURVE",
"504 726 CURVE SMOOTH",
"454 747 OFFCURVE",
"407 776 OFFCURVE",
"368 816 CURVE SMOOTH",
"309 880 OFFCURVE",
"290 970 OFFCURVE",
"290 1058 CURVE SMOOTH",
"290 1117 OFFCURVE",
"299 1179 OFFCURVE",
"322 1236 CURVE SMOOTH",
"345 1293 OFFCURVE",
"382 1344 OFFCURVE",
"437 1383 CURVE SMOOTH",
"494 1423 OFFCURVE",
"558 1446 OFFCURVE",
"623 1461 CURVE SMOOTH",
"687 1476 OFFCURVE",
"754 1480 OFFCURVE",
"819 1480 CURVE SMOOTH",
"962 1480 OFFCURVE",
"1100 1463 OFFCURVE",
"1236 1427 CURVE",
"1230 1415 LINE",
"1246 1414 LINE"
);
}
);
width = 1430;
}
);
unicode = 0053;
},
{
glyphname = T;
lastChange = "2012-06-10 13:56:22 +0000";
layers = (
{
anchors = (
{
name = bottom;
position = "{678, 0}";
},
{
name = center;
position = "{678, 728}";
},
{
name = top;
position = "{678, 1455}";
}
);
layerId = "013FA67F-D7C9-4F04-AAC6-32032829ED9A";
name = Bold;
paths = (
{
closed = 1;
nodes = (
"57 1484 LINE",
"251 1464 OFFCURVE",
"446 1454 OFFCURVE",
"643 1454 CURVE SMOOTH",
"854 1454 OFFCURVE",
"1066 1465 OFFCURVE",
"1289 1486 CURVE",
"1278 1420 LINE SMOOTH",
"1275 1402 OFFCURVE",
"1271 1382 OFFCURVE",
"1266 1359 CURVE SMOOTH",
"1261 1336 OFFCURVE",
"1257 1316 OFFCURVE",
"1254 1298 CURVE",
"1153 1294 OFFCURVE",
"1034 1290 OFFCURVE",
"934 1290 CURVE SMOOTH",
"867 1290 OFFCURVE",
"818 1290 OFFCURVE",
"753 1293 CURVE",
"724 877 OFFCURVE",
"695 450 OFFCURVE",
"686 35 CURVE",
"650 36 OFFCURVE",
"594 37 OFFCURVE",
"557 37 CURVE SMOOTH",
"484 37 LINE SMOOTH",
"478 37 OFFCURVE",
"471 37 OFFCURVE",
"462 37 CURVE SMOOTH",
"453 37 OFFCURVE",
"445 37 OFFCURVE",
"436 37 CURVE",
"427 36 OFFCURVE",
"418 36 OFFCURVE",
"409 36 CURVE SMOOTH",
"400 36 OFFCURVE",
"393 36 OFFCURVE",
"387 36 CURVE",
"443 457 OFFCURVE",
"494 871 OFFCURVE",
"538 1292 CURVE",
"523 1292 OFFCURVE",
"506 1292 OFFCURVE",
"489 1292 CURVE SMOOTH",
"453 1291 OFFCURVE",
"417 1290 OFFCURVE",
"382 1290 CURVE SMOOTH",
"364 1290 OFFCURVE",
"348 1290 OFFCURVE",
"333 1290 CURVE SMOOTH",
"241 1290 OFFCURVE",
"129 1292 OFFCURVE",
"37 1299 CURVE",
"37 1348 OFFCURVE",
"36 1416 OFFCURVE",
"35 1465 CURVE"
);
}
);
width = 1356;
}
);
unicode = 0054;
},
{
glyphname = U;
lastChange = "2012-06-10 13:56:22 +0000";
layers = (
{
anchors = (
{
name = ogonek;
position = "{1462, 10}";
},
{
name = top;
position = "{812, 1455}";
}
);
layerId = "013FA67F-D7C9-4F04-AAC6-32032829ED9A";
name = Bold;
paths = (
{
closed = 1;
nodes = (
"301 1483 LINE",
"361 1475 OFFCURVE",
"434 1467 OFFCURVE",
"494 1463 CURVE",
"489 1222 OFFCURVE",
"473 966 OFFCURVE",
"453 723 CURVE SMOOTH",
"450 688 OFFCURVE",
"448 652 OFFCURVE",
"448 619 CURVE SMOOTH",
"448 540 OFFCURVE",
"458 465 OFFCURVE",
"499 404 CURVE",
"498 404 LINE",
"523 368 OFFCURVE",
"561 345 OFFCURVE",
"605 332 CURVE SMOOTH",
"649 319 OFFCURVE",
"698 315 OFFCURVE",
"743 315 CURVE SMOOTH",
"788 315 OFFCURVE",
"838 320 OFFCURVE",
"884 334 CURVE SMOOTH",
"930 348 OFFCURVE",
"972 370 OFFCURVE",
"1004 406 CURVE",
"1037 450 OFFCURVE",
"1061 503 OFFCURVE",
"1077 559 CURVE SMOOTH",
"1093 615 OFFCURVE",
"1101 673 OFFCURVE",
"1106 728 CURVE SMOOTH",
"1112 787 OFFCURVE",
"1118 847 OFFCURVE",
"1125 910 CURVE SMOOTH",
"1137 1034 OFFCURVE",
"1153 1161 OFFCURVE",
"1170 1285 CURVE SMOOTH",
"1178 1347 OFFCURVE",
"1187 1407 OFFCURVE",
"1197 1465 CURVE",
"1240 1468 OFFCURVE",
"1298 1473 OFFCURVE",
"1341 1478 CURVE SMOOTH",
"1417 1485 LINE",
"1354 1165 OFFCURVE",
"1322 864 OFFCURVE",
"1299 564 CURVE SMOOTH",
"1294 493 OFFCURVE",
"1284 418 OFFCURVE",
"1262 347 CURVE SMOOTH",
"1240 275 OFFCURVE",
"1204 207 OFFCURVE",
"1151 150 CURVE",
"1088 90 OFFCURVE",
"1018 55 OFFCURVE",
"944 35 CURVE SMOOTH",
"870 15 OFFCURVE",
"793 9 OFFCURVE",
"721 9 CURVE SMOOTH",
"649 9 OFFCURVE",
"575 14 OFFCURVE",
"506 32 CURVE SMOOTH",
"437 50 OFFCURVE",
"373 81 OFFCURVE",
"324 133 CURVE SMOOTH",
"285 177 OFFCURVE",
"262 227 OFFCURVE",
"247 280 CURVE SMOOTH",
"232 332 OFFCURVE",
"227 386 OFFCURVE",
"227 441 CURVE SMOOTH",
"227 485 OFFCURVE",
"230 527 OFFCURVE",
"234 568 CURVE SMOOTH",
"262 847 OFFCURVE",
"279 1119 OFFCURVE",
"279 1395 CURVE SMOOTH",
"279 1464 LINE"
);
}
);
width = 1624;
}
);
unicode = 0055;
},
{
glyphname = V;
lastChange = "2012-06-10 13:56:22 +0000";
layers = (
{
layerId = "013FA67F-D7C9-4F04-AAC6-32032829ED9A";
name = Bold;
paths = (
{
closed = 1;
nodes = (
"450 51 LINE",
"435 110 OFFCURVE",
"421 170 OFFCURVE",
"407 229 CURVE SMOOTH",
"379 347 OFFCURVE",
"344 495 OFFCURVE",
"301 672 CURVE SMOOTH",
"258 849 OFFCURVE",
"211 1029 OFFCURVE",
"155 1211 CURVE SMOOTH",
"127 1302 OFFCURVE",
"96 1394 OFFCURVE",
"63 1488 CURVE",
"94 1484 OFFCURVE",
"134 1480 OFFCURVE",
"175 1476 CURVE SMOOTH",
"216 1472 OFFCURVE",
"256 1468 OFFCURVE",
"287 1467 CURVE",
"400 1195 OFFCURVE",
"496 905 OFFCURVE",
"588 622 CURVE SMOOTH",
"653 427 LINE",
"672 464 OFFCURVE",
"690 501 OFFCURVE",
"708 538 CURVE SMOOTH",
"726 575 OFFCURVE",
"744 611 OFFCURVE",
"763 647 CURVE SMOOTH",
"830 780 OFFCURVE",
"901 921 OFFCURVE",
"975 1061 CURVE SMOOTH",
"1049 1201 OFFCURVE",
"1124 1340 OFFCURVE",
"1201 1468 CURVE",
"1244 1471 OFFCURVE",
"1294 1475 OFFCURVE",
"1337 1479 CURVE SMOOTH",
"1432 1486 LINE",
"1320 1277 OFFCURVE",
"1222 1070 OFFCURVE",
"1132 865 CURVE SMOOTH",
"1042 660 OFFCURVE",
"958 455 OFFCURVE",
"877 251 CURVE SMOOTH",
"790 36 LINE",
"768 37 OFFCURVE",
"744 37 OFFCURVE",
"718 37 CURVE SMOOTH",
"692 37 OFFCURVE",
"668 37 OFFCURVE",
"646 37 CURVE SMOOTH",
"631 37 OFFCURVE",
"616 37 OFFCURVE",
"601 37 CURVE",
"586 36 OFFCURVE",
"571 36 OFFCURVE",
"556 36 CURVE SMOOTH",
"469 36 LINE"
);
}
);
width = 1538;
}
);
unicode = 0056;
},
{
glyphname = W;
lastChange = "2012-06-10 13:56:22 +0000";
layers = (
{
anchors = (
{
name = top;
position = "{1113, 1455}";
}
);
layerId = "013FA67F-D7C9-4F04-AAC6-32032829ED9A";
name = Bold;
paths = (
{
closed = 1;
nodes = (
"239 1480 LINE",
"363 1471 LINE",
"418 1306 OFFCURVE",
"461 1139 OFFCURVE",
"498 972 CURVE SMOOTH",
"534 804 OFFCURVE",
"564 636 OFFCURVE",
"591 468 CURVE",
"667 591 OFFCURVE",
"739 712 OFFCURVE",
"811 837 CURVE SMOOTH",
"836 879 OFFCURVE",
"861 923 OFFCURVE",
"887 968 CURVE SMOOTH",
"913 1013 OFFCURVE",
"939 1056 OFFCURVE",
"964 1097 CURVE",
"1141 1097 LINE",
"1166 1028 OFFCURVE",
"1196 947 OFFCURVE",
"1220 876 CURVE SMOOTH",
"1234 837 OFFCURVE",
"1247 800 OFFCURVE",
"1259 765 CURVE SMOOTH",
"1283 696 OFFCURVE",
"1307 629 OFFCURVE",
"1332 561 CURVE SMOOTH",
"1345 526 OFFCURVE",
"1359 489 OFFCURVE",
"1374 450 CURVE",
"1501 798 OFFCURVE",
"1638 1141 OFFCURVE",
"1817 1474 CURVE",
"1852 1475 OFFCURVE",
"1895 1477 OFFCURVE",
"1930 1480 CURVE",
"1936 1481 OFFCURVE",
"1944 1481 OFFCURVE",
"1953 1482 CURVE",
"1962 1482 OFFCURVE",
"1972 1482 OFFCURVE",
"1982 1483 CURVE",
"2001 1484 OFFCURVE",
"2020 1485 OFFCURVE",
"2031 1485 CURVE",
"1912 1246 OFFCURVE",
"1815 1004 OFFCURVE",
"1735 760 CURVE SMOOTH",
"1654 516 OFFCURVE",
"1588 271 OFFCURVE",
"1531 27 CURVE",
"1486 28 OFFCURVE",
"1433 30 OFFCURVE",
"1381 31 CURVE SMOOTH",
"1328 32 OFFCURVE",
"1275 34 OFFCURVE",
"1231 35 CURVE",
"1156 256 OFFCURVE",
"1102 472 OFFCURVE",
"1049 688 CURVE SMOOTH",
"1044 711 OFFCURVE",
"1042 720 OFFCURVE",
"1040 729 CURVE SMOOTH",
"1039 734 OFFCURVE",
"1037 739 OFFCURVE",
"1036 745 CURVE",
"1034 750 OFFCURVE",
"1032 759 OFFCURVE",
"1029 770 CURVE",
"976 651 OFFCURVE",
"919 525 OFFCURVE",
"860 400 CURVE SMOOTH",
"801 275 OFFCURVE",
"742 150 OFFCURVE",
"683 34 CURVE",
"634 34 OFFCURVE",
"577 33 OFFCURVE",
"521 31 CURVE SMOOTH",
"492 30 OFFCURVE",
"464 29 OFFCURVE",
"437 28 CURVE SMOOTH",
"410 27 OFFCURVE",
"384 26 OFFCURVE",
"359 25 CURVE",
"350 270 OFFCURVE",
"334 517 OFFCURVE",
"303 762 CURVE SMOOTH",
"271 1006 OFFCURVE",
"224 1249 OFFCURVE",
"156 1486 CURVE"
);
}
);
width = 2226;
}
);
unicode = 0057;
},
{
glyphname = X;
lastChange = "2012-06-10 13:56:22 +0000";
layers = (
{
layerId = "013FA67F-D7C9-4F04-AAC6-32032829ED9A";
name = Bold;
paths = (
{
closed = 1;
nodes = (
"369 1477 LINE",
"412 1472 OFFCURVE",
"450 1470 OFFCURVE",
"493 1467 CURVE SMOOTH",
"503 1466 OFFCURVE",
"516 1466 OFFCURVE",
"531 1465 CURVE SMOOTH",
"546 1464 OFFCURVE",
"558 1463 OFFCURVE",
"567 1462 CURVE",
"622 1362 OFFCURVE",
"673 1265 OFFCURVE",
"722 1169 CURVE SMOOTH",
"747 1120 OFFCURVE",
"771 1071 OFFCURVE",
"796 1022 CURVE SMOOTH",
"820 973 OFFCURVE",
"845 922 OFFCURVE",
"870 871 CURVE",
"1003 1070 OFFCURVE",
"1141 1273 OFFCURVE",
"1284 1466 CURVE",
"1327 1469 OFFCURVE",
"1376 1472 OFFCURVE",
"1419 1476 CURVE SMOOTH",
"1522 1483 LINE",
"1338 1234 OFFCURVE",
"1155 957 OFFCURVE",
"987 698 CURVE",
"1054 586 OFFCURVE",
"1127 467 OFFCURVE",
"1202 348 CURVE SMOOTH",
"1277 229 OFFCURVE",
"1353 113 OFFCURVE",
"1426 6 CURVE",
"1378 11 OFFCURVE",
"1316 16 OFFCURVE",
"1255 21 CURVE SMOOTH",
"1194 25 OFFCURVE",
"1132 29 OFFCURVE",
"1083 32 CURVE",
"1036 116 OFFCURVE",
"993 197 OFFCURVE",
"952 278 CURVE SMOOTH",
"911 358 OFFCURVE",
"869 440 OFFCURVE",
"828 528 CURVE",
"717 360 OFFCURVE",
"601 191 OFFCURVE",
"484 30 CURVE",
"460 29 OFFCURVE",
"433 27 OFFCURVE",
"402 26 CURVE SMOOTH",
"341 22 OFFCURVE",
"276 17 OFFCURVE",
"216 13 CURVE SMOOTH",
"185 10 OFFCURVE",
"158 8 OFFCURVE",
"133 5 CURVE",
"228 114 OFFCURVE",
"328 232 OFFCURVE",
"426 352 CURVE SMOOTH",
"524 471 OFFCURVE",
"621 590 OFFCURVE",
"713 703 CURVE",
"710 710 OFFCURVE",
"706 718 OFFCURVE",
"703 725 CURVE SMOOTH",
"700 732 OFFCURVE",
"697 739 OFFCURVE",
"694 746 CURVE SMOOTH",
"585 982 OFFCURVE",
"471 1221 OFFCURVE",
"350 1449 CURVE"
);
}
);
width = 1645;
}
);
unicode = 0058;
},
{
glyphname = Y;
lastChange = "2012-06-10 13:56:22 +0000";
layers = (
{
anchors = (
{
name = top;
position = "{692, 1455}";
}
);
layerId = "013FA67F-D7C9-4F04-AAC6-32032829ED9A";
name = Bold;
paths = (
{
closed = 1;
nodes = (
"72 1484 LINE",
"136 1476 OFFCURVE",
"207 1470 OFFCURVE",
"270 1465 CURVE",
"331 1345 OFFCURVE",
"388 1228 OFFCURVE",
"443 1111 CURVE SMOOTH",
"498 994 OFFCURVE",
"550 875 OFFCURVE",
"605 751 CURVE",
"753 991 OFFCURVE",
"905 1236 OFFCURVE",
"1065 1468 CURVE",
"1116 1471 OFFCURVE",
"1173 1475 OFFCURVE",
"1224 1480 CURVE SMOOTH",
"1303 1487 LINE",
"1216 1360 OFFCURVE",
"1130 1224 OFFCURVE",
"1046 1085 CURVE SMOOTH",
"962 946 OFFCURVE",
"879 806 OFFCURVE",
"803 674 CURVE SMOOTH",
"788 649 OFFCURVE",
"774 624 OFFCURVE",
"759 599 CURVE SMOOTH",
"744 574 OFFCURVE",
"730 549 OFFCURVE",
"716 524 CURVE",
"701 365 OFFCURVE",
"691 192 OFFCURVE",
"682 35 CURVE",
"647 36 OFFCURVE",
"593 37 OFFCURVE",
"558 37 CURVE SMOOTH",
"488 37 LINE SMOOTH",
"482 37 OFFCURVE",
"475 37 OFFCURVE",
"467 37 CURVE SMOOTH",
"459 37 OFFCURVE",
"451 37 OFFCURVE",
"442 37 CURVE",
"433 36 OFFCURVE",
"425 36 OFFCURVE",
"417 36 CURVE SMOOTH",
"408 36 OFFCURVE",
"401 36 OFFCURVE",
"395 36 CURVE",
"403 115 OFFCURVE",
"411 197 OFFCURVE",
"420 280 CURVE SMOOTH",
"429 363 OFFCURVE",
"437 445 OFFCURVE",
"444 524 CURVE",
"320 837 OFFCURVE",
"198 1149 OFFCURVE",
"53 1456 CURVE"
);
}
);
width = 1384;
}
);
unicode = 0059;
},
{
glyphname = Z;
lastChange = "2012-06-10 13:56:22 +0000";
layers = (
{
anchors = (
{
name = top;
position = "{821, 1455}";
}
);
layerId = "013FA67F-D7C9-4F04-AAC6-32032829ED9A";
name = Bold;
paths = (
{
closed = 1;
nodes = (
"324 1481 LINE",
"505 1462 OFFCURVE",
"684 1455 OFFCURVE",
"867 1455 CURVE SMOOTH",
"1056 1455 OFFCURVE",
"1258 1465 OFFCURVE",
"1471 1485 CURVE",
"1470 1479 OFFCURVE",
"1468 1472 OFFCURVE",
"1467 1464 CURVE SMOOTH",
"1466 1455 OFFCURVE",
"1464 1447 OFFCURVE",
"1462 1438 CURVE SMOOTH",
"1458 1421 OFFCURVE",
"1454 1403 OFFCURVE",
"1453 1391 CURVE",
"1439 1316 LINE",
"1356 1231 OFFCURVE",
"1272 1145 OFFCURVE",
"1188 1060 CURVE SMOOTH",
"1104 975 OFFCURVE",
"1020 889 OFFCURVE",
"937 804 CURVE SMOOTH",
"896 762 OFFCURVE",
"856 722 OFFCURVE",
"819 683 CURVE SMOOTH",
"743 606 OFFCURVE",
"670 531 OFFCURVE",
"595 455 CURVE SMOOTH",
"557 416 OFFCURVE",
"517 376 OFFCURVE",
"475 334 CURVE",
"583 337 OFFCURVE",
"693 339 OFFCURVE",
"801 339 CURVE SMOOTH",
"984 339 OFFCURVE",
"1181 333 OFFCURVE",
"1361 321 CURVE",
"1360 289 OFFCURVE",
"1359 238 OFFCURVE",
"1359 205 CURVE SMOOTH",
"1359 146 OFFCURVE",
"1360 67 OFFCURVE",
"1363 8 CURVE",
"1156 27 OFFCURVE",
"957 37 OFFCURVE",
"762 37 CURVE SMOOTH",
"571 37 OFFCURVE",
"367 27 OFFCURVE",
"150 7 CURVE",
"159 51 OFFCURVE",
"169 102 OFFCURVE",
"178 154 CURVE SMOOTH",
"187 206 OFFCURVE",
"196 258 OFFCURVE",
"203 302 CURVE",
"366 471 OFFCURVE",
"521 633 OFFCURVE",
"678 794 CURVE SMOOTH",
"835 954 OFFCURVE",
"993 1113 OFFCURVE",
"1160 1280 CURVE",
"1056 1276 OFFCURVE",
"952 1274 OFFCURVE",
"849 1274 CURVE SMOOTH",
"673 1274 OFFCURVE",
"494 1280 OFFCURVE",
"303 1297 CURVE",
"303 1462 LINE"
);
}
);
width = 1642;
}
);
unicode = 005A;
},
{
glyphname = bracketleft;
lastChange = "2012-06-10 13:56:22 +0000";
layers = (
{
layerId = "013FA67F-D7C9-4F04-AAC6-32032829ED9A";
name = Bold;
paths = (
{
closed = 1;
nodes = (
"437 1542 LINE",
"492 1518 OFFCURVE",
"553 1507 OFFCURVE",
"616 1507 CURVE SMOOTH",
"684 1507 OFFCURVE",
"761 1524 OFFCURVE",
"844 1553 CURVE",
"837 1481 LINE",
"826 1389 LINE",
"750 1362 OFFCURVE",
"677 1353 OFFCURVE",
"608 1353 CURVE SMOOTH",
"603 1353 OFFCURVE",
"600 1353 OFFCURVE",
"601 1353 CURVE",
"601 1352 OFFCURVE",
"598 1352 OFFCURVE",
"593 1353 CURVE",
"557 902 OFFCURVE",
"518 461 OFFCURVE",
"477 9 CURVE",
"491 9 LINE SMOOTH",
"556 9 OFFCURVE",
"626 3 OFFCURVE",
"701 -21 CURVE",
"698 -65 OFFCURVE",
"695 -125 OFFCURVE",
"692 -168 CURVE SMOOTH",
"687 -262 LINE",
"611 -234 OFFCURVE",
"541 -220 OFFCURVE",
"477 -220 CURVE SMOOTH",
"409 -220 OFFCURVE",
"334 -234 OFFCURVE",
"252 -262 CURVE",
"320 327 OFFCURVE",
"374 937 OFFCURVE",
"409 1526 CURVE"
);
}
);
width = 786;
}
);
unicode = 005B;
},
{
glyphname = backslash;
lastChange = "2012-06-10 13:56:22 +0000";
layers = (
{
layerId = "013FA67F-D7C9-4F04-AAC6-32032829ED9A";
name = Bold;
paths = (
{
closed = 1;
nodes = (
"176 1435 LINE",
"228 1179 OFFCURVE",
"274 924 OFFCURVE",
"321 667 CURVE SMOOTH",
"345 532 OFFCURVE",
"373 381 OFFCURVE",
"401 230 CURVE SMOOTH",
"429 79 OFFCURVE",
"459 -71 OFFCURVE",
"487 -204 CURVE",
"440 -195 LINE",
"385 -180 OFFCURVE",
"332 -168 OFFCURVE",
"264 -163 CURVE",
"217 96 OFFCURVE",
"175 367 OFFCURVE",
"134 627 CURVE SMOOTH",
"123 696 OFFCURVE",
"111 768 OFFCURVE",
"100 841 CURVE SMOOTH",
"76 987 OFFCURVE",
"52 1134 OFFCURVE",
"28 1279 CURVE SMOOTH",
"15 1352 OFFCURVE",
"3 1423 OFFCURVE",
"-10 1492 CURVE",
"61 1467 OFFCURVE",
"112 1458 OFFCURVE",
"159 1451 CURVE"
);
}
);
width = 649;
}
);
unicode = 005C;
},
{
glyphname = bracketright;
lastChange = "2012-06-10 13:56:22 +0000";
layers = (
{
layerId = "013FA67F-D7C9-4F04-AAC6-32032829ED9A";
name = Bold;
paths = (
{
closed = 1;
nodes = (
"652 1523 LINE",
"584 934 OFFCURVE",
"529 328 OFFCURVE",
"496 -261 CURVE",
"421 -234 OFFCURVE",
"352 -220 OFFCURVE",
"287 -220 CURVE SMOOTH",
"220 -220 OFFCURVE",
"146 -234 OFFCURVE",
"63 -262 CURVE",
"77 -137 LINE",
"88 -30 LINE",
"165 -10 OFFCURVE",
"237 0 OFFCURVE",
"304 0 CURVE SMOOTH",
"316 0 LINE",
"326 115 OFFCURVE",
"336 229 OFFCURVE",
"346 341 CURVE SMOOTH",
"365 565 OFFCURVE",
"384 788 OFFCURVE",
"405 1012 CURVE SMOOTH",
"415 1124 OFFCURVE",
"425 1238 OFFCURVE",
"436 1353 CURVE",
"418 1353 LINE SMOOTH",
"350 1353 OFFCURVE",
"280 1360 OFFCURVE",
"211 1391 CURVE",
"212 1401 OFFCURVE",
"212 1413 OFFCURVE",
"213 1428 CURVE SMOOTH",
"214 1443 OFFCURVE",
"215 1455 OFFCURVE",
"216 1465 CURVE",
"221 1554 LINE",
"294 1522 OFFCURVE",
"363 1507 OFFCURVE",
"426 1507 CURVE SMOOTH",
"494 1507 OFFCURVE",
"562 1520 OFFCURVE",
"626 1543 CURVE"
);
}
);
width = 780;
}
);
unicode = 005D;
},
{
glyphname = asciicircum;
lastChange = "2012-06-10 13:56:22 +0000";
layers = (
{
layerId = "013FA67F-D7C9-4F04-AAC6-32032829ED9A";
name = Bold;
paths = (
{
closed = 1;
nodes = (
"804 1473 LINE",
"825 1450 OFFCURVE",
"847 1425 OFFCURVE",
"870 1399 CURVE SMOOTH",
"893 1372 OFFCURVE",
"915 1347 OFFCURVE",
"936 1322 CURVE SMOOTH",
"991 1258 OFFCURVE",
"1046 1194 OFFCURVE",
"1110 1127 CURVE SMOOTH",
"1174 1060 OFFCURVE",
"1247 991 OFFCURVE",
"1338 918 CURVE",
"1315 919 OFFCURVE",
"1289 920 OFFCURVE",
"1260 921 CURVE SMOOTH",
"1200 924 OFFCURVE",
"1136 926 OFFCURVE",
"1076 927 CURVE SMOOTH",
"1045 928 OFFCURVE",
"1019 928 OFFCURVE",
"996 929 CURVE",
"908 1029 OFFCURVE",
"845 1135 OFFCURVE",
"780 1243 CURVE SMOOTH",
"773 1254 OFFCURVE",
"768 1263 OFFCURVE",
"763 1272 CURVE",
"758 1280 OFFCURVE",
"753 1288 OFFCURVE",
"748 1296 CURVE SMOOTH",
"743 1304 OFFCURVE",
"737 1312 OFFCURVE",
"732 1321 CURVE SMOOTH",
"727 1330 OFFCURVE",
"721 1339 OFFCURVE",
"714 1350 CURVE",
"681 1310 OFFCURVE",
"651 1272 OFFCURVE",
"619 1231 CURVE SMOOTH",
"539 1130 OFFCURVE",
"459 1028 OFFCURVE",
"359 928 CURVE",
"314 928 OFFCURVE",
"251 927 OFFCURVE",
"188 925 CURVE SMOOTH",
"156 924 OFFCURVE",
"125 923 OFFCURVE",
"95 922 CURVE SMOOTH",
"65 921 OFFCURVE",
"39 920 OFFCURVE",
"16 919 CURVE",
"112 991 OFFCURVE",
"194 1057 OFFCURVE",
"267 1121 CURVE SMOOTH",
"339 1185 OFFCURVE",
"403 1246 OFFCURVE",
"466 1306 CURVE SMOOTH",
"493 1332 OFFCURVE",
"523 1360 OFFCURVE",
"554 1390 CURVE SMOOTH",
"585 1420 OFFCURVE",
"615 1448 OFFCURVE",
"644 1473 CURVE"
);
}
);
width = 1419;
}
);
unicode = 005E;
},
{
glyphname = underscore;
lastChange = "2012-06-10 13:56:22 +0000";
layers = (
{
layerId = "013FA67F-D7C9-4F04-AAC6-32032829ED9A";
name = Bold;
paths = (
{
closed = 1;
nodes = (
"1319 -300 LINE",
"1298 -319 OFFCURVE",
"1285 -348 OFFCURVE",
"1285 -375 CURVE SMOOTH",
"1285 -395 OFFCURVE",
"1303 -425 OFFCURVE",
"1343 -462 CURVE",
"1259 -461 OFFCURVE",
"1162 -460 OFFCURVE",
"1064 -459 CURVE SMOOTH",
"1015 -459 OFFCURVE",
"966 -459 OFFCURVE",
"919 -458 CURVE SMOOTH",
"871 -458 OFFCURVE",
"826 -458 OFFCURVE",
"784 -458 CURVE SMOOTH",
"741 -458 OFFCURVE",
"696 -458 OFFCURVE",
"649 -458 CURVE SMOOTH",
"601 -459 OFFCURVE",
"553 -459 OFFCURVE",
"504 -459 CURVE SMOOTH",
"407 -460 OFFCURVE",
"309 -461 OFFCURVE",
"225 -462 CURVE",
"272 -419 OFFCURVE",
"295 -383 OFFCURVE",
"295 -354 CURVE SMOOTH",
"295 -332 OFFCURVE",
"278 -302 OFFCURVE",
"245 -265 CURVE",
"325 -266 OFFCURVE",
"416 -268 OFFCURVE",
"507 -268 CURVE SMOOTH",
"552 -269 OFFCURVE",
"597 -269 OFFCURVE",
"642 -269 CURVE SMOOTH",
"687 -270 OFFCURVE",
"729 -270 OFFCURVE",
"769 -270 CURVE SMOOTH",
"949 -270 OFFCURVE",
"1126 -269 OFFCURVE",
"1306 -266 CURVE"
);
}
);
width = 1614;
}
);
unicode = 005F;
},
{
glyphname = grave;
lastChange = "2012-06-10 13:56:22 +0000";
layers = (
{
anchors = (
{
name = _top;
position = "{276.5, 1108}";
}
);
layerId = "013FA67F-D7C9-4F04-AAC6-32032829ED9A";
name = Bold;
paths = (
{
closed = 1;
nodes = (
"258 1610 LINE",
"274 1587 OFFCURVE",
"290 1564 OFFCURVE",
"305 1541 CURVE SMOOTH",
"335 1493 OFFCURVE",
"371 1436 OFFCURVE",
"422 1361 CURVE SMOOTH",
"447 1324 OFFCURVE",
"479 1283 OFFCURVE",
"516 1238 CURVE",
"499 1239 OFFCURVE",
"479 1240 OFFCURVE",
"457 1241 CURVE SMOOTH",
"435 1242 OFFCURVE",
"413 1243 OFFCURVE",
"390 1244 CURVE SMOOTH",
"367 1245 OFFCURVE",
"345 1245 OFFCURVE",
"324 1246 CURVE SMOOTH",
"302 1247 OFFCURVE",
"282 1247 OFFCURVE",
"265 1247 CURVE SMOOTH",
"221 1247 LINE",
"212 1266 OFFCURVE",
"202 1288 OFFCURVE",
"192 1311 CURVE SMOOTH",
"182 1334 OFFCURVE",
"172 1356 OFFCURVE",
"163 1375 CURVE SMOOTH",
"147 1412 OFFCURVE",
"131 1449 OFFCURVE",
"112 1489 CURVE SMOOTH",
"92 1529 OFFCURVE",
"69 1574 OFFCURVE",
"37 1627 CURVE",
"65 1624 OFFCURVE",
"102 1623 OFFCURVE",
"139 1621 CURVE SMOOTH",
"176 1619 OFFCURVE",
"214 1617 OFFCURVE",
"242 1617 CURVE"
);
}
);
width = 578;
}
);
unicode = 0060;
},
{
glyphname = a;
lastChange = "2012-06-10 13:56:22 +0000";
layers = (
{
anchors = (
{
name = ogonek;
position = "{1224, 10}";
},
{
name = top;
position = "{680, 1108}";
}
);
layerId = "013FA67F-D7C9-4F04-AAC6-32032829ED9A";
name = Bold;
paths = (
{
closed = 1;
nodes = (
"649 561 LINE SMOOTH",
"645 561 OFFCURVE",
"641 561 OFFCURVE",
"637 561 CURVE",
"633 560 OFFCURVE",
"629 560 OFFCURVE",
"624 560 CURVE",
"605 559 OFFCURVE",
"587 559 OFFCURVE",
"568 558 CURVE SMOOTH",
"530 557 OFFCURVE",
"492 551 OFFCURVE",
"456 540 CURVE SMOOTH",
"438 535 OFFCURVE",
"421 527 OFFCURVE",
"405 518 CURVE",
"406 518 LINE",
"361 487 OFFCURVE",
"338 433 OFFCURVE",
"333 381 CURVE",
"334 342 OFFCURVE",
"351 305 OFFCURVE",
"387 297 CURVE SMOOTH",
"432 288 OFFCURVE",
"477 283 OFFCURVE",
"524 283 CURVE SMOOTH",
"556 283 OFFCURVE",
"591 285 OFFCURVE",
"624 291 CURVE SMOOTH",
"657 297 OFFCURVE",
"690 307 OFFCURVE",
"718 326 CURVE",
"765 374 OFFCURVE",
"774 443 OFFCURVE",
"781 510 CURVE SMOOTH",
"784 534 LINE",
"785 540 OFFCURVE",
"785 544 OFFCURVE",
"786 547 CURVE",
"786 549 OFFCURVE",
"786 554 OFFCURVE",
"787 561 CURVE"
);
},
{
closed = 1;
nodes = (
"1055 458 OFFCURVE",
"1045 288 OFFCURVE",
"1045 116 CURVE SMOOTH",
"1045 87 OFFCURVE",
"1046 36 OFFCURVE",
"1047 7 CURVE",
"1022 10 OFFCURVE",
"985 13 OFFCURVE",
"949 16 CURVE SMOOTH",
"913 19 OFFCURVE",
"876 21 OFFCURVE",
"851 22 CURVE",
"853 98 LINE SMOOTH",
"853 107 OFFCURVE",
"853 114 OFFCURVE",
"853 117 CURVE SMOOTH",
"853 120 OFFCURVE",
"853 123 OFFCURVE",
"853 125 CURVE SMOOTH",
"853 127 OFFCURVE",
"853 130 OFFCURVE",
"853 133 CURVE SMOOTH",
"853 136 OFFCURVE",
"853 143 OFFCURVE",
"854 153 CURVE",
"803 97 OFFCURVE",
"743 59 OFFCURVE",
"677 35 CURVE SMOOTH",
"611 11 OFFCURVE",
"539 2 OFFCURVE",
"470 2 CURVE SMOOTH",
"381 2 OFFCURVE",
"292 21 OFFCURVE",
"229 84 CURVE",
"182 135 OFFCURVE",
"164 205 OFFCURVE",
"164 276 CURVE SMOOTH",
"164 341 OFFCURVE",
"177 417 OFFCURVE",
"208 483 CURVE SMOOTH",
"239 549 OFFCURVE",
"286 607 OFFCURVE",
"357 642 CURVE SMOOTH",
"464 694 OFFCURVE",
"566 706 OFFCURVE",
"669 706 CURVE SMOOTH",
"710 706 OFFCURVE",
"747 706 OFFCURVE",
"782 706 CURVE SMOOTH",
"816 706 OFFCURVE",
"853 706 OFFCURVE",
"894 707 CURVE",
"894 714 LINE SMOOTH",
"894 717 OFFCURVE",
"894 720 OFFCURVE",
"895 723 CURVE",
"895 729 OFFCURVE",
"896 736 OFFCURVE",
"897 745 CURVE",
"897 750 OFFCURVE",
"897 754 OFFCURVE",
"897 759 CURVE SMOOTH",
"897 807 OFFCURVE",
"882 858 OFFCURVE",
"850 893 CURVE",
"789 941 OFFCURVE",
"710 960 OFFCURVE",
"638 967 CURVE",
"527 967 OFFCURVE",
"408 942 OFFCURVE",
"285 885 CURVE",
"285 889 OFFCURVE",
"285 895 OFFCURVE",
"286 903 CURVE",
"286 910 OFFCURVE",
"286 918 OFFCURVE",
"287 926 CURVE",
"287 934 OFFCURVE",
"287 942 OFFCURVE",
"288 950 CURVE",
"288 957 OFFCURVE",
"288 963 OFFCURVE",
"288 967 CURVE SMOOTH",
"288 994 OFFCURVE",
"289 1021 OFFCURVE",
"292 1050 CURVE",
"419 1089 OFFCURVE",
"546 1114 OFFCURVE",
"667 1114 CURVE SMOOTH",
"724 1114 OFFCURVE",
"786 1110 OFFCURVE",
"842 1095 CURVE SMOOTH",
"898 1080 OFFCURVE",
"950 1054 OFFCURVE",
"993 1013 CURVE",
"1061 933 OFFCURVE",
"1080 837 OFFCURVE",
"1080 741 CURVE SMOOTH",
"1080 704 OFFCURVE",
"1077 668 OFFCURVE",
"1074 633 CURVE SMOOTH"
);
}
);
width = 1360;
}
);
unicode = 0061;
},
{
glyphname = b;
lastChange = "2012-06-10 13:56:22 +0000";
layers = (
{
layerId = "013FA67F-D7C9-4F04-AAC6-32032829ED9A";
name = Bold;
paths = (
{
closed = 1;
nodes = (
"1123 624 LINE SMOOTH",
"1123 628 OFFCURVE",
"1123 632 OFFCURVE",
"1124 636 CURVE",
"1124 640 OFFCURVE",
"1124 644 OFFCURVE",
"1124 648 CURVE SMOOTH",
"1124 725 OFFCURVE",
"1114 809 OFFCURVE",
"1082 872 CURVE SMOOTH",
"1049 935 OFFCURVE",
"995 979 OFFCURVE",
"907 979 CURVE SMOOTH",
"826 979 OFFCURVE",
"743 947 OFFCURVE",
"688 880 CURVE",
"625 797 OFFCURVE",
"599 689 OFFCURVE",
"588 592 CURVE",
"591 528 OFFCURVE",
"604 456 OFFCURVE",
"640 405 CURVE",
"665 380 OFFCURVE",
"699 362 OFFCURVE",
"734 351 CURVE SMOOTH",
"769 339 OFFCURVE",
"805 334 OFFCURVE",
"838 334 CURVE",
"902 338 OFFCURVE",
"966 354 OFFCURVE",
"1022 393 CURVE",
"1020 391 LINE",
"1052 416 OFFCURVE",
"1074 452 OFFCURVE",
"1090 489 CURVE SMOOTH",
"1106 526 OFFCURVE",
"1116 566 OFFCURVE",
"1124 605 CURVE",
"1123 601 LINE"
);
},
{
closed = 1;
nodes = (
"576 1334 OFFCURVE",
"561 1146 OFFCURVE",
"542 969 CURVE",
"578 1017 OFFCURVE",
"627 1056 OFFCURVE",
"681 1081 CURVE SMOOTH",
"735 1106 OFFCURVE",
"793 1120 OFFCURVE",
"852 1120 CURVE SMOOTH",
"882 1120 LINE SMOOTH",
"1011 1120 OFFCURVE",
"1103 1060 OFFCURVE",
"1163 971 CURVE SMOOTH",
"1223 882 OFFCURVE",
"1250 762 OFFCURVE",
"1250 645 CURVE SMOOTH",
"1250 565 OFFCURVE",
"1243 478 OFFCURVE",
"1222 392 CURVE SMOOTH",
"1201 306 OFFCURVE",
"1165 222 OFFCURVE",
"1106 153 CURVE SMOOTH",
"1026 58 OFFCURVE",
"909 9 OFFCURVE",
"792 10 CURVE SMOOTH",
"777 10 LINE SMOOTH",
"776 10 OFFCURVE",
"774 10 OFFCURVE",
"773 10 CURVE",
"771 9 OFFCURVE",
"769 9 OFFCURVE",
"768 9 CURVE SMOOTH",
"759 9 LINE SMOOTH",
"699 9 OFFCURVE",
"641 24 OFFCURVE",
"589 51 CURVE SMOOTH",
"537 78 OFFCURVE",
"492 118 OFFCURVE",
"460 166 CURVE",
"457 143 OFFCURVE",
"454 119 OFFCURVE",
"451 95 CURVE SMOOTH",
"448 70 OFFCURVE",
"444 47 OFFCURVE",
"441 26 CURVE",
"428 25 OFFCURVE",
"412 23 OFFCURVE",
"395 22 CURVE SMOOTH",
"377 21 OFFCURVE",
"359 19 OFFCURVE",
"340 17 CURVE SMOOTH",
"321 15 OFFCURVE",
"303 13 OFFCURVE",
"286 12 CURVE",
"269 10 OFFCURVE",
"253 8 OFFCURVE",
"240 6 CURVE",
"333 521 OFFCURVE",
"382 1026 OFFCURVE",
"393 1533 CURVE",
"412 1529 OFFCURVE",
"436 1526 OFFCURVE",
"460 1523 CURVE",
"472 1522 OFFCURVE",
"484 1520 OFFCURVE",
"495 1519 CURVE",
"506 1517 OFFCURVE",
"517 1516 OFFCURVE",
"527 1515 CURVE",
"531 1515 OFFCURVE",
"536 1515 OFFCURVE",
"541 1514 CURVE SMOOTH",
"546 1513 OFFCURVE",
"552 1513 OFFCURVE",
"558 1513 CURVE",
"570 1512 OFFCURVE",
"581 1510 OFFCURVE",
"588 1509 CURVE"
);
}
);
width = 1309;
}
);
unicode = 0062;
},
{
glyphname = c;
lastChange = "2012-06-10 13:56:22 +0000";
layers = (
{
anchors = (
{
name = bottom;
position = "{642, 0}";
},
{
name = top;
position = "{642, 1108}";
}
);
layerId = "013FA67F-D7C9-4F04-AAC6-32032829ED9A";
name = Bold;
paths = (
{
closed = 1;
nodes = (
"1008 1049 LINE",
"1034 1053 LINE",
"1030 1034 OFFCURVE",
"1027 1016 OFFCURVE",
"1024 999 CURVE SMOOTH",
"1021 982 OFFCURVE",
"1017 964 OFFCURVE",
"1014 945 CURVE",
"1014 946 LINE",
"1006 886 LINE",
"913 933 OFFCURVE",
"816 958 OFFCURVE",
"727 958 CURVE SMOOTH",
"679 958 OFFCURVE",
"628 951 OFFCURVE",
"581 934 CURVE SMOOTH",
"533 917 OFFCURVE",
"489 890 OFFCURVE",
"456 850 CURVE",
"421 811 OFFCURVE",
"398 762 OFFCURVE",
"382 710 CURVE SMOOTH",
"365 658 OFFCURVE",
"355 604 OFFCURVE",
"350 555 CURVE",
"350 520 OFFCURVE",
"355 486 OFFCURVE",
"365 455 CURVE SMOOTH",
"375 424 OFFCURVE",
"391 396 OFFCURVE",
"416 376 CURVE",
"415 376 LINE",
"479 333 OFFCURVE",
"562 324 OFFCURVE",
"645 317 CURVE",
"644 317 LINE",
"790 314 LINE",
"802 314 LINE SMOOTH",
"841 314 OFFCURVE",
"894 328 OFFCURVE",
"950 355 CURVE",
"949 328 OFFCURVE",
"947 296 OFFCURVE",
"946 262 CURVE SMOOTH",
"945 228 OFFCURVE",
"944 193 OFFCURVE",
"944 168 CURVE SMOOTH",
"944 133 OFFCURVE",
"945 89 OFFCURVE",
"946 54 CURVE",
"842 15 OFFCURVE",
"741 1 OFFCURVE",
"645 1 CURVE SMOOTH",
"572 1 OFFCURVE",
"494 8 OFFCURVE",
"422 30 CURVE SMOOTH",
"350 52 OFFCURVE",
"285 89 OFFCURVE",
"237 149 CURVE",
"238 148 LINE",
"201 192 OFFCURVE",
"178 243 OFFCURVE",
"163 298 CURVE SMOOTH",
"148 353 OFFCURVE",
"143 410 OFFCURVE",
"143 469 CURVE SMOOTH",
"143 546 OFFCURVE",
"152 640 OFFCURVE",
"177 729 CURVE SMOOTH",
"201 818 OFFCURVE",
"243 904 OFFCURVE",
"310 969 CURVE SMOOTH",
"370 1025 OFFCURVE",
"445 1061 OFFCURVE",
"522 1084 CURVE SMOOTH",
"598 1107 OFFCURVE",
"678 1116 OFFCURVE",
"753 1116 CURVE SMOOTH",
"848 1116 OFFCURVE",
"939 1100 OFFCURVE",
"1025 1068 CURVE"
);
}
);
width = 1284;
}
);
unicode = 0063;
},
{
glyphname = d;
lastChange = "2012-06-10 13:56:22 +0000";
layers = (
{
anchors = (
{
name = center;
position = "{598, 554}";
}
);
layerId = "013FA67F-D7C9-4F04-AAC6-32032829ED9A";
name = Bold;
paths = (
{
closed = 1;
nodes = (
"528 1120 LINE SMOOTH",
"648 1120 OFFCURVE",
"759 1066 OFFCURVE",
"818 965 CURVE",
"841 1146 OFFCURVE",
"873 1336 OFFCURVE",
"905 1513 CURVE",
"956 1517 OFFCURVE",
"1017 1523 OFFCURVE",
"1068 1530 CURVE",
"1070 1530 OFFCURVE",
"1075 1531 OFFCURVE",
"1082 1533 CURVE",
"1089 1534 OFFCURVE",
"1098 1536 OFFCURVE",
"1107 1539 CURVE",
"1012 1024 OFFCURVE",
"957 517 OFFCURVE",
"949 9 CURVE",
"912 14 OFFCURVE",
"856 20 OFFCURVE",
"817 23 CURVE SMOOTH",
"754 28 LINE",
"754 35 OFFCURVE",
"754 46 OFFCURVE",
"755 60 CURVE",
"755 74 OFFCURVE",
"755 85 OFFCURVE",
"755 93 CURVE SMOOTH",
"755 104 OFFCURVE",
"755 112 OFFCURVE",
"755 117 CURVE SMOOTH",
"755 122 OFFCURVE",
"755 126 OFFCURVE",
"755 129 CURVE SMOOTH",
"755 132 OFFCURVE",
"755 135 OFFCURVE",
"756 140 CURVE",
"756 145 OFFCURVE",
"756 153 OFFCURVE",
"757 164 CURVE",
"717 116 OFFCURVE",
"666 77 OFFCURVE",
"610 51 CURVE SMOOTH",
"554 25 OFFCURVE",
"493 10 OFFCURVE",
"432 10 CURVE SMOOTH",
"417 10 LINE SMOOTH",
"416 10 OFFCURVE",
"414 10 OFFCURVE",
"413 10 CURVE",
"411 9 OFFCURVE",
"409 9 OFFCURVE",
"408 9 CURVE SMOOTH",
"398 9 LINE SMOOTH",
"281 9 OFFCURVE",
"172 58 OFFCURVE",
"109 153 CURVE SMOOTH",
"52 241 OFFCURVE",
"33 342 OFFCURVE",
"33 447 CURVE SMOOTH",
"33 528 OFFCURVE",
"42 623 OFFCURVE",
"66 716 CURVE SMOOTH",
"90 808 OFFCURVE",
"130 897 OFFCURVE",
"193 972 CURVE",
"192 971 LINE",
"229 1019 OFFCURVE",
"279 1056 OFFCURVE",
"332 1081 CURVE SMOOTH",
"385 1106 OFFCURVE",
"444 1120 OFFCURVE",
"500 1120 CURVE SMOOTH"
);
},
{
closed = 1;
nodes = (
"179 545 OFFCURVE",
"184 510 OFFCURVE",
"193 478 CURVE SMOOTH",
"201 446 OFFCURVE",
"216 417 OFFCURVE",
"239 393 CURVE",
"238 393 LINE",
"262 370 OFFCURVE",
"291 357 OFFCURVE",
"323 350 CURVE SMOOTH",
"355 343 OFFCURVE",
"390 341 OFFCURVE",
"423 341 CURVE",
"491 344 OFFCURVE",
"564 348 OFFCURVE",
"624 387 CURVE",
"623 386 LINE",
"663 415 OFFCURVE",
"684 464 OFFCURVE",
"696 515 CURVE SMOOTH",
"708 566 OFFCURVE",
"709 618 OFFCURVE",
"709 654 CURVE SMOOTH",
"709 706 OFFCURVE",
"704 758 OFFCURVE",
"693 809 CURVE SMOOTH",
"682 860 OFFCURVE",
"657 902 OFFCURVE",
"624 931 CURVE SMOOTH",
"591 960 OFFCURVE",
"549 976 OFFCURVE",
"502 976 CURVE SMOOTH",
"478 976 LINE SMOOTH",
"411 976 OFFCURVE",
"359 951 OFFCURVE",
"317 911 CURVE SMOOTH",
"275 871 OFFCURVE",
"244 817 OFFCURVE",
"221 758 CURVE SMOOTH",
"198 698 OFFCURVE",
"185 635 OFFCURVE",
"178 578 CURVE"
);
}
);
width = 1196;
}
);
unicode = 0064;
},
{
glyphname = e;
lastChange = "2012-06-10 13:56:22 +0000";
layers = (
{
anchors = (
{
name = bottom;
position = "{689, 0}";
},
{
name = ogonek;
position = "{1240, 10}";
},
{
name = top;
position = "{689, 1108}";
}
);
layerId = "013FA67F-D7C9-4F04-AAC6-32032829ED9A";
name = Bold;
paths = (
{
closed = 1;
nodes = (
"1116 669 LINE",
"1115 662 OFFCURVE",
"1115 656 OFFCURVE",
"1115 651 CURVE",
"1114 645 OFFCURVE",
"1114 639 OFFCURVE",
"1113 634 CURVE",
"1113 635 LINE",
"1108 595 LINE",
"947 592 OFFCURVE",
"772 592 OFFCURVE",
"611 592 CURVE SMOOTH",
"588 592 OFFCURVE",
"565 592 OFFCURVE",
"542 593 CURVE",
"519 593 OFFCURVE",
"495 593 OFFCURVE",
"472 593 CURVE SMOOTH",
"352 593 LINE",
"352 588 LINE",
"351 569 OFFCURVE",
"350 554 OFFCURVE",
"350 537 CURVE SMOOTH",
"350 498 OFFCURVE",
"354 460 OFFCURVE",
"364 426 CURVE SMOOTH",
"374 392 OFFCURVE",
"391 361 OFFCURVE",
"420 340 CURVE",
"420 341 LINE",
"501 290 OFFCURVE",
"608 276 OFFCURVE",
"704 276 CURVE SMOOTH",
"722 276 LINE SMOOTH",
"774 276 OFFCURVE",
"827 276 OFFCURVE",
"883 284 CURVE SMOOTH",
"938 291 OFFCURVE",
"995 306 OFFCURVE",
"1056 335 CURVE",
"1056 326 OFFCURVE",
"1056 315 OFFCURVE",
"1056 303 CURVE",
"1055 278 OFFCURVE",
"1054 251 OFFCURVE",
"1054 227 CURVE SMOOTH",
"1054 214 OFFCURVE",
"1054 203 OFFCURVE",
"1054 194 CURVE SMOOTH",
"1054 157 OFFCURVE",
"1054 107 OFFCURVE",
"1057 70 CURVE",
"918 23 OFFCURVE",
"781 3 OFFCURVE",
"648 3 CURVE",
"580 8 OFFCURVE",
"505 20 OFFCURVE",
"437 44 CURVE SMOOTH",
"368 67 OFFCURVE",
"302 102 OFFCURVE",
"253 150 CURVE",
"216 193 OFFCURVE",
"191 245 OFFCURVE",
"175 301 CURVE SMOOTH",
"159 356 OFFCURVE",
"152 415 OFFCURVE",
"152 472 CURVE SMOOTH",
"152 549 OFFCURVE",
"163 640 OFFCURVE",
"190 728 CURVE SMOOTH",
"217 816 OFFCURVE",
"259 901 OFFCURVE",
"319 966 CURVE SMOOTH",
"371 1019 OFFCURVE",
"435 1056 OFFCURVE",
"504 1080 CURVE SMOOTH",
"572 1103 OFFCURVE",
"645 1113 OFFCURVE",
"713 1114 CURVE",
"769 1111 OFFCURVE",
"828 1104 OFFCURVE",
"883 1088 CURVE SMOOTH",
"938 1072 OFFCURVE",
"990 1047 OFFCURVE",
"1031 1006 CURVE",
"1067 966 OFFCURVE",
"1088 920 OFFCURVE",
"1101 870 CURVE SMOOTH",
"1113 820 OFFCURVE",
"1116 766 OFFCURVE",
"1116 714 CURVE SMOOTH",
"1116 711 OFFCURVE",
"1116 707 OFFCURVE",
"1116 704 CURVE",
"1115 700 OFFCURVE",
"1115 696 OFFCURVE",
"1115 692 CURVE SMOOTH",
"1115 670 LINE",
"1083 683 LINE"
);
},
{
closed = 1;
nodes = (
"960 743 LINE",
"960 750 OFFCURVE",
"959 756 OFFCURVE",
"958 763 CURVE",
"979 763 LINE"
);
},
{
closed = 1;
nodes = (
"703 760 OFFCURVE",
"831 761 OFFCURVE",
"958 763 CURVE",
"951 830 OFFCURVE",
"925 890 OFFCURVE",
"881 934 CURVE SMOOTH",
"837 977 OFFCURVE",
"778 1003 OFFCURVE",
"706 1003 CURVE SMOOTH",
"623 1003 OFFCURVE",
"537 981 OFFCURVE",
"474 921 CURVE",
"425 878 OFFCURVE",
"392 821 OFFCURVE",
"383 761 CURVE",
"416 760 OFFCURVE",
"448 759 OFFCURVE",
"479 760 CURVE SMOOTH",
"509 760 OFFCURVE",
"541 760 OFFCURVE",
"575 760 CURVE SMOOTH"
);
}
);
width = 1378;
}
);
unicode = 0065;
},
{
glyphname = f;
lastChange = "2012-06-10 13:56:22 +0000";
layers = (
{
layerId = "013FA67F-D7C9-4F04-AAC6-32032829ED9A";
name = Bold;
paths = (
{
closed = 1;
nodes = (
"722 1469 LINE",
"715 1426 OFFCURVE",
"707 1367 OFFCURVE",
"702 1323 CURVE",
"683 1322 OFFCURVE",
"648 1321 OFFCURVE",
"629 1321 CURVE SMOOTH",
"598 1321 OFFCURVE",
"570 1322 OFFCURVE",
"539 1323 CURVE",
"507 1320 OFFCURVE",
"475 1315 OFFCURVE",
"450 1294 CURVE",
"426 1262 OFFCURVE",
"419 1214 OFFCURVE",
"414 1173 CURVE",
"414 1175 LINE",
"414 1158 OFFCURVE",
"414 1145 OFFCURVE",
"414 1135 CURVE",
"413 1124 OFFCURVE",
"413 1111 OFFCURVE",
"414 1095 CURVE",
"499 1096 OFFCURVE",
"590 1101 OFFCURVE",
"686 1110 CURVE",
"685 1097 OFFCURVE",
"683 1082 OFFCURVE",
"681 1065 CURVE SMOOTH",
"677 1031 OFFCURVE",
"673 994 OFFCURVE",
"670 959 CURVE SMOOTH",
"668 942 OFFCURVE",
"666 927 OFFCURVE",
"665 914 CURVE",
"576 909 OFFCURVE",
"488 906 OFFCURVE",
"401 905 CURVE",
"382 620 OFFCURVE",
"366 321 OFFCURVE",
"355 36 CURVE",
"335 37 OFFCURVE",
"296 38 OFFCURVE",
"276 38 CURVE SMOOTH",
"222 38 OFFCURVE",
"155 34 OFFCURVE",
"75 26 CURVE",
"122 321 OFFCURVE",
"157 612 OFFCURVE",
"192 907 CURVE",
"169 908 OFFCURVE",
"144 909 OFFCURVE",
"117 911 CURVE",
"90 912 OFFCURVE",
"65 914 OFFCURVE",
"43 915 CURVE",
"48 986 LINE",
"49 995 OFFCURVE",
"50 1005 OFFCURVE",
"51 1016 CURVE SMOOTH",
"52 1027 OFFCURVE",
"52 1038 OFFCURVE",
"53 1049 CURVE",
"54 1072 OFFCURVE",
"56 1095 OFFCURVE",
"57 1112 CURVE",
"117 1104 OFFCURVE",
"169 1100 OFFCURVE",
"209 1097 CURVE",
"213 1116 OFFCURVE",
"215 1136 OFFCURVE",
"218 1160 CURVE",
"225 1201 OFFCURVE",
"235 1249 OFFCURVE",
"252 1293 CURVE SMOOTH",
"269 1337 OFFCURVE",
"294 1378 OFFCURVE",
"330 1409 CURVE",
"397 1457 OFFCURVE",
"476 1483 OFFCURVE",
"553 1488 CURVE",
"563 1487 OFFCURVE",
"573 1487 OFFCURVE",
"584 1487 CURVE SMOOTH",
"595 1487 OFFCURVE",
"605 1487 OFFCURVE",
"615 1487 CURVE SMOOTH",
"643 1487 OFFCURVE",
"672 1488 OFFCURVE",
"701 1491 CURVE"
);
}
);
width = 774;
}
);
unicode = 0066;
},
{
glyphname = g;
lastChange = "2012-06-10 13:56:22 +0000";
layers = (
{
anchors = (
{
name = top;
position = "{707, 1108}";
}
);
layerId = "013FA67F-D7C9-4F04-AAC6-32032829ED9A";
name = Bold;
paths = (
{
closed = 1;
nodes = (
"834 576 LINE",
"837 601 OFFCURVE",
"838 625 OFFCURVE",
"838 650 CURVE SMOOTH",
"838 754 OFFCURVE",
"811 830 OFFCURVE",
"767 879 CURVE SMOOTH",
"722 928 OFFCURVE",
"658 952 OFFCURVE",
"582 952 CURVE SMOOTH",
"506 952 OFFCURVE",
"423 921 OFFCURVE",
"374 861 CURVE SMOOTH",
"343 821 OFFCURVE",
"323 773 OFFCURVE",
"309 724 CURVE SMOOTH",
"295 675 OFFCURVE",
"287 623 OFFCURVE",
"283 575 CURVE",
"283 570 OFFCURVE",
"283 565 OFFCURVE",
"284 560 CURVE SMOOTH",
"285 555 OFFCURVE",
"285 550 OFFCURVE",
"285 545 CURVE SMOOTH",
"286 510 OFFCURVE",
"289 474 OFFCURVE",
"296 442 CURVE SMOOTH",
"303 409 OFFCURVE",
"315 379 OFFCURVE",
"336 355 CURVE",
"361 338 OFFCURVE",
"392 328 OFFCURVE",
"424 324 CURVE SMOOTH",
"456 319 OFFCURVE",
"490 318 OFFCURVE",
"522 318 CURVE SMOOTH",
"593 318 OFFCURVE",
"669 329 OFFCURVE",
"736 356 CURVE",
"771 379 OFFCURVE",
"793 415 OFFCURVE",
"808 455 CURVE SMOOTH",
"823 495 OFFCURVE",
"830 538 OFFCURVE",
"834 577 CURVE"
);
},
{
closed = 1;
nodes = (
"1043 117 LINE SMOOTH",
"1034 42 OFFCURVE",
"1024 -34 OFFCURVE",
"1003 -108 CURVE SMOOTH",
"982 -182 OFFCURVE",
"949 -255 OFFCURVE",
"893 -316 CURVE",
"836 -372 OFFCURVE",
"768 -403 OFFCURVE",
"696 -419 CURVE SMOOTH",
"624 -436 OFFCURVE",
"549 -439 OFFCURVE",
"480 -439 CURVE SMOOTH",
"379 -439 OFFCURVE",
"274 -430 OFFCURVE",
"163 -399 CURVE",
"171 -351 OFFCURVE",
"179 -291 OFFCURVE",
"187 -231 CURVE SMOOTH",
"191 -201 OFFCURVE",
"195 -172 OFFCURVE",
"198 -143 CURVE SMOOTH",
"201 -114 OFFCURVE",
"205 -88 OFFCURVE",
"208 -64 CURVE",
"308 -120 OFFCURVE",
"408 -140 OFFCURVE",
"504 -140 CURVE SMOOTH",
"547 -139 OFFCURVE",
"593 -134 OFFCURVE",
"637 -120 CURVE SMOOTH",
"680 -106 OFFCURVE",
"720 -85 OFFCURVE",
"751 -50 CURVE",
"802 2 OFFCURVE",
"839 60 OFFCURVE",
"858 125 CURVE",
"858 134 OFFCURVE",
"859 146 OFFCURVE",
"860 157 CURVE",
"773 65 OFFCURVE",
"660 21 OFFCURVE",
"531 21 CURVE SMOOTH",
"475 21 OFFCURVE",
"419 35 OFFCURVE",
"369 60 CURVE SMOOTH",
"319 85 OFFCURVE",
"274 123 OFFCURVE",
"245 168 CURVE SMOOTH",
"182 263 OFFCURVE",
"162 384 OFFCURVE",
"162 499 CURVE SMOOTH",
"162 572 OFFCURVE",
"169 658 OFFCURVE",
"190 741 CURVE SMOOTH",
"210 824 OFFCURVE",
"245 904 OFFCURVE",
"301 968 CURVE SMOOTH",
"341 1013 OFFCURVE",
"392 1048 OFFCURVE",
"447 1071 CURVE SMOOTH",
"502 1094 OFFCURVE",
"562 1105 OFFCURVE",
"618 1105 CURVE SMOOTH",
"648 1105 LINE SMOOTH",
"709 1105 OFFCURVE",
"770 1089 OFFCURVE",
"823 1061 CURVE SMOOTH",
"875 1033 OFFCURVE",
"922 993 OFFCURVE",
"954 945 CURVE",
"955 952 OFFCURVE",
"957 959 OFFCURVE",
"960 966 CURVE",
"962 973 OFFCURVE",
"964 980 OFFCURVE",
"965 986 CURVE",
"992 1093 LINE",
"1057 1098 LINE",
"1056 1098 LINE",
"1191 1115 LINE",
"1124 780 OFFCURVE",
"1080 461 OFFCURVE",
"1048 153 CURVE SMOOTH"
);
}
);
width = 1413;
}
);
unicode = 0067;
},
{
glyphname = h;
lastChange = "2012-06-10 13:56:22 +0000";
layers = (
{
anchors = (
{
name = center;
position = "{648, 554}";
},
{
name = top;
position = "{648, 1108}";
}
);
layerId = "013FA67F-D7C9-4F04-AAC6-32032829ED9A";
name = Bold;
paths = (
{
closed = 1;
nodes = (
"1197 532 OFFCURVE",
"1193 394 OFFCURVE",
"1193 258 CURVE SMOOTH",
"1193 239 OFFCURVE",
"1193 218 OFFCURVE",
"1194 197 CURVE",
"1194 176 OFFCURVE",
"1194 154 OFFCURVE",
"1195 132 CURVE",
"1195 88 OFFCURVE",
"1197 44 OFFCURVE",
"1198 7 CURVE",
"1166 11 OFFCURVE",
"1123 16 OFFCURVE",
"1080 20 CURVE SMOOTH",
"1059 22 OFFCURVE",
"1038 24 OFFCURVE",
"1018 26 CURVE SMOOTH",
"997 28 OFFCURVE",
"979 30 OFFCURVE",
"962 31 CURVE",
"975 238 OFFCURVE",
"996 462 OFFCURVE",
"1017 670 CURVE",
"1020 689 OFFCURVE",
"1020 711 OFFCURVE",
"1020 731 CURVE SMOOTH",
"1020 784 OFFCURVE",
"1013 837 OFFCURVE",
"993 881 CURVE",
"956 941 OFFCURVE",
"892 970 OFFCURVE",
"828 970 CURVE SMOOTH",
"752 970 OFFCURVE",
"670 937 OFFCURVE",
"617 877 CURVE SMOOTH",
"558 809 OFFCURVE",
"526 718 OFFCURVE",
"519 630 CURVE SMOOTH",
"517 601 OFFCURVE",
"515 573 OFFCURVE",
"513 545 CURVE SMOOTH",
"511 517 OFFCURVE",
"509 489 OFFCURVE",
"507 460 CURVE SMOOTH",
"496 321 OFFCURVE",
"485 169 OFFCURVE",
"469 30 CURVE",
"453 29 OFFCURVE",
"435 27 OFFCURVE",
"414 25 CURVE SMOOTH",
"393 23 OFFCURVE",
"371 21 OFFCURVE",
"350 19 CURVE SMOOTH",
"306 15 OFFCURVE",
"262 10 OFFCURVE",
"229 6 CURVE",
"328 517 OFFCURVE",
"383 1020 OFFCURVE",
"402 1528 CURVE",
"415 1526 OFFCURVE",
"431 1524 OFFCURVE",
"448 1523 CURVE",
"465 1521 OFFCURVE",
"483 1519 OFFCURVE",
"501 1517 CURVE SMOOTH",
"537 1513 OFFCURVE",
"573 1509 OFFCURVE",
"600 1508 CURVE",
"592 1409 OFFCURVE",
"585 1322 OFFCURVE",
"578 1235 CURVE SMOOTH",
"570 1148 OFFCURVE",
"561 1061 OFFCURVE",
"549 961 CURVE",
"633 1057 OFFCURVE",
"744 1120 OFFCURVE",
"869 1120 CURVE SMOOTH",
"895 1120 LINE SMOOTH",
"947 1120 OFFCURVE",
"1000 1111 OFFCURVE",
"1048 1089 CURVE SMOOTH",
"1095 1067 OFFCURVE",
"1134 1033 OFFCURVE",
"1158 985 CURVE SMOOTH",
"1198 906 OFFCURVE",
"1208 826 OFFCURVE",
"1208 750 CURVE SMOOTH",
"1208 723 OFFCURVE",
"1207 697 OFFCURVE",
"1205 671 CURVE SMOOTH"
);
}
);
width = 1296;
}
);
unicode = 0068;
},
{
glyphname = i;
lastChange = "2012-06-10 13:56:22 +0000";
layers = (
{
layerId = "013FA67F-D7C9-4F04-AAC6-32032829ED9A";
name = Bold;
paths = (
{
closed = 1;
nodes = (
"342 1103 LINE",
"361 1097 OFFCURVE",
"379 1094 OFFCURVE",
"397 1094 CURVE SMOOTH",
"420 1094 OFFCURVE",
"451 1101 OFFCURVE",
"488 1112 CURVE",
"473 936 OFFCURVE",
"458 743 OFFCURVE",
"444 551 CURVE SMOOTH",
"430 358 OFFCURVE",
"416 164 OFFCURVE",
"404 -12 CURVE",
"368 20 OFFCURVE",
"337 38 OFFCURVE",
"313 38 CURVE SMOOTH",
"287 38 OFFCURVE",
"251 21 OFFCURVE",
"205 -14 CURVE",
"225 162 OFFCURVE",
"244 350 OFFCURVE",
"263 537 CURVE SMOOTH",
"282 724 OFFCURVE",
"300 911 OFFCURVE",
"316 1087 CURVE"
);
},
{
closed = 1;
nodes = (
"381 1518 LINE",
"396 1507 OFFCURVE",
"413 1501 OFFCURVE",
"434 1501 CURVE SMOOTH",
"457 1501 OFFCURVE",
"489 1515 OFFCURVE",
"530 1543 CURVE",
"529 1530 OFFCURVE",
"527 1507 OFFCURVE",
"526 1484 CURVE",
"525 1472 OFFCURVE",
"525 1461 OFFCURVE",
"524 1450 CURVE SMOOTH",
"523 1439 OFFCURVE",
"523 1431 OFFCURVE",
"523 1424 CURVE",
"522 1403 OFFCURVE",
"520 1381 OFFCURVE",
"519 1357 CURVE SMOOTH",
"518 1333 OFFCURVE",
"516 1311 OFFCURVE",
"515 1290 CURVE",
"482 1273 OFFCURVE",
"448 1262 OFFCURVE",
"416 1262 CURVE SMOOTH",
"385 1262 OFFCURVE",
"355 1272 OFFCURVE",
"324 1295 CURVE",
"337 1405 LINE",
"349 1506 LINE"
);
}
);
width = 643;
}
);
unicode = 0069;
},
{
glyphname = j;
lastChange = "2012-06-10 13:56:22 +0000";
layers = (
{
layerId = "013FA67F-D7C9-4F04-AAC6-32032829ED9A";
name = Bold;
paths = (
{
closed = 1;
nodes = (
"434 1081 LINE",
"481 1082 OFFCURVE",
"540 1088 OFFCURVE",
"600 1096 CURVE",
"552 737 OFFCURVE",
"505 363 OFFCURVE",
"466 4 CURVE SMOOTH",
"461 -44 OFFCURVE",
"455 -95 OFFCURVE",
"440 -144 CURVE SMOOTH",
"424 -193 OFFCURVE",
"401 -239 OFFCURVE",
"361 -278 CURVE",
"326 -309 OFFCURVE",
"287 -329 OFFCURVE",
"247 -344 CURVE SMOOTH",
"206 -359 OFFCURVE",
"163 -367 OFFCURVE",
"123 -375 CURVE SMOOTH",
"114 -377 OFFCURVE",
"104 -379 OFFCURVE",
"95 -380 CURVE",
"76 -384 OFFCURVE",
"55 -388 OFFCURVE",
"28 -396 CURVE SMOOTH",
"15 -400 OFFCURVE",
"-1 -405 OFFCURVE",
"-18 -411 CURVE",
"-2 -296 LINE SMOOTH",
"6 -241 OFFCURVE",
"16 -172 OFFCURVE",
"23 -117 CURVE",
"82 -105 LINE",
"137 -96 OFFCURVE",
"196 -84 OFFCURVE",
"235 -48 CURVE",
"252 -27 OFFCURVE",
"263 2 OFFCURVE",
"271 31 CURVE SMOOTH",
"279 60 OFFCURVE",
"283 91 OFFCURVE",
"287 119 CURVE",
"287 121 OFFCURVE",
"287 123 OFFCURVE",
"288 126 CURVE",
"289 128 OFFCURVE",
"289 130 OFFCURVE",
"289 131 CURVE",
"298 194 OFFCURVE",
"306 257 OFFCURVE",
"315 320 CURVE SMOOTH",
"323 383 OFFCURVE",
"331 446 OFFCURVE",
"340 510 CURVE SMOOTH",
"353 603 OFFCURVE",
"365 696 OFFCURVE",
"377 788 CURVE SMOOTH",
"389 879 OFFCURVE",
"402 972 OFFCURVE",
"415 1065 CURVE"
);
},
{
closed = 1;
nodes = (
"514 1498 LINE",
"561 1505 OFFCURVE",
"615 1515 OFFCURVE",
"679 1536 CURVE",
"678 1525 OFFCURVE",
"677 1512 OFFCURVE",
"676 1498 CURVE SMOOTH",
"675 1483 OFFCURVE",
"673 1469 OFFCURVE",
"672 1454 CURVE SMOOTH",
"669 1424 OFFCURVE",
"667 1394 OFFCURVE",
"666 1371 CURVE",
"665 1360 OFFCURVE",
"664 1346 OFFCURVE",
"663 1330 CURVE SMOOTH",
"662 1314 OFFCURVE",
"661 1300 OFFCURVE",
"660 1289 CURVE",
"596 1272 OFFCURVE",
"530 1263 OFFCURVE",
"462 1256 CURVE",
"469 1303 LINE SMOOTH",
"474 1333 OFFCURVE",
"479 1363 OFFCURVE",
"483 1393 CURVE SMOOTH",
"487 1422 OFFCURVE",
"491 1452 OFFCURVE",
"496 1482 CURVE"
);
}
);
width = 651;
}
);
unicode = 006A;
},
{
glyphname = k;
lastChange = "2012-06-10 13:56:22 +0000";
layers = (
{
anchors = (
{
name = bottom;
position = "{638, 0}";
}
);
layerId = "013FA67F-D7C9-4F04-AAC6-32032829ED9A";
name = Bold;
paths = (
{
closed = 1;
nodes = (
"425 1525 LINE",
"478 1518 OFFCURVE",
"548 1512 OFFCURVE",
"601 1509 CURVE",
"594 1369 OFFCURVE",
"587 1238 OFFCURVE",
"577 1107 CURVE SMOOTH",
"567 975 OFFCURVE",
"555 845 OFFCURVE",
"540 705 CURVE",
"600 770 OFFCURVE",
"660 835 OFFCURVE",
"721 901 CURVE SMOOTH",
"782 966 OFFCURVE",
"842 1031 OFFCURVE",
"903 1095 CURVE",
"935 1095 OFFCURVE",
"980 1096 OFFCURVE",
"1025 1097 CURVE SMOOTH",
"1048 1098 OFFCURVE",
"1070 1098 OFFCURVE",
"1091 1099 CURVE",
"1112 1099 OFFCURVE",
"1131 1099 OFFCURVE",
"1147 1100 CURVE",
"1100 1047 OFFCURVE",
"1046 985 OFFCURVE",
"991 924 CURVE SMOOTH",
"964 893 OFFCURVE",
"937 863 OFFCURVE",
"911 833 CURVE SMOOTH",
"884 802 OFFCURVE",
"859 774 OFFCURVE",
"836 747 CURVE SMOOTH",
"706 600 LINE",
"742 563 LINE SMOOTH",
"823 476 OFFCURVE",
"914 380 OFFCURVE",
"1004 284 CURVE SMOOTH",
"1094 187 OFFCURVE",
"1181 90 OFFCURVE",
"1260 3 CURVE",
"1116 22 OFFCURVE",
"986 33 OFFCURVE",
"866 36 CURVE",
"835 78 OFFCURVE",
"805 118 OFFCURVE",
"776 156 CURVE SMOOTH",
"719 232 OFFCURVE",
"664 306 OFFCURVE",
"609 383 CURVE SMOOTH",
"581 422 OFFCURVE",
"552 463 OFFCURVE",
"522 506 CURVE",
"519 449 OFFCURVE",
"516 391 OFFCURVE",
"512 334 CURVE SMOOTH",
"508 276 OFFCURVE",
"504 218 OFFCURVE",
"500 160 CURVE SMOOTH",
"499 142 OFFCURVE",
"497 121 OFFCURVE",
"496 96 CURVE",
"494 71 OFFCURVE",
"492 49 OFFCURVE",
"491 31 CURVE",
"473 30 OFFCURVE",
"453 28 OFFCURVE",
"431 26 CURVE SMOOTH",
"408 24 OFFCURVE",
"385 22 OFFCURVE",
"362 20 CURVE SMOOTH",
"314 16 OFFCURVE",
"267 11 OFFCURVE",
"231 7 CURVE",
"330 514 OFFCURVE",
"387 1015 OFFCURVE",
"403 1507 CURVE"
);
}
);
width = 1276;
}
);
unicode = 006B;
},
{
glyphname = l;
lastChange = "2012-06-10 13:56:22 +0000";
layers = (
{
anchors = (
{
name = bottom;
position = "{313, 0}";
},
{
name = top;
position = "{313, 1108}";
},
{
name = topright;
position = "{605, 1108}";
}
);
layerId = "013FA67F-D7C9-4F04-AAC6-32032829ED9A";
name = Bold;
paths = (
{
closed = 1;
nodes = (
"392 1520 LINE",
"425 1505 OFFCURVE",
"461 1501 OFFCURVE",
"500 1501 CURVE SMOOTH",
"505 1501 OFFCURVE",
"512 1501 OFFCURVE",
"519 1502 CURVE",
"526 1502 OFFCURVE",
"537 1503 OFFCURVE",
"553 1504 CURVE",
"514 1091 OFFCURVE",
"479 683 OFFCURVE",
"444 268 CURVE",
"480 265 OFFCURVE",
"519 256 OFFCURVE",
"558 243 CURVE",
"555 210 OFFCURVE",
"552 166 OFFCURVE",
"549 122 CURVE SMOOTH",
"548 100 OFFCURVE",
"546 78 OFFCURVE",
"545 57 CURVE SMOOTH",
"544 36 OFFCURVE",
"543 17 OFFCURVE",
"542 0 CURVE",
"485 25 OFFCURVE",
"432 38 OFFCURVE",
"385 38 CURVE SMOOTH",
"338 38 OFFCURVE",
"281 24 OFFCURVE",
"213 -1 CURVE",
"276 494 OFFCURVE",
"326 1010 OFFCURVE",
"365 1505 CURVE"
);
}
);
width = 625;
}
);
unicode = 006C;
},
{
glyphname = m;
lastChange = "2012-06-10 13:56:22 +0000";
layers = (
{
layerId = "013FA67F-D7C9-4F04-AAC6-32032829ED9A";
name = Bold;
paths = (
{
closed = 1;
nodes = (
"552 940 LINE",
"553 939 LINE",
"553 940 LINE"
);
},
{
closed = 1;
nodes = (
"947 1118 OFFCURVE",
"1024 1103 OFFCURVE",
"1087 1068 CURVE SMOOTH",
"1150 1033 OFFCURVE",
"1199 980 OFFCURVE",
"1222 905 CURVE",
"1262 965 OFFCURVE",
"1314 1020 OFFCURVE",
"1377 1060 CURVE SMOOTH",
"1449 1107 OFFCURVE",
"1542 1123 OFFCURVE",
"1622 1123 CURVE SMOOTH",
"1674 1123 OFFCURVE",
"1726 1110 OFFCURVE",
"1769 1083 CURVE SMOOTH",
"1812 1056 OFFCURVE",
"1846 1016 OFFCURVE",
"1861 964 CURVE",
"1861 965 LINE",
"1877 909 OFFCURVE",
"1882 854 OFFCURVE",
"1882 801 CURVE SMOOTH",
"1882 756 OFFCURVE",
"1878 713 OFFCURVE",
"1874 670 CURVE SMOOTH",
"1864 571 OFFCURVE",
"1859 473 OFFCURVE",
"1859 376 CURVE SMOOTH",
"1859 260 OFFCURVE",
"1867 140 OFFCURVE",
"1890 9 CURVE",
"1871 10 OFFCURVE",
"1851 11 OFFCURVE",
"1828 12 CURVE SMOOTH",
"1805 13 OFFCURVE",
"1781 15 OFFCURVE",
"1757 16 CURVE SMOOTH",
"1733 17 OFFCURVE",
"1710 18 OFFCURVE",
"1687 19 CURVE SMOOTH",
"1664 20 OFFCURVE",
"1643 20 OFFCURVE",
"1624 21 CURVE",
"1624 69 LINE SMOOTH",
"1624 277 OFFCURVE",
"1653 488 OFFCURVE",
"1688 695 CURVE",
"1691 726 LINE",
"1692 743 OFFCURVE",
"1694 759 OFFCURVE",
"1695 776 CURVE SMOOTH",
"1696 793 OFFCURVE",
"1697 809 OFFCURVE",
"1697 824 CURVE SMOOTH",
"1697 931 OFFCURVE",
"1659 978 OFFCURVE",
"1575 978 CURVE SMOOTH",
"1488 978 OFFCURVE",
"1401 947 OFFCURVE",
"1344 874 CURVE",
"1284 803 OFFCURVE",
"1258 714 OFFCURVE",
"1251 625 CURVE",
"1228 430 OFFCURVE",
"1210 225 OFFCURVE",
"1197 30 CURVE",
"928 30 LINE",
"973 247 OFFCURVE",
"1019 485 OFFCURVE",
"1058 702 CURVE",
"1058 700 LINE",
"1060 720 OFFCURVE",
"1061 740 OFFCURVE",
"1061 761 CURVE SMOOTH",
"1061 813 OFFCURVE",
"1054 864 OFFCURVE",
"1030 908 CURVE",
"1031 906 LINE",
"1011 938 OFFCURVE",
"984 958 OFFCURVE",
"954 970 CURVE SMOOTH",
"924 981 OFFCURVE",
"891 985 OFFCURVE",
"859 985 CURVE SMOOTH",
"770 985 OFFCURVE",
"701 936 OFFCURVE",
"653 868 CURVE SMOOTH",
"605 799 OFFCURVE",
"578 709 OFFCURVE",
"574 628 CURVE SMOOTH",
"563 428 OFFCURVE",
"545 227 OFFCURVE",
"501 19 CURVE",
"483 18 OFFCURVE",
"463 18 OFFCURVE",
"441 17 CURVE SMOOTH",
"396 16 OFFCURVE",
"348 14 OFFCURVE",
"303 11 CURVE SMOOTH",
"280 10 OFFCURVE",
"260 9 OFFCURVE",
"242 8 CURVE",
"341 324 OFFCURVE",
"388 637 OFFCURVE",
"388 942 CURVE SMOOTH",
"388 991 OFFCURVE",
"387 1060 OFFCURVE",
"384 1109 CURVE",
"483 1104 LINE",
"581 1100 LINE",
"578 1061 OFFCURVE",
"574 1012 OFFCURVE",
"570 965 CURVE",
"641 1062 OFFCURVE",
"755 1118 OFFCURVE",
"870 1118 CURVE SMOOTH"
);
}
);
width = 2066;
}
);
unicode = 006D;
},
{
glyphname = n;
lastChange = "2012-06-10 13:56:22 +0000";
layers = (
{
anchors = (
{
name = bottom;
position = "{741, 0}";
},
{
name = top;
position = "{741, 1108}";
}
);
layerId = "013FA67F-D7C9-4F04-AAC6-32032829ED9A";
name = Bold;
paths = (
{
closed = 1;
nodes = (
"1225 553 OFFCURVE",
"1220 438 OFFCURVE",
"1220 321 CURVE SMOOTH",
"1220 224 OFFCURVE",
"1225 120 OFFCURVE",
"1235 8 CURVE",
"1196 12 OFFCURVE",
"1147 15 OFFCURVE",
"1099 19 CURVE SMOOTH",
"1050 22 OFFCURVE",
"1000 25 OFFCURVE",
"961 26 CURVE",
"976 237 OFFCURVE",
"1005 464 OFFCURVE",
"1037 675 CURVE",
"1037 678 OFFCURVE",
"1037 682 OFFCURVE",
"1037 685 CURVE SMOOTH",
"1037 688 OFFCURVE",
"1037 692 OFFCURVE",
"1038 695 CURVE",
"1038 694 LINE",
"1041 717 OFFCURVE",
"1042 739 OFFCURVE",
"1042 762 CURVE SMOOTH",
"1042 805 OFFCURVE",
"1037 845 OFFCURVE",
"1020 884 CURVE",
"1020 883 LINE",
"1005 911 OFFCURVE",
"983 928 OFFCURVE",
"958 940 CURVE SMOOTH",
"933 951 OFFCURVE",
"905 955 OFFCURVE",
"877 955 CURVE SMOOTH",
"836 955 OFFCURVE",
"791 951 OFFCURVE",
"749 939 CURVE SMOOTH",
"707 926 OFFCURVE",
"667 905 OFFCURVE",
"636 872 CURVE SMOOTH",
"576 807 OFFCURVE",
"554 719 OFFCURVE",
"547 635 CURVE",
"547 636 LINE",
"540 437 OFFCURVE",
"525 225 OFFCURVE",
"504 26 CURVE",
"485 25 OFFCURVE",
"464 23 OFFCURVE",
"441 22 CURVE SMOOTH",
"395 19 OFFCURVE",
"346 16 OFFCURVE",
"299 13 CURVE SMOOTH",
"276 11 OFFCURVE",
"255 9 OFFCURVE",
"236 7 CURVE",
"320 378 OFFCURVE",
"360 747 OFFCURVE",
"365 1120 CURVE",
"390 1117 OFFCURVE",
"427 1114 OFFCURVE",
"463 1111 CURVE SMOOTH",
"480 1110 OFFCURVE",
"498 1108 OFFCURVE",
"515 1107 CURVE SMOOTH",
"532 1106 OFFCURVE",
"547 1105 OFFCURVE",
"560 1104 CURVE",
"558 1016 LINE SMOOTH",
"558 1010 OFFCURVE",
"558 1006 OFFCURVE",
"558 1005 CURVE",
"557 1004 OFFCURVE",
"557 1003 OFFCURVE",
"557 1002 CURVE",
"556 1001 OFFCURVE",
"556 999 OFFCURVE",
"556 998 CURVE SMOOTH",
"556 997 OFFCURVE",
"556 993 OFFCURVE",
"556 987 CURVE",
"671 1067 OFFCURVE",
"787 1116 OFFCURVE",
"924 1116 CURVE SMOOTH",
"977 1116 OFFCURVE",
"1030 1106 OFFCURVE",
"1078 1085 CURVE SMOOTH",
"1125 1064 OFFCURVE",
"1165 1030 OFFCURVE",
"1190 982 CURVE",
"1226 902 OFFCURVE",
"1235 822 OFFCURVE",
"1235 743 CURVE SMOOTH",
"1235 719 OFFCURVE",
"1234 694 OFFCURVE",
"1233 670 CURVE SMOOTH"
);
}
);
width = 1481;
}
);
unicode = 006E;
},
{
glyphname = o;
lastChange = "2012-06-10 13:56:22 +0000";
layers = (
{
anchors = (
{
name = top;
position = "{693, 1108}";
}
);
layerId = "013FA67F-D7C9-4F04-AAC6-32032829ED9A";
name = Bold;
paths = (
{
closed = 1;
nodes = (
"602 967 OFFCURVE",
"518 936 OFFCURVE",
"465 868 CURVE SMOOTH",
"425 817 OFFCURVE",
"401 757 OFFCURVE",
"386 696 CURVE SMOOTH",
"370 635 OFFCURVE",
"366 570 OFFCURVE",
"366 513 CURVE SMOOTH",
"366 454 OFFCURVE",
"374 397 OFFCURVE",
"419 362 CURVE",
"418 363 LINE",
"478 324 OFFCURVE",
"551 318 OFFCURVE",
"623 318 CURVE SMOOTH",
"695 318 OFFCURVE",
"771 327 OFFCURVE",
"835 364 CURVE",
"834 364 LINE",
"879 395 OFFCURVE",
"903 448 OFFCURVE",
"916 504 CURVE SMOOTH",
"928 559 OFFCURVE",
"929 617 OFFCURVE",
"929 654 CURVE SMOOTH",
"929 730 OFFCURVE",
"917 806 OFFCURVE",
"880 869 CURVE SMOOTH",
"841 934 OFFCURVE",
"763 966 OFFCURVE",
"683 967 CURVE SMOOTH"
);
},
{
closed = 1;
nodes = (
"759 1114 OFFCURVE",
"827 1106 OFFCURVE",
"888 1084 CURVE SMOOTH",
"948 1062 OFFCURVE",
"1002 1026 OFFCURVE",
"1042 971 CURVE SMOOTH",
"1106 882 OFFCURVE",
"1125 774 OFFCURVE",
"1125 665 CURVE SMOOTH",
"1125 585 OFFCURVE",
"1117 491 OFFCURVE",
"1094 399 CURVE SMOOTH",
"1071 307 OFFCURVE",
"1031 217 OFFCURVE",
"970 145 CURVE",
"922 93 OFFCURVE",
"861 57 OFFCURVE",
"795 35 CURVE SMOOTH",
"729 13 OFFCURVE",
"659 3 OFFCURVE",
"594 3 CURVE SMOOTH",
"530 3 OFFCURVE",
"462 12 OFFCURVE",
"402 34 CURVE SMOOTH",
"341 56 OFFCURVE",
"286 91 OFFCURVE",
"249 146 CURVE",
"249 145 LINE",
"184 234 OFFCURVE",
"166 344 OFFCURVE",
"166 455 CURVE SMOOTH",
"166 534 OFFCURVE",
"173 628 OFFCURVE",
"196 720 CURVE SMOOTH",
"219 812 OFFCURVE",
"257 902 OFFCURVE",
"320 973 CURVE",
"369 1021 OFFCURVE",
"431 1057 OFFCURVE",
"496 1080 CURVE SMOOTH",
"561 1103 OFFCURVE",
"630 1114 OFFCURVE",
"694 1114 CURVE SMOOTH"
);
}
);
width = 1386;
}
);
unicode = 006F;
},
{
glyphname = p;
lastChange = "2012-06-10 13:56:22 +0000";
layers = (
{
layerId = "013FA67F-D7C9-4F04-AAC6-32032829ED9A";
name = Bold;
paths = (
{
closed = 1;
nodes = (
"803 -4 LINE SMOOTH",
"744 -4 OFFCURVE",
"686 9 OFFCURVE",
"635 34 CURVE SMOOTH",
"584 59 OFFCURVE",
"541 98 OFFCURVE",
"513 149 CURVE",
"490 -26 OFFCURVE",
"459 -209 OFFCURVE",
"430 -384 CURVE",
"416 -385 OFFCURVE",
"400 -387 OFFCURVE",
"383 -388 CURVE",
"366 -390 OFFCURVE",
"348 -392 OFFCURVE",
"330 -393 CURVE",
"311 -395 OFFCURVE",
"293 -397 OFFCURVE",
"276 -399 CURVE SMOOTH",
"258 -401 OFFCURVE",
"242 -403 OFFCURVE",
"229 -404 CURVE",
"328 104 OFFCURVE",
"383 603 OFFCURVE",
"403 1107 CURVE",
"430 1104 OFFCURVE",
"465 1101 OFFCURVE",
"501 1098 CURVE SMOOTH",
"537 1094 OFFCURVE",
"572 1091 OFFCURVE",
"599 1090 CURVE",
"584 991 LINE",
"579 962 LINE",
"618 1011 OFFCURVE",
"669 1047 OFFCURVE",
"726 1071 CURVE SMOOTH",
"782 1095 OFFCURVE",
"843 1107 OFFCURVE",
"902 1107 CURVE SMOOTH",
"931 1107 LINE SMOOTH",
"986 1107 OFFCURVE",
"1043 1092 OFFCURVE",
"1094 1067 CURVE SMOOTH",
"1145 1042 OFFCURVE",
"1190 1006 OFFCURVE",
"1222 963 CURVE",
"1277 879 OFFCURVE",
"1298 773 OFFCURVE",
"1298 672 CURVE SMOOTH",
"1298 587 OFFCURVE",
"1289 492 OFFCURVE",
"1265 400 CURVE SMOOTH",
"1241 308 OFFCURVE",
"1201 219 OFFCURVE",
"1138 146 CURVE",
"1139 146 LINE",
"1100 98 OFFCURVE",
"1052 62 OFFCURVE",
"999 36 CURVE SMOOTH",
"946 10 OFFCURVE",
"886 -4 OFFCURVE",
"829 -4 CURVE SMOOTH"
);
},
{
closed = 1;
nodes = (
"1168 588 LINE",
"1171 619 OFFCURVE",
"1173 647 OFFCURVE",
"1173 678 CURVE SMOOTH",
"1173 755 OFFCURVE",
"1156 829 OFFCURVE",
"1119 884 CURVE SMOOTH",
"1082 939 OFFCURVE",
"1024 974 OFFCURVE",
"944 974 CURVE SMOOTH",
"856 974 OFFCURVE",
"770 942 OFFCURVE",
"714 869 CURVE SMOOTH",
"674 820 OFFCURVE",
"649 760 OFFCURVE",
"635 698 CURVE SMOOTH",
"621 636 OFFCURVE",
"616 571 OFFCURVE",
"616 514 CURVE SMOOTH",
"616 450 OFFCURVE",
"626 386 OFFCURVE",
"675 347 CURVE",
"674 348 LINE",
"733 309 OFFCURVE",
"802 296 OFFCURVE",
"874 296 CURVE SMOOTH",
"945 296 OFFCURVE",
"1017 308 OFFCURVE",
"1077 348 CURVE",
"1075 347 LINE",
"1107 374 OFFCURVE",
"1128 410 OFFCURVE",
"1141 450 CURVE SMOOTH",
"1154 490 OFFCURVE",
"1161 532 OFFCURVE",
"1166 571 CURVE",
"1166 574 OFFCURVE",
"1166 576 OFFCURVE",
"1167 579 CURVE",
"1168 581 OFFCURVE",
"1168 583 OFFCURVE",
"1168 586 CURVE SMOOTH"
);
}
);
width = 1315;
}
);
unicode = 0070;
},
{
glyphname = q;
lastChange = "2012-06-10 13:56:22 +0000";
layers = (
{
layerId = "013FA67F-D7C9-4F04-AAC6-32032829ED9A";
name = Bold;
paths = (
{
closed = 1;
nodes = (
"173 575 OFFCURVE",
"173 571 OFFCURVE",
"173 568 CURVE",
"172 564 OFFCURVE",
"172 560 OFFCURVE",
"172 557 CURVE",
"171 541 OFFCURVE",
"170 525 OFFCURVE",
"170 510 CURVE SMOOTH",
"170 446 OFFCURVE",
"180 384 OFFCURVE",
"224 345 CURVE",
"222 346 LINE",
"275 307 OFFCURVE",
"348 300 OFFCURVE",
"417 300 CURVE SMOOTH",
"489 300 OFFCURVE",
"564 311 OFFCURVE",
"628 347 CURVE",
"626 347 LINE",
"674 380 OFFCURVE",
"700 439 OFFCURVE",
"713 499 CURVE SMOOTH",
"726 558 OFFCURVE",
"728 619 OFFCURVE",
"728 660 CURVE SMOOTH",
"728 736 OFFCURVE",
"715 806 OFFCURVE",
"679 867 CURVE SMOOTH",
"635 939 OFFCURVE",
"554 968 OFFCURVE",
"466 967 CURVE SMOOTH",
"429 967 OFFCURVE",
"391 958 OFFCURVE",
"356 942 CURVE SMOOTH",
"321 925 OFFCURVE",
"290 901 OFFCURVE",
"266 870 CURVE SMOOTH",
"233 827 OFFCURVE",
"212 779 OFFCURVE",
"198 730 CURVE SMOOTH",
"184 681 OFFCURVE",
"177 629 OFFCURVE",
"173 578 CURVE"
);
},
{
closed = 1;
nodes = (
"713 -210 OFFCURVE",
"725 -26 OFFCURVE",
"744 147 CURVE",
"707 99 OFFCURVE",
"659 62 OFFCURVE",
"605 36 CURVE SMOOTH",
"551 10 OFFCURVE",
"492 -4 OFFCURVE",
"435 -4 CURVE SMOOTH",
"407 -4 LINE SMOOTH",
"291 -4 OFFCURVE",
"182 50 OFFCURVE",
"122 146 CURVE SMOOTH",
"57 245 OFFCURVE",
"39 364 OFFCURVE",
"39 484 CURVE SMOOTH",
"39 560 OFFCURVE",
"47 647 OFFCURVE",
"69 731 CURVE SMOOTH",
"91 815 OFFCURVE",
"125 896 OFFCURVE",
"181 964 CURVE SMOOTH",
"261 1056 OFFCURVE",
"379 1108 OFFCURVE",
"494 1107 CURVE SMOOTH",
"528 1107 LINE SMOOTH",
"588 1107 OFFCURVE",
"647 1090 OFFCURVE",
"700 1062 CURVE SMOOTH",
"753 1033 OFFCURVE",
"799 992 OFFCURVE",
"831 945 CURVE",
"854 1035 LINE",
"870 1094 LINE",
"897 1095 OFFCURVE",
"933 1099 OFFCURVE",
"970 1103 CURVE SMOOTH",
"988 1105 OFFCURVE",
"1006 1107 OFFCURVE",
"1023 1109 CURVE",
"1040 1110 OFFCURVE",
"1056 1112 OFFCURVE",
"1069 1114 CURVE",
"969 605 OFFCURVE",
"911 104 OFFCURVE",
"898 -397 CURVE",
"897 -397 OFFCURVE",
"896 -397 OFFCURVE",
"893 -397 CURVE SMOOTH",
"890 -397 OFFCURVE",
"886 -397 OFFCURVE",
"883 -396 CURVE",
"880 -396 OFFCURVE",
"877 -396 OFFCURVE",
"874 -396 CURVE SMOOTH",
"871 -396 OFFCURVE",
"869 -396 OFFCURVE",
"868 -396 CURVE",
"819 -389 OFFCURVE",
"753 -384 OFFCURVE",
"702 -381 CURVE"
);
}
);
width = 1319;
}
);
unicode = 0071;
},
{
glyphname = r;
lastChange = "2012-06-10 13:56:22 +0000";
layers = (
{
anchors = (
{
name = bottom;
position = "{444, 0}";
},
{
name = top;
position = "{444, 1108}";
}
);
layerId = "013FA67F-D7C9-4F04-AAC6-32032829ED9A";
name = Bold;
paths = (
{
closed = 1;
nodes = (
"892 912 LINE",
"875 919 OFFCURVE",
"856 921 OFFCURVE",
"837 921 CURVE SMOOTH",
"790 921 OFFCURVE",
"739 917 OFFCURVE",
"691 902 CURVE SMOOTH",
"643 886 OFFCURVE",
"600 861 OFFCURVE",
"569 818 CURVE SMOOTH",
"514 741 OFFCURVE",
"495 646 OFFCURVE",
"486 557 CURVE",
"486 558 LINE",
"477 386 OFFCURVE",
"468 201 OFFCURVE",
"453 29 CURVE",
"376 26 OFFCURVE",
"293 18 OFFCURVE",
"201 6 CURVE",
"277 377 OFFCURVE",
"323 737 OFFCURVE",
"350 1096 CURVE",
"389 1092 OFFCURVE",
"443 1088 OFFCURVE",
"480 1085 CURVE",
"485 1085 OFFCURVE",
"492 1085 OFFCURVE",
"503 1084 CURVE SMOOTH",
"514 1083 OFFCURVE",
"521 1083 OFFCURVE",
"525 1083 CURVE",
"519 983 LINE",
"539 995 OFFCURVE",
"558 1005 OFFCURVE",
"578 1016 CURVE SMOOTH",
"624 1042 LINE SMOOTH",
"664 1066 OFFCURVE",
"710 1083 OFFCURVE",
"758 1094 CURVE SMOOTH",
"805 1105 OFFCURVE",
"851 1110 OFFCURVE",
"894 1110 CURVE SMOOTH",
"945 1110 LINE",
"941 1083 OFFCURVE",
"936 1053 OFFCURVE",
"931 1019 CURVE SMOOTH",
"926 985 OFFCURVE",
"921 955 OFFCURVE",
"918 928 CURVE"
);
}
);
width = 887;
}
);
unicode = 0072;
},
{
glyphname = s;
lastChange = "2012-06-10 13:56:22 +0000";
layers = (
{
anchors = (
{
name = bottom;
position = "{619, 0}";
},
{
name = top;
position = "{619, 1108}";
}
);
layerId = "013FA67F-D7C9-4F04-AAC6-32032829ED9A";
name = Bold;
paths = (
{
closed = 1;
nodes = (
"1032 1055 LINE",
"1057 1059 LINE",
"1049 1005 LINE",
"1046 992 OFFCURVE",
"1043 972 OFFCURVE",
"1040 953 CURVE",
"1039 944 OFFCURVE",
"1037 934 OFFCURVE",
"1036 925 CURVE",
"1034 916 OFFCURVE",
"1033 908 OFFCURVE",
"1032 901 CURVE",
"919 953 OFFCURVE",
"811 968 OFFCURVE",
"703 968 CURVE SMOOTH",
"648 968 OFFCURVE",
"586 959 OFFCURVE",
"537 934 CURVE SMOOTH",
"488 909 OFFCURVE",
"452 866 OFFCURVE",
"452 801 CURVE SMOOTH",
"452 744 OFFCURVE",
"491 708 OFFCURVE",
"543 684 CURVE SMOOTH",
"594 660 OFFCURVE",
"656 647 OFFCURVE",
"700 639 CURVE",
"719 634 LINE SMOOTH",
"763 623 OFFCURVE",
"809 611 OFFCURVE",
"851 595 CURVE SMOOTH",
"893 578 OFFCURVE",
"933 556 OFFCURVE",
"966 524 CURVE SMOOTH",
"1015 477 OFFCURVE",
"1032 406 OFFCURVE",
"1032 341 CURVE SMOOTH",
"1032 292 OFFCURVE",
"1023 240 OFFCURVE",
"1003 195 CURVE SMOOTH",
"982 150 OFFCURVE",
"950 108 OFFCURVE",
"903 79 CURVE SMOOTH",
"850 46 OFFCURVE",
"792 27 OFFCURVE",
"732 16 CURVE SMOOTH",
"672 5 OFFCURVE",
"611 3 OFFCURVE",
"554 3 CURVE SMOOTH",
"437 3 OFFCURVE",
"313 21 OFFCURVE",
"190 52 CURVE",
"197 92 OFFCURVE",
"204 143 OFFCURVE",
"212 193 CURVE SMOOTH",
"219 243 OFFCURVE",
"226 293 OFFCURVE",
"231 333 CURVE",
"343 273 OFFCURVE",
"459 241 OFFCURVE",
"572 241 CURVE SMOOTH",
"595 241 LINE",
"600 240 OFFCURVE",
"604 240 OFFCURVE",
"608 240 CURVE SMOOTH",
"611 240 OFFCURVE",
"615 240 OFFCURVE",
"619 240 CURVE SMOOTH",
"660 240 OFFCURVE",
"710 247 OFFCURVE",
"750 267 CURVE SMOOTH",
"790 287 OFFCURVE",
"820 318 OFFCURVE",
"824 366 CURVE",
"821 370 OFFCURVE",
"820 373 OFFCURVE",
"819 375 CURVE",
"813 386 OFFCURVE",
"807 398 OFFCURVE",
"801 409 CURVE SMOOTH",
"795 420 OFFCURVE",
"789 431 OFFCURVE",
"782 440 CURVE",
"758 459 OFFCURVE",
"727 472 OFFCURVE",
"694 482 CURVE SMOOTH",
"661 492 OFFCURVE",
"627 499 OFFCURVE",
"596 506 CURVE SMOOTH",
"558 515 LINE SMOOTH",
"519 524 OFFCURVE",
"480 534 OFFCURVE",
"442 550 CURVE SMOOTH",
"404 565 OFFCURVE",
"366 584 OFFCURVE",
"337 612 CURVE SMOOTH",
"292 656 OFFCURVE",
"279 725 OFFCURVE",
"279 789 CURVE SMOOTH",
"279 844 OFFCURVE",
"291 902 OFFCURVE",
"317 952 CURVE SMOOTH",
"343 1002 OFFCURVE",
"383 1043 OFFCURVE",
"442 1067 CURVE SMOOTH",
"539 1106 OFFCURVE",
"622 1114 OFFCURVE",
"709 1114 CURVE SMOOTH",
"825 1114 OFFCURVE",
"939 1107 OFFCURVE",
"1048 1072 CURVE"
);
}
);
width = 1237;
}
);
unicode = 0073;
},
{
glyphname = t;
lastChange = "2012-06-10 13:56:22 +0000";
layers = (
{
anchors = (
{
name = bottom;
position = "{421, 0}";
},
{
name = center;
position = "{421, 554}";
}
);
layerId = "013FA67F-D7C9-4F04-AAC6-32032829ED9A";
name = Bold;
paths = (
{
closed = 1;
nodes = (
"432 1330 LINE",
"429 1308 OFFCURVE",
"427 1286 OFFCURVE",
"425 1263 CURVE",
"422 1240 OFFCURVE",
"419 1217 OFFCURVE",
"416 1195 CURVE",
"416 1196 LINE",
"404 1092 LINE",
"421 1092 LINE SMOOTH",
"454 1092 OFFCURVE",
"493 1093 OFFCURVE",
"532 1095 CURVE SMOOTH",
"551 1096 OFFCURVE",
"571 1096 OFFCURVE",
"590 1097 CURVE SMOOTH",
"609 1098 OFFCURVE",
"627 1099 OFFCURVE",
"644 1100 CURVE",
"638 1031 LINE",
"635 1008 OFFCURVE",
"630 968 OFFCURVE",
"626 945 CURVE",
"561 942 OFFCURVE",
"480 939 OFFCURVE",
"413 939 CURVE SMOOTH",
"390 939 LINE",
"385 895 OFFCURVE",
"379 847 OFFCURVE",
"375 803 CURVE SMOOTH",
"370 752 OFFCURVE",
"364 701 OFFCURVE",
"359 650 CURVE SMOOTH",
"354 599 OFFCURVE",
"348 547 OFFCURVE",
"343 496 CURVE",
"343 492 OFFCURVE",
"343 488 OFFCURVE",
"343 485 CURVE",
"342 482 OFFCURVE",
"342 478 OFFCURVE",
"342 475 CURVE",
"341 459 OFFCURVE",
"340 446 OFFCURVE",
"340 430 CURVE SMOOTH",
"340 397 OFFCURVE",
"342 364 OFFCURVE",
"361 340 CURVE",
"359 343 LINE",
"390 312 OFFCURVE",
"443 310 OFFCURVE",
"491 307 CURVE SMOOTH",
"547 304 OFFCURVE",
"619 299 OFFCURVE",
"675 292 CURVE",
"674 271 OFFCURVE",
"673 249 OFFCURVE",
"672 224 CURVE SMOOTH",
"671 199 OFFCURVE",
"671 174 OFFCURVE",
"670 149 CURVE SMOOTH",
"668 98 OFFCURVE",
"666 47 OFFCURVE",
"666 6 CURVE",
"642 10 OFFCURVE",
"613 14 OFFCURVE",
"584 18 CURVE",
"569 19 OFFCURVE",
"555 21 OFFCURVE",
"540 23 CURVE",
"525 24 OFFCURVE",
"512 26 OFFCURVE",
"500 27 CURVE SMOOTH",
"474 30 LINE",
"440 33 LINE SMOOTH",
"397 37 OFFCURVE",
"351 40 OFFCURVE",
"308 51 CURVE SMOOTH",
"264 62 OFFCURVE",
"222 79 OFFCURVE",
"189 107 CURVE",
"138 158 OFFCURVE",
"127 226 OFFCURVE",
"127 294 CURVE SMOOTH",
"127 325 OFFCURVE",
"129 357 OFFCURVE",
"132 385 CURVE SMOOTH",
"137 433 OFFCURVE",
"143 480 OFFCURVE",
"148 527 CURVE SMOOTH",
"159 619 OFFCURVE",
"169 710 OFFCURVE",
"178 803 CURVE SMOOTH",
"183 849 OFFCURVE",
"187 896 OFFCURVE",
"191 944 CURVE",
"152 947 OFFCURVE",
"103 950 OFFCURVE",
"70 954 CURVE",
"71 966 OFFCURVE",
"71 981 OFFCURVE",
"72 999 CURVE SMOOTH",
"73 1017 OFFCURVE",
"74 1032 OFFCURVE",
"75 1044 CURVE",
"75 1043 LINE",
"79 1112 LINE",
"123 1106 LINE SMOOTH",
"139 1104 OFFCURVE",
"152 1102 OFFCURVE",
"162 1101 CURVE SMOOTH",
"172 1100 OFFCURVE",
"185 1098 OFFCURVE",
"202 1097 CURVE",
"206 1139 OFFCURVE",
"210 1183 OFFCURVE",
"215 1230 CURVE SMOOTH",
"220 1276 OFFCURVE",
"224 1319 OFFCURVE",
"227 1360 CURVE",
"299 1353 OFFCURVE",
"358 1351 OFFCURVE",
"413 1351 CURVE"
);
}
);
width = 842;
}
);
unicode = 0074;
},
{
glyphname = u;
lastChange = "2012-06-10 13:56:22 +0000";
layers = (
{
anchors = (
{
name = ogonek;
position = "{1305, 10}";
},
{
name = top;
position = "{725, 1108}";
}
);
layerId = "013FA67F-D7C9-4F04-AAC6-32032829ED9A";
name = Bold;
paths = (
{
closed = 1;
nodes = (
"256 635 OFFCURVE",
"267 818 OFFCURVE",
"267 1005 CURVE SMOOTH",
"267 1012 OFFCURVE",
"267 1020 OFFCURVE",
"267 1027 CURVE",
"266 1034 OFFCURVE",
"266 1041 OFFCURVE",
"266 1048 CURVE SMOOTH",
"266 1114 LINE",
"272 1113 OFFCURVE",
"279 1113 OFFCURVE",
"287 1112 CURVE SMOOTH",
"295 1111 OFFCURVE",
"303 1110 OFFCURVE",
"312 1109 CURVE SMOOTH",
"321 1108 OFFCURVE",
"329 1107 OFFCURVE",
"338 1106 CURVE SMOOTH",
"346 1105 OFFCURVE",
"353 1104 OFFCURVE",
"359 1103 CURVE",
"432 1097 LINE",
"429 938 OFFCURVE",
"421 763 OFFCURVE",
"409 603 CURVE",
"409 589 LINE SMOOTH",
"409 586 OFFCURVE",
"409 583 OFFCURVE",
"409 580 CURVE",
"408 577 OFFCURVE",
"408 574 OFFCURVE",
"408 571 CURVE SMOOTH",
"408 511 OFFCURVE",
"415 450 OFFCURVE",
"440 398 CURVE",
"439 399 LINE",
"472 340 OFFCURVE",
"530 319 OFFCURVE",
"586 319 CURVE SMOOTH",
"666 319 OFFCURVE",
"746 340 OFFCURVE",
"806 404 CURVE",
"806 403 LINE",
"866 470 OFFCURVE",
"895 556 OFFCURVE",
"908 641 CURVE",
"908 640 LINE",
"924 788 OFFCURVE",
"950 949 OFFCURVE",
"975 1096 CURVE",
"1007 1097 OFFCURVE",
"1049 1100 OFFCURVE",
"1091 1104 CURVE SMOOTH",
"1133 1107 OFFCURVE",
"1174 1110 OFFCURVE",
"1206 1114 CURVE",
"1126 743 OFFCURVE",
"1085 377 OFFCURVE",
"1084 10 CURVE",
"1071 11 OFFCURVE",
"1056 12 OFFCURVE",
"1039 13 CURVE SMOOTH",
"1005 16 OFFCURVE",
"968 19 OFFCURVE",
"933 21 CURVE SMOOTH",
"916 22 OFFCURVE",
"901 22 OFFCURVE",
"888 23 CURVE",
"891 63 OFFCURVE",
"894 117 OFFCURVE",
"899 160 CURVE",
"815 64 OFFCURVE",
"695 1 OFFCURVE",
"570 1 CURVE SMOOTH",
"544 1 LINE SMOOTH",
"489 1 OFFCURVE",
"435 10 OFFCURVE",
"387 31 CURVE SMOOTH",
"338 51 OFFCURVE",
"296 85 OFFCURVE",
"271 133 CURVE",
"240 205 OFFCURVE",
"231 275 OFFCURVE",
"231 346 CURVE SMOOTH",
"231 381 OFFCURVE",
"233 415 OFFCURVE",
"236 448 CURVE SMOOTH"
);
}
);
width = 1450;
}
);
unicode = 0075;
},
{
glyphname = v;
lastChange = "2012-06-10 13:56:22 +0000";
layers = (
{
layerId = "013FA67F-D7C9-4F04-AAC6-32032829ED9A";
name = Bold;
paths = (
{
closed = 1;
nodes = (
"137 1106 LINE SMOOTH",
"180 1102 OFFCURVE",
"231 1097 OFFCURVE",
"272 1096 CURVE",
"360 885 OFFCURVE",
"437 657 OFFCURVE",
"509 440 CURVE SMOOTH",
"512 431 OFFCURVE",
"514 423 OFFCURVE",
"517 416 CURVE",
"519 409 OFFCURVE",
"521 403 OFFCURVE",
"523 396 CURVE SMOOTH",
"527 382 OFFCURVE",
"532 367 OFFCURVE",
"540 346 CURVE",
"598 460 LINE SMOOTH",
"705 673 OFFCURVE",
"816 892 OFFCURVE",
"939 1096 CURVE",
"953 1097 OFFCURVE",
"970 1098 OFFCURVE",
"989 1100 CURVE",
"1008 1101 OFFCURVE",
"1027 1103 OFFCURVE",
"1047 1104 CURVE SMOOTH",
"1087 1107 OFFCURVE",
"1127 1110 OFFCURVE",
"1155 1113 CURVE",
"1066 957 OFFCURVE",
"990 805 OFFCURVE",
"922 656 CURVE SMOOTH",
"853 507 OFFCURVE",
"790 360 OFFCURVE",
"729 212 CURVE SMOOTH",
"652 29 LINE",
"635 30 OFFCURVE",
"615 30 OFFCURVE",
"593 30 CURVE SMOOTH",
"571 30 OFFCURVE",
"551 30 OFFCURVE",
"534 30 CURVE SMOOTH",
"464 30 LINE SMOOTH",
"451 30 OFFCURVE",
"437 30 OFFCURVE",
"420 30 CURVE",
"403 29 OFFCURVE",
"389 29 OFFCURVE",
"377 29 CURVE",
"365 72 OFFCURVE",
"353 118 OFFCURVE",
"341 165 CURVE SMOOTH",
"317 260 OFFCURVE",
"290 367 OFFCURVE",
"256 500 CURVE SMOOTH",
"222 632 OFFCURVE",
"184 766 OFFCURVE",
"140 903 CURVE SMOOTH",
"117 972 OFFCURVE",
"93 1042 OFFCURVE",
"66 1113 CURVE"
);
}
);
width = 1264;
}
);
unicode = 0076;
},
{
glyphname = w;
lastChange = "2012-06-10 13:56:22 +0000";
layers = (
{
anchors = (
{
name = top;
position = "{916, 1108}";
}
);
layerId = "013FA67F-D7C9-4F04-AAC6-32032829ED9A";
name = Bold;
paths = (
{
closed = 1;
nodes = (
"176 1110 LINE",
"227 1106 OFFCURVE",
"291 1102 OFFCURVE",
"343 1099 CURVE",
"426 856 OFFCURVE",
"476 618 OFFCURVE",
"516 378 CURVE",
"539 418 OFFCURVE",
"562 457 OFFCURVE",
"585 494 CURVE SMOOTH",
"607 531 OFFCURVE",
"629 569 OFFCURVE",
"652 608 CURVE SMOOTH",
"664 629 OFFCURVE",
"677 652 OFFCURVE",
"692 677 CURVE SMOOTH",
"707 701 OFFCURVE",
"720 724 OFFCURVE",
"732 745 CURVE",
"882 745 LINE SMOOTH",
"910 745 OFFCURVE",
"950 746 OFFCURVE",
"978 747 CURVE",
"1005 679 OFFCURVE",
"1028 621 OFFCURVE",
"1052 562 CURVE SMOOTH",
"1076 502 OFFCURVE",
"1100 444 OFFCURVE",
"1129 377 CURVE",
"1213 618 OFFCURVE",
"1303 859 OFFCURVE",
"1431 1100 CURVE",
"1496 1104 LINE SMOOTH",
"1513 1105 OFFCURVE",
"1540 1107 OFFCURVE",
"1566 1108 CURVE",
"1579 1109 OFFCURVE",
"1591 1110 OFFCURVE",
"1604 1111 CURVE SMOOTH",
"1616 1112 OFFCURVE",
"1626 1112 OFFCURVE",
"1635 1113 CURVE",
"1540 934 OFFCURVE",
"1464 753 OFFCURVE",
"1401 570 CURVE SMOOTH",
"1337 387 OFFCURVE",
"1287 203 OFFCURVE",
"1246 22 CURVE",
"1219 23 OFFCURVE",
"1191 24 OFFCURVE",
"1160 25 CURVE SMOOTH",
"1129 26 OFFCURVE",
"1101 26 OFFCURVE",
"1075 27 CURVE",
"1062 27 OFFCURVE",
"1047 27 OFFCURVE",
"1030 28 CURVE SMOOTH",
"1012 29 OFFCURVE",
"997 29 OFFCURVE",
"984 29 CURVE",
"953 109 OFFCURVE",
"928 181 OFFCURVE",
"904 254 CURVE SMOOTH",
"879 326 OFFCURVE",
"856 399 OFFCURVE",
"832 482 CURVE",
"757 331 OFFCURVE",
"676 173 OFFCURVE",
"595 28 CURVE",
"552 28 OFFCURVE",
"500 26 OFFCURVE",
"457 25 CURVE SMOOTH",
"449 25 OFFCURVE",
"440 25 OFFCURVE",
"430 25 CURVE",
"409 24 OFFCURVE",
"387 23 OFFCURVE",
"367 23 CURVE SMOOTH",
"357 23 OFFCURVE",
"348 23 OFFCURVE",
"341 23 CURVE",
"326 207 OFFCURVE",
"308 390 OFFCURVE",
"279 568 CURVE SMOOTH",
"250 746 OFFCURVE",
"211 918 OFFCURVE",
"156 1085 CURVE"
);
}
);
width = 1831;
}
);
unicode = 0077;
},
{
glyphname = x;
lastChange = "2012-06-10 13:56:22 +0000";
layers = (
{
layerId = "013FA67F-D7C9-4F04-AAC6-32032829ED9A";
name = Bold;
paths = (
{
closed = 1;
nodes = (
"1300 1075 LINE",
"1155 902 OFFCURVE",
"1025 726 OFFCURVE",
"890 543 CURVE",
"890 544 LINE",
"887 539 OFFCURVE",
"885 537 OFFCURVE",
"884 536 CURVE SMOOTH",
"883 535 OFFCURVE",
"880 532 OFFCURVE",
"877 527 CURVE",
"937 443 OFFCURVE",
"1005 353 OFFCURVE",
"1074 263 CURVE SMOOTH",
"1142 173 OFFCURVE",
"1211 85 OFFCURVE",
"1275 6 CURVE",
"1232 10 OFFCURVE",
"1175 14 OFFCURVE",
"1118 18 CURVE SMOOTH",
"1061 21 OFFCURVE",
"1004 24 OFFCURVE",
"961 25 CURVE",
"921 86 OFFCURVE",
"886 144 OFFCURVE",
"851 202 CURVE SMOOTH",
"815 260 OFFCURVE",
"782 318 OFFCURVE",
"747 381 CURVE",
"654 261 OFFCURVE",
"554 140 OFFCURVE",
"455 25 CURVE",
"411 24 OFFCURVE",
"354 21 OFFCURVE",
"296 17 CURVE SMOOTH",
"267 15 OFFCURVE",
"238 13 OFFCURVE",
"210 12 CURVE",
"182 10 OFFCURVE",
"157 8 OFFCURVE",
"135 6 CURVE",
"215 89 OFFCURVE",
"302 179 OFFCURVE",
"387 270 CURVE SMOOTH",
"471 361 OFFCURVE",
"555 452 OFFCURVE",
"631 539 CURVE",
"579 631 OFFCURVE",
"523 730 OFFCURVE",
"465 827 CURVE SMOOTH",
"407 924 OFFCURVE",
"347 1021 OFFCURVE",
"290 1109 CURVE",
"304 1108 OFFCURVE",
"321 1106 OFFCURVE",
"340 1105 CURVE SMOOTH",
"359 1104 OFFCURVE",
"378 1102 OFFCURVE",
"398 1101 CURVE",
"437 1097 OFFCURVE",
"477 1095 OFFCURVE",
"505 1094 CURVE",
"598 951 OFFCURVE",
"676 820 OFFCURVE",
"760 672 CURVE",
"876 816 OFFCURVE",
"998 960 OFFCURVE",
"1119 1096 CURVE",
"1172 1099 OFFCURVE",
"1232 1102 OFFCURVE",
"1284 1107 CURVE"
);
}
);
width = 1491;
}
);
unicode = 0078;
},
{
glyphname = y;
lastChange = "2012-06-10 13:56:22 +0000";
layers = (
{
anchors = (
{
name = top;
position = "{663, 1108}";
}
);
layerId = "013FA67F-D7C9-4F04-AAC6-32032829ED9A";
name = Bold;
paths = (
{
closed = 1;
nodes = (
"776 -69 LINE",
"751 -117 OFFCURVE",
"724 -166 OFFCURVE",
"693 -211 CURVE SMOOTH",
"661 -256 OFFCURVE",
"625 -299 OFFCURVE",
"578 -335 CURVE",
"534 -366 OFFCURVE",
"488 -382 OFFCURVE",
"441 -392 CURVE SMOOTH",
"393 -402 OFFCURVE",
"344 -405 OFFCURVE",
"295 -408 CURVE",
"288 -409 OFFCURVE",
"279 -409 OFFCURVE",
"270 -410 CURVE",
"251 -411 OFFCURVE",
"231 -413 OFFCURVE",
"212 -415 CURVE SMOOTH",
"203 -416 OFFCURVE",
"195 -417 OFFCURVE",
"188 -418 CURVE",
"192 -397 OFFCURVE",
"197 -369 OFFCURVE",
"202 -341 CURVE SMOOTH",
"206 -313 OFFCURVE",
"210 -285 OFFCURVE",
"213 -264 CURVE SMOOTH",
"215 -250 OFFCURVE",
"218 -233 OFFCURVE",
"221 -214 CURVE SMOOTH",
"224 -195 OFFCURVE",
"227 -178 OFFCURVE",
"229 -163 CURVE",
"238 -162 OFFCURVE",
"251 -161 OFFCURVE",
"266 -160 CURVE SMOOTH",
"281 -159 OFFCURVE",
"293 -159 OFFCURVE",
"302 -158 CURVE",
"362 -155 OFFCURVE",
"419 -153 OFFCURVE",
"466 -118 CURVE",
"465 -119 LINE",
"500 -90 OFFCURVE",
"529 -59 OFFCURVE",
"560 -26 CURVE",
"580 11 OFFCURVE",
"602 49 OFFCURVE",
"625 85 CURVE",
"644 118 LINE",
"617 191 LINE SMOOTH",
"562 338 OFFCURVE",
"503 497 OFFCURVE",
"442 656 CURVE SMOOTH",
"381 815 OFFCURVE",
"319 972 OFFCURVE",
"259 1115 CURVE",
"286 1111 OFFCURVE",
"325 1106 OFFCURVE",
"363 1102 CURVE SMOOTH",
"401 1097 OFFCURVE",
"439 1092 OFFCURVE",
"467 1091 CURVE",
"524 987 OFFCURVE",
"578 890 OFFCURVE",
"631 791 CURVE SMOOTH",
"683 692 OFFCURVE",
"735 593 OFFCURVE",
"788 488 CURVE",
"896 685 OFFCURVE",
"1016 900 OFFCURVE",
"1133 1092 CURVE",
"1161 1093 OFFCURVE",
"1201 1098 OFFCURVE",
"1241 1103 CURVE SMOOTH",
"1261 1105 OFFCURVE",
"1281 1107 OFFCURVE",
"1300 1109 CURVE SMOOTH",
"1319 1111 OFFCURVE",
"1336 1113 OFFCURVE",
"1350 1115 CURVE",
"1190 822 OFFCURVE",
"1037 495 OFFCURVE",
"898 194 CURVE SMOOTH"
);
}
);
width = 1325;
}
);
unicode = 0079;
},
{
glyphname = z;
lastChange = "2012-06-10 13:56:22 +0000";
layers = (
{
anchors = (
{
name = top;
position = "{675, 1108}";
}
);
layerId = "013FA67F-D7C9-4F04-AAC6-32032829ED9A";
name = Bold;
paths = (
{
closed = 1;
nodes = (
"318 1105 LINE",
"443 1094 OFFCURVE",
"568 1088 OFFCURVE",
"695 1088 CURVE SMOOTH",
"838 1088 OFFCURVE",
"990 1096 OFFCURVE",
"1157 1113 CURVE",
"1152 1088 OFFCURVE",
"1146 1055 OFFCURVE",
"1140 1023 CURVE SMOOTH",
"1137 1006 OFFCURVE",
"1134 990 OFFCURVE",
"1131 975 CURVE SMOOTH",
"1128 959 OFFCURVE",
"1125 945 OFFCURVE",
"1123 932 CURVE",
"1082 890 OFFCURVE",
"1040 847 OFFCURVE",
"998 804 CURVE SMOOTH",
"956 760 OFFCURVE",
"915 717 OFFCURVE",
"874 675 CURVE SMOOTH",
"839 639 OFFCURVE",
"807 605 OFFCURVE",
"776 573 CURVE SMOOTH",
"715 508 OFFCURVE",
"655 445 OFFCURVE",
"592 381 CURVE SMOOTH",
"561 349 OFFCURVE",
"527 315 OFFCURVE",
"492 280 CURVE",
"519 281 OFFCURVE",
"546 281 OFFCURVE",
"572 281 CURVE SMOOTH",
"598 281 OFFCURVE",
"625 281 OFFCURVE",
"652 281 CURVE SMOOTH",
"779 281 OFFCURVE",
"923 276 OFFCURVE",
"1048 268 CURVE",
"1047 240 OFFCURVE",
"1046 194 OFFCURVE",
"1046 166 CURVE SMOOTH",
"1046 121 OFFCURVE",
"1047 54 OFFCURVE",
"1048 9 CURVE",
"898 23 OFFCURVE",
"753 30 OFFCURVE",
"614 30 CURVE SMOOTH",
"473 30 OFFCURVE",
"321 22 OFFCURVE",
"154 7 CURVE",
"163 47 OFFCURVE",
"172 96 OFFCURVE",
"181 145 CURVE SMOOTH",
"189 193 OFFCURVE",
"197 242 OFFCURVE",
"204 283 CURVE",
"324 400 OFFCURVE",
"437 508 OFFCURVE",
"551 616 CURVE SMOOTH",
"608 669 OFFCURVE",
"665 723 OFFCURVE",
"723 777 CURVE SMOOTH",
"781 831 OFFCURVE",
"841 887 OFFCURVE",
"902 944 CURVE",
"826 941 OFFCURVE",
"749 940 OFFCURVE",
"673 940 CURVE SMOOTH",
"548 940 OFFCURVE",
"424 944 OFFCURVE",
"296 955 CURVE",
"296 1086 LINE"
);
}
);
width = 1350;
}
);
unicode = 007A;
},
{
glyphname = braceleft;
lastChange = "2012-06-10 13:56:22 +0000";
layers = (
{
layerId = "013FA67F-D7C9-4F04-AAC6-32032829ED9A";
name = Bold;
paths = (
{
closed = 1;
nodes = (
"677 -126 LINE",
"676 -139 OFFCURVE",
"676 -152 OFFCURVE",
"676 -165 CURVE",
"675 -178 OFFCURVE",
"674 -192 OFFCURVE",
"673 -205 CURVE SMOOTH",
"672 -222 OFFCURVE",
"670 -244 OFFCURVE",
"670 -267 CURVE",
"669 -278 OFFCURVE",
"669 -289 OFFCURVE",
"668 -299 CURVE SMOOTH",
"667 -310 OFFCURVE",
"667 -319 OFFCURVE",
"667 -327 CURVE",
"576 -313 LINE SMOOTH",
"527 -305 OFFCURVE",
"473 -297 OFFCURVE",
"421 -282 CURVE SMOOTH",
"369 -267 OFFCURVE",
"320 -246 OFFCURVE",
"281 -214 CURVE",
"230 -154 OFFCURVE",
"220 -78 OFFCURVE",
"220 -1 CURVE SMOOTH",
"220 55 OFFCURVE",
"226 107 OFFCURVE",
"233 163 CURVE SMOOTH",
"240 218 OFFCURVE",
"246 272 OFFCURVE",
"246 324 CURVE SMOOTH",
"246 380 OFFCURVE",
"243 437 OFFCURVE",
"215 482 CURVE",
"216 481 LINE",
"199 502 OFFCURVE",
"174 515 OFFCURVE",
"146 523 CURVE SMOOTH",
"117 531 OFFCURVE",
"85 534 OFFCURVE",
"56 535 CURVE SMOOTH",
"50 535 LINE SMOOTH",
"47 535 OFFCURVE",
"45 535 OFFCURVE",
"43 536 CURVE",
"40 536 OFFCURVE",
"38 536 OFFCURVE",
"35 536 CURVE SMOOTH",
"-10 536 LINE",
"-10 541 OFFCURVE",
"-10 547 OFFCURVE",
"-9 554 CURVE SMOOTH",
"-8 561 OFFCURVE",
"-8 568 OFFCURVE",
"-7 576 CURVE",
"-6 591 OFFCURVE",
"-4 605 OFFCURVE",
"-3 616 CURVE SMOOTH",
"5 694 LINE",
"18 694 OFFCURVE",
"28 694 OFFCURVE",
"33 694 CURVE",
"38 693 OFFCURVE",
"43 693 OFFCURVE",
"46 692 CURVE SMOOTH",
"49 691 OFFCURVE",
"52 691 OFFCURVE",
"55 691 CURVE SMOOTH",
"57 691 OFFCURVE",
"60 691 OFFCURVE",
"63 691 CURVE SMOOTH",
"123 691 OFFCURVE",
"198 705 OFFCURVE",
"247 741 CURVE",
"268 765 OFFCURVE",
"284 795 OFFCURVE",
"293 827 CURVE SMOOTH",
"302 859 OFFCURVE",
"308 893 OFFCURVE",
"312 924 CURVE",
"315 960 OFFCURVE",
"319 999 OFFCURVE",
"323 1035 CURVE SMOOTH",
"335 1147 LINE",
"342 1195 OFFCURVE",
"348 1247 OFFCURVE",
"364 1296 CURVE SMOOTH",
"380 1344 OFFCURVE",
"404 1389 OFFCURVE",
"447 1425 CURVE",
"536 1478 OFFCURVE",
"635 1497 OFFCURVE",
"731 1512 CURVE",
"740 1513 OFFCURVE",
"750 1515 OFFCURVE",
"762 1518 CURVE",
"774 1520 OFFCURVE",
"786 1522 OFFCURVE",
"799 1525 CURVE",
"824 1529 OFFCURVE",
"849 1534 OFFCURVE",
"866 1538 CURVE",
"862 1518 OFFCURVE",
"856 1487 OFFCURVE",
"851 1457 CURVE SMOOTH",
"848 1442 OFFCURVE",
"846 1427 OFFCURVE",
"843 1412 CURVE SMOOTH",
"840 1397 OFFCURVE",
"838 1385 OFFCURVE",
"837 1375 CURVE",
"798 1364 OFFCURVE",
"775 1361 OFFCURVE",
"752 1357 CURVE SMOOTH",
"692 1348 OFFCURVE",
"628 1338 OFFCURVE",
"581 1301 CURVE",
"583 1304 LINE",
"547 1265 OFFCURVE",
"539 1207 OFFCURVE",
"531 1154 CURVE SMOOTH",
"528 1136 LINE",
"528 1137 LINE",
"523 1098 OFFCURVE",
"518 1060 OFFCURVE",
"514 1021 CURVE SMOOTH",
"509 982 OFFCURVE",
"505 945 OFFCURVE",
"501 906 CURVE SMOOTH",
"493 834 OFFCURVE",
"481 756 OFFCURVE",
"436 688 CURVE",
"404 647 OFFCURVE",
"358 621 OFFCURVE",
"310 606 CURVE",
"353 589 OFFCURVE",
"395 561 OFFCURVE",
"414 517 CURVE SMOOTH",
"437 464 OFFCURVE",
"439 409 OFFCURVE",
"439 353 CURVE SMOOTH",
"439 317 LINE",
"427 201 LINE",
"426 182 OFFCURVE",
"424 162 OFFCURVE",
"422 143 CURVE SMOOTH",
"420 124 OFFCURVE",
"418 104 OFFCURVE",
"417 85 CURVE",
"417 38 OFFCURVE",
"419 -8 OFFCURVE",
"446 -43 CURVE",
"477 -74 OFFCURVE",
"534 -86 OFFCURVE",
"582 -93 CURVE",
"604 -97 LINE SMOOTH",
"609 -98 OFFCURVE",
"614 -99 OFFCURVE",
"620 -99 CURVE",
"625 -100 OFFCURVE",
"630 -100 OFFCURVE",
"633 -101 CURVE SMOOTH",
"642 -104 OFFCURVE",
"650 -105 OFFCURVE",
"657 -105 CURVE"
);
}
);
width = 938;
}
);
unicode = 007B;
},
{
glyphname = bar;
lastChange = "2012-06-10 13:56:22 +0000";
layers = (
{
layerId = "013FA67F-D7C9-4F04-AAC6-32032829ED9A";
name = Bold;
paths = (
{
closed = 1;
nodes = (
"263 -428 LINE",
"248 -425 OFFCURVE",
"234 -424 OFFCURVE",
"222 -424 CURVE SMOOTH",
"182 -424 OFFCURVE",
"132 -443 OFFCURVE",
"72 -482 CURVE",
"96 -322 OFFCURVE",
"122 -147 OFFCURVE",
"147 29 CURVE SMOOTH",
"172 204 OFFCURVE",
"196 379 OFFCURVE",
"217 539 CURVE",
"228 539 OFFCURVE",
"242 539 OFFCURVE",
"258 539 CURVE SMOOTH",
"273 539 OFFCURVE",
"289 539 OFFCURVE",
"306 539 CURVE SMOOTH",
"322 539 OFFCURVE",
"338 539 OFFCURVE",
"354 540 CURVE",
"369 540 OFFCURVE",
"383 540 OFFCURVE",
"395 540 CURVE",
"358 229 OFFCURVE",
"321 -99 OFFCURVE",
"286 -411 CURVE"
);
},
{
closed = 1;
nodes = (
"282 1069 LINE SMOOTH",
"299 1212 OFFCURVE",
"320 1376 OFFCURVE",
"339 1520 CURVE",
"354 1517 OFFCURVE",
"365 1515 OFFCURVE",
"370 1514 CURVE SMOOTH",
"375 1513 OFFCURVE",
"380 1513 OFFCURVE",
"383 1513 CURVE SMOOTH",
"423 1513 OFFCURVE",
"476 1536 OFFCURVE",
"532 1575 CURVE",
"521 1501 OFFCURVE",
"510 1424 OFFCURVE",
"499 1343 CURVE SMOOTH",
"488 1262 OFFCURVE",
"476 1181 OFFCURVE",
"465 1099 CURVE SMOOTH",
"453 1017 OFFCURVE",
"442 936 OFFCURVE",
"431 855 CURVE SMOOTH",
"420 774 OFFCURVE",
"410 697 OFFCURVE",
"400 622 CURVE",
"365 619 OFFCURVE",
"340 619 OFFCURVE",
"315 619 CURVE SMOOTH",
"309 619 OFFCURVE",
"302 619 OFFCURVE",
"294 619 CURVE SMOOTH",
"278 619 OFFCURVE",
"260 620 OFFCURVE",
"244 621 CURVE",
"236 621 OFFCURVE",
"229 621 OFFCURVE",
"224 621 CURVE"
);
}
);
width = 481;
}
);
unicode = 007C;
},
{
glyphname = braceright;
lastChange = "2012-06-10 13:56:22 +0000";
layers = (
{
layerId = "013FA67F-D7C9-4F04-AAC6-32032829ED9A";
name = Bold;
paths = (
{
closed = 1;
nodes = (
"177 -139 LINE SMOOTH",
"209 -135 OFFCURVE",
"246 -131 OFFCURVE",
"280 -122 CURVE SMOOTH",
"314 -114 OFFCURVE",
"347 -101 OFFCURVE",
"371 -81 CURVE",
"369 -82 LINE",
"408 -39 OFFCURVE",
"418 22 OFFCURVE",
"425 78 CURVE",
"425 79 OFFCURVE",
"425 81 OFFCURVE",
"426 82 CURVE",
"426 83 OFFCURVE",
"426 85 OFFCURVE",
"426 87 CURVE",
"428 106 LINE SMOOTH",
"431 142 OFFCURVE",
"434 178 OFFCURVE",
"437 213 CURVE SMOOTH",
"444 284 OFFCURVE",
"448 354 OFFCURVE",
"464 426 CURVE SMOOTH",
"472 461 OFFCURVE",
"487 495 OFFCURVE",
"508 527 CURVE",
"539 568 OFFCURVE",
"589 594 OFFCURVE",
"644 609 CURVE",
"595 624 OFFCURVE",
"547 651 OFFCURVE",
"523 698 CURVE",
"523 697 LINE",
"500 740 OFFCURVE",
"496 791 OFFCURVE",
"496 838 CURVE SMOOTH",
"496 902 OFFCURVE",
"501 964 OFFCURVE",
"508 1027 CURVE SMOOTH",
"515 1090 OFFCURVE",
"521 1153 OFFCURVE",
"521 1210 CURVE SMOOTH",
"521 1246 OFFCURVE",
"514 1287 OFFCURVE",
"495 1316 CURVE",
"475 1333 OFFCURVE",
"446 1346 OFFCURVE",
"415 1355 CURVE SMOOTH",
"383 1364 OFFCURVE",
"349 1370 OFFCURVE",
"320 1375 CURVE SMOOTH",
"256 1387 LINE",
"258 1464 LINE",
"262 1549 LINE",
"278 1545 OFFCURVE",
"300 1540 OFFCURVE",
"323 1536 CURVE SMOOTH",
"334 1534 OFFCURVE",
"346 1532 OFFCURVE",
"357 1530 CURVE SMOOTH",
"368 1528 OFFCURVE",
"378 1526 OFFCURVE",
"387 1525 CURVE",
"431 1517 OFFCURVE",
"480 1509 OFFCURVE",
"527 1495 CURVE SMOOTH",
"574 1481 OFFCURVE",
"618 1460 OFFCURVE",
"655 1431 CURVE",
"702 1380 OFFCURVE",
"714 1309 OFFCURVE",
"714 1237 CURVE SMOOTH",
"714 1206 OFFCURVE",
"713 1177 OFFCURVE",
"710 1149 CURVE SMOOTH",
"691 924 LINE SMOOTH",
"689 905 OFFCURVE",
"688 886 OFFCURVE",
"688 867 CURVE SMOOTH",
"688 820 OFFCURVE",
"696 774 OFFCURVE",
"721 739 CURVE",
"741 719 OFFCURVE",
"767 708 OFFCURVE",
"796 701 CURVE SMOOTH",
"825 694 OFFCURVE",
"856 693 OFFCURVE",
"885 693 CURVE SMOOTH",
"888 693 OFFCURVE",
"892 693 OFFCURVE",
"895 694 CURVE",
"898 694 OFFCURVE",
"901 694 OFFCURVE",
"904 694 CURVE SMOOTH",
"907 694 OFFCURVE",
"911 694 OFFCURVE",
"916 694 CURVE",
"927 693 OFFCURVE",
"938 692 OFFCURVE",
"953 692 CURVE",
"942 536 LINE",
"891 536 LINE SMOOTH",
"859 536 OFFCURVE",
"823 536 OFFCURVE",
"790 529 CURVE SMOOTH",
"757 522 OFFCURVE",
"724 509 OFFCURVE",
"699 485 CURVE",
"700 485 LINE",
"677 460 OFFCURVE",
"662 428 OFFCURVE",
"653 395 CURVE SMOOTH",
"644 362 OFFCURVE",
"638 326 OFFCURVE",
"634 294 CURVE",
"633 269 OFFCURVE",
"631 244 OFFCURVE",
"629 219 CURVE",
"626 194 OFFCURVE",
"624 169 OFFCURVE",
"622 144 CURVE SMOOTH",
"617 72 LINE SMOOTH",
"612 24 OFFCURVE",
"607 -27 OFFCURVE",
"592 -75 CURVE SMOOTH",
"577 -124 OFFCURVE",
"554 -171 OFFCURVE",
"513 -207 CURVE",
"473 -235 OFFCURVE",
"431 -253 OFFCURVE",
"388 -265 CURVE SMOOTH",
"345 -278 OFFCURVE",
"302 -285 OFFCURVE",
"259 -292 CURVE",
"246 -295 OFFCURVE",
"232 -297 OFFCURVE",
"218 -299 CURVE SMOOTH",
"204 -301 OFFCURVE",
"190 -304 OFFCURVE",
"177 -307 CURVE",
"138 -313 LINE",
"139 -313 LINE",
"98 -321 LINE",
"99 -310 OFFCURVE",
"101 -297 OFFCURVE",
"104 -282 CURVE",
"106 -267 OFFCURVE",
"108 -251 OFFCURVE",
"110 -234 CURVE SMOOTH",
"112 -218 OFFCURVE",
"114 -202 OFFCURVE",
"117 -187 CURVE",
"119 -172 OFFCURVE",
"121 -158 OFFCURVE",
"122 -147 CURVE"
);
}
);
width = 911;
}
);
unicode = 007D;
},
{
glyphname = asciitilde;
lastChange = "2012-06-10 13:56:22 +0000";
layers = (
{
layerId = "013FA67F-D7C9-4F04-AAC6-32032829ED9A";
name = Bold;
paths = (
{
closed = 1;
nodes = (
"1455 798 LINE",
"1478 805 LINE",
"1452 762 OFFCURVE",
"1435 712 OFFCURVE",
"1428 656 CURVE",
"1365 609 LINE SMOOTH",
"1321 574 OFFCURVE",
"1274 538 OFFCURVE",
"1225 511 CURVE SMOOTH",
"1176 483 OFFCURVE",
"1123 465 OFFCURVE",
"1067 465 CURVE",
"984 468 OFFCURVE",
"921 500 OFFCURVE",
"853 532 CURVE SMOOTH",
"794 561 LINE",
"726 601 OFFCURVE",
"653 637 OFFCURVE",
"573 640 CURVE",
"516 637 OFFCURVE",
"462 613 OFFCURVE",
"413 578 CURVE",
"413 579 LINE",
"346 534 OFFCURVE",
"272 484 OFFCURVE",
"204 444 CURVE",
"180 466 LINE",
"215 525 OFFCURVE",
"233 588 OFFCURVE",
"237 652 CURVE",
"286 693 OFFCURVE",
"341 731 OFFCURVE",
"399 757 CURVE SMOOTH",
"457 783 OFFCURVE",
"518 798 OFFCURVE",
"579 798 CURVE SMOOTH",
"668 798 OFFCURVE",
"758 774 OFFCURVE",
"842 739 CURVE",
"849 735 LINE",
"858 732 OFFCURVE",
"865 730 OFFCURVE",
"872 726 CURVE",
"940 698 OFFCURVE",
"1017 669 OFFCURVE",
"1093 669 CURVE SMOOTH",
"1145 669 OFFCURVE",
"1196 684 OFFCURVE",
"1245 705 CURVE SMOOTH",
"1294 726 OFFCURVE",
"1342 755 OFFCURVE",
"1389 783 CURVE SMOOTH",
"1400 790 OFFCURVE",
"1413 798 OFFCURVE",
"1426 805 CURVE SMOOTH",
"1439 812 OFFCURVE",
"1451 818 OFFCURVE",
"1462 825 CURVE"
);
}
);
width = 1640;
}
);
unicode = 007E;
},
{
glyphname = exclamdown;
lastChange = "2012-06-10 13:56:22 +0000";
layers = (
{
layerId = "013FA67F-D7C9-4F04-AAC6-32032829ED9A";
name = Bold;
paths = (
{
closed = 1;
nodes = (
"588 1194 LINE",
"549 1182 OFFCURVE",
"511 1175 OFFCURVE",
"472 1175 CURVE SMOOTH",
"436 1175 OFFCURVE",
"396 1183 OFFCURVE",
"352 1198 CURVE",
"362 1336 LINE SMOOTH",
"363 1346 OFFCURVE",
"364 1358 OFFCURVE",
"365 1371 CURVE SMOOTH",
"366 1384 OFFCURVE",
"367 1398 OFFCURVE",
"368 1412 CURVE SMOOTH",
"370 1440 OFFCURVE",
"371 1468 OFFCURVE",
"374 1489 CURVE",
"419 1466 OFFCURVE",
"460 1455 OFFCURVE",
"495 1455 CURVE SMOOTH",
"531 1455 OFFCURVE",
"576 1466 OFFCURVE",
"632 1494 CURVE",
"602 1210 LINE"
);
},
{
closed = 1;
nodes = (
"483 12 LINE",
"452 29 OFFCURVE",
"416 37 OFFCURVE",
"376 37 CURVE SMOOTH",
"337 37 OFFCURVE",
"288 24 OFFCURVE",
"231 -4 CURVE",
"244 100 OFFCURVE",
"258 214 OFFCURVE",
"271 327 CURVE SMOOTH",
"284 440 OFFCURVE",
"297 554 OFFCURVE",
"308 658 CURVE SMOOTH",
"323 770 LINE SMOOTH",
"328 807 OFFCURVE",
"334 848 OFFCURVE",
"341 891 CURVE SMOOTH",
"347 934 OFFCURVE",
"352 975 OFFCURVE",
"357 1012 CURVE",
"396 1006 OFFCURVE",
"428 1003 OFFCURVE",
"453 1003 CURVE SMOOTH",
"480 1003 OFFCURVE",
"520 1006 OFFCURVE",
"564 1013 CURVE",
"563 982 OFFCURVE",
"561 947 OFFCURVE",
"560 909 CURVE SMOOTH",
"559 870 OFFCURVE",
"557 835 OFFCURVE",
"556 804 CURVE SMOOTH",
"555 755 OFFCURVE",
"554 705 OFFCURVE",
"551 657 CURVE SMOOTH",
"536 446 OFFCURVE",
"523 239 OFFCURVE",
"512 27 CURVE"
);
}
);
width = 768;
}
);
unicode = 00A1;
},
{
glyphname = cent;
lastChange = "2012-06-10 13:56:22 +0000";
layers = (
{
layerId = "013FA67F-D7C9-4F04-AAC6-32032829ED9A";
name = Bold;
paths = (
{
closed = 1;
nodes = (
"460 241 LINE",
"461 241 OFFCURVE",
"461 241 OFFCURVE",
"462 241 CURVE",
"463 240 OFFCURVE",
"464 240 OFFCURVE",
"465 240 CURVE",
"458 239 LINE",
"453 231 LINE",
"453 238 LINE",
"453 239 LINE",
"454 240 OFFCURVE",
"454 241 OFFCURVE",
"454 241 CURVE",
"455 241 LINE",
"464 246 LINE"
);
},
{
closed = 1;
nodes = (
"220 434 OFFCURVE",
"244 373 OFFCURVE",
"285 327 CURVE SMOOTH",
"326 281 OFFCURVE",
"385 252 OFFCURVE",
"454 241 CURVE",
"478 490 OFFCURVE",
"501 720 OFFCURVE",
"530 971 CURVE",
"422 959 OFFCURVE",
"345 890 OFFCURVE",
"294 802 CURVE SMOOTH",
"243 714 OFFCURVE",
"220 606 OFFCURVE",
"220 513 CURVE SMOOTH"
);
},
{
closed = 1;
nodes = (
"906 987 LINE",
"895 899 LINE",
"811 944 OFFCURVE",
"725 972 OFFCURVE",
"648 977 CURVE",
"633 850 OFFCURVE",
"619 728 OFFCURVE",
"606 606 CURVE SMOOTH",
"593 484 OFFCURVE",
"580 361 OFFCURVE",
"568 233 CURVE",
"651 240 OFFCURVE",
"738 265 OFFCURVE",
"830 305 CURVE",
"829 296 OFFCURVE",
"829 286 OFFCURVE",
"828 275 CURVE",
"827 251 OFFCURVE",
"825 225 OFFCURVE",
"823 202 CURVE SMOOTH",
"822 190 OFFCURVE",
"821 180 OFFCURVE",
"820 171 CURVE SMOOTH",
"816 131 OFFCURVE",
"812 80 OFFCURVE",
"811 41 CURVE",
"714 8 OFFCURVE",
"630 -5 OFFCURVE",
"546 -10 CURVE",
"536 -126 LINE",
"533 -149 OFFCURVE",
"532 -175 OFFCURVE",
"530 -202 CURVE SMOOTH",
"529 -216 OFFCURVE",
"528 -230 OFFCURVE",
"527 -243 CURVE SMOOTH",
"526 -256 OFFCURVE",
"525 -268 OFFCURVE",
"524 -279 CURVE",
"520 -279 OFFCURVE",
"515 -279 OFFCURVE",
"510 -278 CURVE SMOOTH",
"504 -277 OFFCURVE",
"498 -277 OFFCURVE",
"491 -276 CURVE",
"484 -276 OFFCURVE",
"478 -276 OFFCURVE",
"472 -275 CURVE SMOOTH",
"466 -274 OFFCURVE",
"461 -274 OFFCURVE",
"457 -274 CURVE SMOOTH",
"445 -274 OFFCURVE",
"423 -273 OFFCURVE",
"404 -270 CURVE",
"419 -116 LINE SMOOTH",
"421 -95 OFFCURVE",
"423 -75 OFFCURVE",
"424 -58 CURVE SMOOTH",
"425 -41 OFFCURVE",
"427 -22 OFFCURVE",
"430 0 CURVE",
"370 8 OFFCURVE",
"307 25 OFFCURVE",
"249 51 CURVE SMOOTH",
"191 77 OFFCURVE",
"139 113 OFFCURVE",
"103 164 CURVE SMOOTH",
"39 249 OFFCURVE",
"20 358 OFFCURVE",
"20 466 CURVE SMOOTH",
"20 543 OFFCURVE",
"28 633 OFFCURVE",
"53 721 CURVE SMOOTH",
"77 808 OFFCURVE",
"119 892 OFFCURVE",
"184 956 CURVE",
"183 956 LINE",
"231 1007 OFFCURVE",
"290 1042 OFFCURVE",
"353 1067 CURVE SMOOTH",
"416 1091 OFFCURVE",
"484 1104 OFFCURVE",
"548 1111 CURVE",
"551 1150 OFFCURVE",
"556 1192 OFFCURVE",
"561 1231 CURVE SMOOTH",
"579 1383 LINE",
"636 1383 LINE SMOOTH",
"651 1383 OFFCURVE",
"685 1385 OFFCURVE",
"700 1386 CURVE",
"694 1340 OFFCURVE",
"688 1295 OFFCURVE",
"682 1250 CURVE SMOOTH",
"676 1205 OFFCURVE",
"670 1159 OFFCURVE",
"665 1113 CURVE",
"749 1109 OFFCURVE",
"832 1095 OFFCURVE",
"908 1060 CURVE",
"892 1044 LINE",
"915 1048 LINE"
);
}
);
width = 987;
}
);
unicode = 00A2;
},
{
glyphname = sterling;
lastChange = "2012-06-10 13:56:22 +0000";
layers = (
{
layerId = "013FA67F-D7C9-4F04-AAC6-32032829ED9A";
name = Bold;
paths = (
{
closed = 1;
nodes = (
"1182 1382 LINE SMOOTH",
"1180 1372 OFFCURVE",
"1178 1361 OFFCURVE",
"1175 1348 CURVE",
"1170 1322 OFFCURVE",
"1164 1295 OFFCURVE",
"1160 1269 CURVE SMOOTH",
"1158 1256 OFFCURVE",
"1156 1244 OFFCURVE",
"1154 1233 CURVE",
"1074 1273 OFFCURVE",
"992 1302 OFFCURVE",
"912 1302 CURVE SMOOTH",
"877 1302 OFFCURVE",
"838 1296 OFFCURVE",
"801 1284 CURVE SMOOTH",
"764 1271 OFFCURVE",
"727 1251 OFFCURVE",
"702 1226 CURVE",
"674 1190 OFFCURVE",
"657 1147 OFFCURVE",
"645 1102 CURVE SMOOTH",
"633 1057 OFFCURVE",
"626 1009 OFFCURVE",
"621 965 CURVE SMOOTH",
"617 938 OFFCURVE",
"614 911 OFFCURVE",
"611 886 CURVE SMOOTH",
"608 860 OFFCURVE",
"605 833 OFFCURVE",
"602 806 CURVE SMOOTH",
"598 778 LINE",
"615 778 OFFCURVE",
"632 778 OFFCURVE",
"648 777 CURVE SMOOTH",
"664 776 OFFCURVE",
"680 776 OFFCURVE",
"696 776 CURVE SMOOTH",
"736 775 OFFCURVE",
"779 774 OFFCURVE",
"826 774 CURVE SMOOTH",
"873 773 OFFCURVE",
"916 773 OFFCURVE",
"956 772 CURVE",
"947 702 LINE",
"941 636 LINE",
"744 639 LINE",
"584 643 LINE",
"538 255 LINE",
"709 254 OFFCURVE",
"881 246 OFFCURVE",
"1060 227 CURVE",
"1056 174 OFFCURVE",
"1053 106 OFFCURVE",
"1052 55 CURVE SMOOTH",
"1052 48 OFFCURVE",
"1052 38 OFFCURVE",
"1052 24 CURVE",
"1051 10 OFFCURVE",
"1051 0 OFFCURVE",
"1051 -7 CURVE",
"859 18 OFFCURVE",
"677 29 OFFCURVE",
"498 29 CURVE SMOOTH",
"365 29 OFFCURVE",
"220 22 OFFCURVE",
"61 7 CURVE",
"64 22 OFFCURVE",
"68 38 OFFCURVE",
"71 56 CURVE SMOOTH",
"74 74 OFFCURVE",
"78 92 OFFCURVE",
"82 111 CURVE SMOOTH",
"89 147 OFFCURVE",
"96 183 OFFCURVE",
"101 214 CURVE",
"107 244 LINE",
"182 249 OFFCURVE",
"254 252 OFFCURVE",
"329 255 CURVE",
"334 289 OFFCURVE",
"338 322 OFFCURVE",
"343 354 CURVE SMOOTH",
"347 385 OFFCURVE",
"351 417 OFFCURVE",
"356 449 CURVE SMOOTH",
"360 480 OFFCURVE",
"364 512 OFFCURVE",
"368 545 CURVE SMOOTH",
"371 577 OFFCURVE",
"375 610 OFFCURVE",
"379 645 CURVE",
"322 645 OFFCURVE",
"252 646 OFFCURVE",
"197 647 CURVE",
"214 786 LINE",
"244 785 OFFCURVE",
"274 784 OFFCURVE",
"305 783 CURVE SMOOTH",
"335 782 OFFCURVE",
"365 782 OFFCURVE",
"395 781 CURVE",
"405 880 LINE SMOOTH",
"407 899 OFFCURVE",
"409 919 OFFCURVE",
"411 939 CURVE SMOOTH",
"414 978 OFFCURVE",
"419 1026 OFFCURVE",
"432 1090 CURVE SMOOTH",
"444 1154 OFFCURVE",
"464 1217 OFFCURVE",
"497 1275 CURVE SMOOTH",
"529 1333 OFFCURVE",
"577 1379 OFFCURVE",
"637 1410 CURVE SMOOTH",
"697 1441 OFFCURVE",
"762 1459 OFFCURVE",
"827 1468 CURVE SMOOTH",
"860 1472 OFFCURVE",
"891 1474 OFFCURVE",
"920 1474 CURVE SMOOTH",
"1008 1474 OFFCURVE",
"1095 1459 OFFCURVE",
"1179 1434 CURVE",
"1164 1416 LINE",
"1189 1420 LINE"
);
}
);
width = 1317;
}
);
unicode = 00A3;
},
